  0
SECTION
  2
HEADER
  9
$ACADVER
  1
AC1014
  9
$HANDSEED
  5
FFFF
  9
$MEASUREMENT
 70
     1
  0
ENDSEC
  0
SECTION
  2
TABLES
  0
TABLE
  2
VPORT
  5
8
330
0
100
AcDbSymbolTable
 70
     4
  0
VPORT
  5
2E
330
8
100
AcDbSymbolTableRecord
100
AcDbViewportTableRecord
  2
*ACTIVE
 70
     0
 10
0.0
 20
0.0
 11
1.0
 21
1.0
 12
210.0
 22
148.5
 13
0.0
 23
0.0
 14
10.0
 24
10.0
 15
10.0
 25
10.0
 16
0.0
 26
0.0
 36
1.0
 17
0.0
 27
0.0
 37
0.0
 40
341.0
 41
1.24
 42
50.0
 43
0.0
 44
0.0
 50
0.0
 51
0.0
 71
     0
 72
   100
 73
     1
 74
     3
 75
     0
 76
     0
 77
     0
 78
     0
  0
ENDTAB
  0
TABLE
  2
LTYPE
  5
5
330
0
100
AcDbSymbolTable
 70
     1
  0
LTYPE
  5
14
330
5
100
AcDbSymbolTableRecord
100
AcDbLinetypeTableRecord
  2
BYBLOCK
 70
     0
  3

 72
    65
 73
     0
 40
0.0
  0
LTYPE
  5
15
330
5
100
AcDbSymbolTableRecord
100
AcDbLinetypeTableRecord
  2
BYLAYER
 70
     0
  3

 72
    65
 73
     0
 40
0.0
  0
LTYPE
  5
16
330
5
100
AcDbSymbolTableRecord
100
AcDbLinetypeTableRecord
  2
CONTINUOUS
 70
     0
  3
Solid line
 72
    65
 73
     0
 40
0.0
  0
ENDTAB
  0
TABLE
  2
LAYER
  5
2
100
AcDbSymbolTable
 70
2
  0
LAYER
  5
50
100
AcDbSymbolTableRecord
100
AcDbLayerTableRecord
  2
0
 70
0
  6
CONTINUOUS
  0
LAYER
  5
51
100
AcDbSymbolTableRecord
100
AcDbLayerTableRecord
  2
Ebene_1
 70
0
  6
CONTINUOUS
  0
ENDTAB
  0
TABLE
  2
STYLE
  5
3
330
0
100
AcDbSymbolTable
 70
     1
  0
STYLE
  5
11
330
3
100
AcDbSymbolTableRecord
100
AcDbTextStyleTableRecord
  2
STANDARD
 70
     0
 40
0.0
 41
1.0
 50
0.0
 71
     0
 42
2.5
  3
txt
  4

  0
ENDTAB
  0
TABLE
  2
VIEW
  5
6
330
0
100
AcDbSymbolTable
 70
     0
  0
ENDTAB
  0
TABLE
  2
UCS
  5
7
330
0
100
AcDbSymbolTable
 70
     0
  0
ENDTAB
  0
TABLE
  2
APPID
  5
9
330
0
100
AcDbSymbolTable
 70
     2
  0
APPID
  5
12
330
9
100
AcDbSymbolTableRecord
100
AcDbRegAppTableRecord
  2
ACAD
 70
     0
  0
ENDTAB
  0
TABLE
  2
DIMSTYLE
  5
A
330
0
100
AcDbSymbolTable
 70
     1
  0
DIMSTYLE
105
27
330
A
100
AcDbSymbolTableRecord
100
AcDbDimStyleTableRecord
  2
ISO-25
 70
     0
  3

  4

  5

  6

  7

 40
1.0
 41
2.5
 42
0.625
 43
3.75
 44
1.25
 45
0.0
 46
0.0
 47
0.0
 48
0.0
140
2.5
141
2.5
142
0.0
143
0.03937007874016
144
1.0
145
0.0
146
1.0
147
0.625
 71
     0
 72
     0
 73
     0
 74
     0
 75
     0
 76
     0
 77
     1
 78
     8
170
     0
171
     3
172
     1
173
     0
174
     0
175
     0
176
     0
177
     0
178
     0
270
     2
271
     2
272
     2
273
     2
274
     3
340
11
275
     0
280
     0
281
     0
282
     0
283
     0
284
     8
285
     0
286
     0
287
     3
288
     0
  0
ENDTAB
  0
TABLE
  2
BLOCK_RECORD
  5
1
330
0
100
AcDbSymbolTable
 70
     1
  0
BLOCK_RECORD
  5
1F
330
1
100
AcDbSymbolTableRecord
100
AcDbBlockTableRecord
  2
*MODEL_SPACE
  0
BLOCK_RECORD
  5
1B
330
1
100
AcDbSymbolTableRecord
100
AcDbBlockTableRecord
  2
*PAPER_SPACE
  0
ENDTAB
  0
ENDSEC
  0
SECTION
  2
BLOCKS
  0
BLOCK
  5
20
330
1F
100
AcDbEntity
  8
0
100
AcDbBlockBegin
  2
*MODEL_SPACE
 70
     0
 10
0.0
 20
0.0
 30
0.0
  3
*MODEL_SPACE
  1

  0
ENDBLK
  5
21
330
1F
100
AcDbEntity
  8
0
100
AcDbBlockEnd
  0
BLOCK
  5
1C
330
1B
100
AcDbEntity
 67
     1
  8
0
100
AcDbBlockBegin
  2
*PAPER_SPACE
  1

  0
ENDBLK
  5
1D
330
1B
100
AcDbEntity
 67
     1
  8
0
100
AcDbBlockEnd
  0
ENDSEC
  0
SECTION
  2
ENTITIES
  0
LINE
  5
100
100
AcDbEntity
  8
Ebene_1
 62
7
100
AcDbLine
 10
19.116992
 20
13.082968
 30
0.0
 11
19.116992
 21
13.836747
 31
0.0
  0
SPLINE
  5
101
100
AcDbEntity
  8
Ebene_1
 62
7
100
AcDbSpline
 70
8
 71
3
 72
8
 73
4
 74
0
 40
0
 40
0
 40
0
 40
0
 40
1
 40
1
 40
1
 40
1
 10
19.116992
 20
13.836747
 30
0.0
 10
19.116992
 20
13.947385
 30
0.0
 10
19.206681
 20
14.037075
 30
0.0
 10
19.317324
 20
14.037075
 30
0.0
  0
LINE
  5
102
100
AcDbEntity
  8
Ebene_1
 62
7
100
AcDbLine
 10
19.317324
 20
14.037075
 30
0.0
 11
19.517655
 21
14.037075
 31
0.0
  0
SPLINE
  5
103
100
AcDbEntity
  8
Ebene_1
 62
7
100
AcDbSpline
 70
8
 71
3
 72
8
 73
4
 74
0
 40
0
 40
0
 40
0
 40
0
 40
1
 40
1
 40
1
 40
1
 10
19.517655
 20
14.037075
 30
0.0
 10
19.628278
 20
14.037075
 30
0.0
 10
19.717987
 20
13.947385
 30
0.0
 10
19.717987
 20
13.836747
 30
0.0
  0
LINE
  5
104
100
AcDbEntity
  8
Ebene_1
 62
7
100
AcDbLine
 10
19.717987
 20
13.836747
 30
0.0
 11
19.717987
 21
13.082968
 31
0.0
  0
SPLINE
  5
105
100
AcDbEntity
  8
Ebene_1
 62
7
100
AcDbSpline
 70
8
 71
3
 72
8
 73
4
 74
0
 40
0
 40
0
 40
0
 40
0
 40
1
 40
1
 40
1
 40
1
 10
19.717987
 20
13.082968
 30
0.0
 10
19.717987
 20
12.972352
 30
0.0
 10
19.628278
 20
12.882648
 30
0.0
 10
19.517655
 20
12.882648
 30
0.0
  0
LINE
  5
106
100
AcDbEntity
  8
Ebene_1
 62
7
100
AcDbLine
 10
19.517655
 20
12.882648
 30
0.0
 11
19.317324
 21
12.882648
 31
0.0
  0
SPLINE
  5
107
100
AcDbEntity
  8
Ebene_1
 62
7
100
AcDbSpline
 70
8
 71
3
 72
8
 73
4
 74
0
 40
0
 40
0
 40
0
 40
0
 40
1
 40
1
 40
1
 40
1
 10
19.317324
 20
12.882648
 30
0.0
 10
19.206681
 20
12.882648
 30
0.0
 10
19.116992
 20
12.972352
 30
0.0
 10
19.116992
 20
13.082968
 30
0.0
  0
LINE
  5
108
100
AcDbEntity
  8
Ebene_1
 62
7
100
AcDbLine
 10
19.116992
 20
13.082968
 30
0.0
 11
19.116992
 21
13.082968
 31
0.0
  0
LINE
  5
109
100
AcDbEntity
  8
Ebene_1
 62
7
100
AcDbLine
 10
19.116992
 20
13.082968
 30
0.0
 11
19.116992
 21
13.082968
 31
0.0
  0
LINE
  5
10a
100
AcDbEntity
  8
Ebene_1
 62
7
100
AcDbLine
 10
18.358367
 20
12.210709
 30
0.0
 11
21.152838
 21
12.210709
 31
0.0
  0
LINE
  5
10b
100
AcDbEntity
  8
Ebene_1
 62
7
100
AcDbLine
 10
21.152838
 20
12.210709
 30
0.0
 11
21.152838
 21
12.711548
 31
0.0
  0
LINE
  5
10c
100
AcDbEntity
  8
Ebene_1
 62
7
100
AcDbLine
 10
21.152838
 20
12.711548
 30
0.0
 11
21.470870
 21
12.711548
 31
0.0
  0
LINE
  5
10d
100
AcDbEntity
  8
Ebene_1
 62
7
100
AcDbLine
 10
21.470870
 20
12.711548
 30
0.0
 11
21.470870
 21
14.032065
 31
0.0
  0
LINE
  5
10e
100
AcDbEntity
  8
Ebene_1
 62
7
100
AcDbLine
 10
21.470870
 20
14.032065
 30
0.0
 11
20.882476
 21
14.032065
 31
0.0
  0
LINE
  5
10f
100
AcDbEntity
  8
Ebene_1
 62
7
100
AcDbLine
 10
20.882476
 20
14.032065
 30
0.0
 11
20.882476
 21
13.781645
 31
0.0
  0
LINE
  5
110
100
AcDbEntity
  8
Ebene_1
 62
7
100
AcDbLine
 10
20.882476
 20
13.781645
 30
0.0
 11
20.556934
 21
13.781645
 31
0.0
  0
LINE
  5
111
100
AcDbEntity
  8
Ebene_1
 62
7
100
AcDbLine
 10
20.556934
 20
13.781645
 30
0.0
 11
20.556934
 21
14.032065
 31
0.0
  0
LINE
  5
112
100
AcDbEntity
  8
Ebene_1
 62
7
100
AcDbLine
 10
20.556934
 20
14.032065
 30
0.0
 11
20.356612
 21
14.032065
 31
0.0
  0
LINE
  5
113
100
AcDbEntity
  8
Ebene_1
 62
7
100
AcDbLine
 10
20.356612
 20
14.032065
 30
0.0
 11
20.356612
 21
14.350099
 31
0.0
  0
LINE
  5
114
100
AcDbEntity
  8
Ebene_1
 62
7
100
AcDbLine
 10
20.356612
 20
14.350099
 30
0.0
 11
20.556934
 21
14.350099
 31
0.0
  0
LINE
  5
115
100
AcDbEntity
  8
Ebene_1
 62
7
100
AcDbLine
 10
20.556934
 20
14.350099
 30
0.0
 11
20.556934
 21
14.600529
 31
0.0
  0
LINE
  5
116
100
AcDbEntity
  8
Ebene_1
 62
7
100
AcDbLine
 10
20.556934
 20
14.600529
 30
0.0
 11
20.882476
 21
14.600529
 31
0.0
  0
LINE
  5
117
100
AcDbEntity
  8
Ebene_1
 62
7
100
AcDbLine
 10
20.882476
 20
14.600529
 30
0.0
 11
20.882476
 21
14.350099
 31
0.0
  0
LINE
  5
118
100
AcDbEntity
  8
Ebene_1
 62
7
100
AcDbLine
 10
20.882476
 20
14.350099
 30
0.0
 11
21.470870
 21
14.350099
 31
0.0
  0
LINE
  5
119
100
AcDbEntity
  8
Ebene_1
 62
7
100
AcDbLine
 10
21.470870
 20
14.350099
 30
0.0
 11
21.470870
 21
14.709014
 31
0.0
  0
LINE
  5
11a
100
AcDbEntity
  8
Ebene_1
 62
7
100
AcDbLine
 10
21.470870
 20
14.709014
 30
0.0
 11
21.152838
 21
14.709014
 31
0.0
  0
LINE
  5
11b
100
AcDbEntity
  8
Ebene_1
 62
7
100
AcDbLine
 10
21.152838
 20
14.709014
 30
0.0
 11
21.152838
 21
15.209845
 31
0.0
  0
LINE
  5
11c
100
AcDbEntity
  8
Ebene_1
 62
7
100
AcDbLine
 10
21.152838
 20
15.209845
 30
0.0
 11
18.358367
 21
15.209845
 31
0.0
  0
LINE
  5
11d
100
AcDbEntity
  8
Ebene_1
 62
7
100
AcDbLine
 10
18.358367
 20
15.209845
 30
0.0
 11
18.358367
 21
14.709014
 31
0.0
  0
LINE
  5
11e
100
AcDbEntity
  8
Ebene_1
 62
7
100
AcDbLine
 10
18.358367
 20
14.709014
 30
0.0
 11
18.040335
 21
14.709014
 31
0.0
  0
LINE
  5
11f
100
AcDbEntity
  8
Ebene_1
 62
7
100
AcDbLine
 10
18.040335
 20
14.709014
 30
0.0
 11
18.040335
 21
14.350107
 31
0.0
  0
LINE
  5
120
100
AcDbEntity
  8
Ebene_1
 62
7
100
AcDbLine
 10
18.040335
 20
14.350107
 30
0.0
 11
18.615275
 21
14.350107
 31
0.0
  0
LINE
  5
121
100
AcDbEntity
  8
Ebene_1
 62
7
100
AcDbLine
 10
18.615275
 20
14.350107
 30
0.0
 11
18.615275
 21
14.600529
 31
0.0
  0
LINE
  5
122
100
AcDbEntity
  8
Ebene_1
 62
7
100
AcDbLine
 10
18.615275
 20
14.600529
 30
0.0
 11
18.940817
 21
14.600529
 31
0.0
  0
LINE
  5
123
100
AcDbEntity
  8
Ebene_1
 62
7
100
AcDbLine
 10
18.940817
 20
14.600529
 30
0.0
 11
18.940817
 21
14.350107
 31
0.0
  0
LINE
  5
124
100
AcDbEntity
  8
Ebene_1
 62
7
100
AcDbLine
 10
18.940817
 20
14.350107
 30
0.0
 11
19.040978
 21
14.350107
 31
0.0
  0
LINE
  5
125
100
AcDbEntity
  8
Ebene_1
 62
7
100
AcDbLine
 10
19.040978
 20
14.350107
 30
0.0
 11
19.040978
 21
14.032086
 31
0.0
  0
LINE
  5
126
100
AcDbEntity
  8
Ebene_1
 62
7
100
AcDbLine
 10
19.040978
 20
14.032086
 30
0.0
 11
18.940817
 21
14.032086
 31
0.0
  0
LINE
  5
127
100
AcDbEntity
  8
Ebene_1
 62
7
100
AcDbLine
 10
18.940817
 20
14.032086
 30
0.0
 11
18.940817
 21
13.781664
 31
0.0
  0
LINE
  5
128
100
AcDbEntity
  8
Ebene_1
 62
7
100
AcDbLine
 10
18.940817
 20
13.781664
 30
0.0
 11
18.615275
 21
13.781664
 31
0.0
  0
LINE
  5
129
100
AcDbEntity
  8
Ebene_1
 62
7
100
AcDbLine
 10
18.615275
 20
13.781664
 30
0.0
 11
18.615275
 21
14.032086
 31
0.0
  0
LINE
  5
12a
100
AcDbEntity
  8
Ebene_1
 62
7
100
AcDbLine
 10
18.615275
 20
14.032086
 30
0.0
 11
18.040335
 21
14.032086
 31
0.0
  0
LINE
  5
12b
100
AcDbEntity
  8
Ebene_1
 62
7
100
AcDbLine
 10
18.040335
 20
14.032086
 30
0.0
 11
18.040335
 21
12.711548
 31
0.0
  0
LINE
  5
12c
100
AcDbEntity
  8
Ebene_1
 62
7
100
AcDbLine
 10
18.040335
 20
12.711548
 30
0.0
 11
18.358367
 21
12.711548
 31
0.0
  0
LINE
  5
12d
100
AcDbEntity
  8
Ebene_1
 62
7
100
AcDbLine
 10
18.358367
 20
12.711548
 30
0.0
 11
18.358367
 21
12.265510
 31
0.0
  0
SPLINE
  5
12e
100
AcDbEntity
  8
Ebene_1
 62
7
100
AcDbSpline
 70
8
 71
3
 72
8
 73
4
 74
0
 40
0
 40
0
 40
0
 40
0
 40
1
 40
1
 40
1
 40
1
 10
23.528743
 20
13.742387
 30
0.0
 10
23.466123
 20
13.742387
 30
0.0
 10
23.408251
 20
13.708973
 30
0.0
 10
23.376936
 20
13.654734
 30
0.0
  0
SPLINE
  5
12f
100
AcDbEntity
  8
Ebene_1
 62
7
100
AcDbSpline
 70
8
 71
3
 72
8
 73
4
 74
0
 40
0
 40
0
 40
0
 40
0
 40
1
 40
1
 40
1
 40
1
 10
23.376936
 20
13.654734
 30
0.0
 10
23.345631
 20
13.600495
 30
0.0
 10
23.345631
 20
13.533675
 30
0.0
 10
23.376936
 20
13.479436
 30
0.0
  0
SPLINE
  5
130
100
AcDbEntity
  8
Ebene_1
 62
7
100
AcDbSpline
 70
8
 71
3
 72
8
 73
4
 74
0
 40
0
 40
0
 40
0
 40
0
 40
1
 40
1
 40
1
 40
1
 10
23.376936
 20
13.479436
 30
0.0
 10
23.408251
 20
13.425197
 30
0.0
 10
23.466123
 20
13.391784
 30
0.0
 10
23.528743
 20
13.391784
 30
0.0
  0
SPLINE
  5
131
100
AcDbEntity
  8
Ebene_1
 62
7
100
AcDbSpline
 70
8
 71
3
 72
8
 73
4
 74
0
 40
0
 40
0
 40
0
 40
0
 40
1
 40
1
 40
1
 40
1
 10
23.528743
 20
13.391784
 30
0.0
 10
23.591354
 20
13.391784
 30
0.0
 10
23.649235
 20
13.425197
 30
0.0
 10
23.680551
 20
13.479436
 30
0.0
  0
SPLINE
  5
132
100
AcDbEntity
  8
Ebene_1
 62
7
100
AcDbSpline
 70
8
 71
3
 72
8
 73
4
 74
0
 40
0
 40
0
 40
0
 40
0
 40
1
 40
1
 40
1
 40
1
 10
23.680551
 20
13.479436
 30
0.0
 10
23.711856
 20
13.533675
 30
0.0
 10
23.711856
 20
13.600495
 30
0.0
 10
23.680551
 20
13.654734
 30
0.0
  0
SPLINE
  5
133
100
AcDbEntity
  8
Ebene_1
 62
7
100
AcDbSpline
 70
8
 71
3
 72
8
 73
4
 74
0
 40
0
 40
0
 40
0
 40
0
 40
1
 40
1
 40
1
 40
1
 10
23.680551
 20
13.654734
 30
0.0
 10
23.649235
 20
13.708973
 30
0.0
 10
23.591354
 20
13.742387
 30
0.0
 10
23.528743
 20
13.742387
 30
0.0
  0
LINE
  5
134
100
AcDbEntity
  8
Ebene_1
 62
7
100
AcDbLine
 10
23.528743
 20
13.742387
 30
0.0
 11
23.528743
 21
13.742387
 31
0.0
  0
LINE
  5
135
100
AcDbEntity
  8
Ebene_1
 62
7
100
AcDbLine
 10
23.528743
 20
13.742387
 30
0.0
 11
23.528743
 21
13.742387
 31
0.0
  0
LINE
  5
136
100
AcDbEntity
  8
Ebene_1
 62
7
100
AcDbLine
 10
27.310734
 20
13.893876
 30
0.0
 11
27.511065
 21
13.893876
 31
0.0
  0
SPLINE
  5
137
100
AcDbEntity
  8
Ebene_1
 62
7
100
AcDbSpline
 70
8
 71
3
 72
8
 73
4
 74
0
 40
0
 40
0
 40
0
 40
0
 40
1
 40
1
 40
1
 40
1
 10
27.511065
 20
13.893876
 30
0.0
 10
27.621698
 20
13.893876
 30
0.0
 10
27.711389
 20
13.804186
 30
0.0
 10
27.711389
 20
13.693559
 30
0.0
  0
LINE
  5
138
100
AcDbEntity
  8
Ebene_1
 62
7
100
AcDbLine
 10
27.711389
 20
13.693559
 30
0.0
 11
27.711389
 21
13.440629
 31
0.0
  0
SPLINE
  5
139
100
AcDbEntity
  8
Ebene_1
 62
7
100
AcDbSpline
 70
8
 71
3
 72
8
 73
4
 74
0
 40
0
 40
0
 40
0
 40
0
 40
1
 40
1
 40
1
 40
1
 10
27.711389
 20
13.440629
 30
0.0
 10
27.711389
 20
13.329984
 30
0.0
 10
27.621698
 20
13.240291
 30
0.0
 10
27.511065
 20
13.240270
 30
0.0
  0
LINE
  5
13a
100
AcDbEntity
  8
Ebene_1
 62
7
100
AcDbLine
 10
27.511065
 20
13.240270
 30
0.0
 11
27.310734
 21
13.240270
 31
0.0
  0
SPLINE
  5
13b
100
AcDbEntity
  8
Ebene_1
 62
7
100
AcDbSpline
 70
8
 71
3
 72
8
 73
4
 74
0
 40
0
 40
0
 40
0
 40
0
 40
1
 40
1
 40
1
 40
1
 10
27.310734
 20
13.240270
 30
0.0
 10
27.200082
 20
13.240291
 30
0.0
 10
27.110402
 20
13.329984
 30
0.0
 10
27.110402
 20
13.440629
 30
0.0
  0
LINE
  5
13c
100
AcDbEntity
  8
Ebene_1
 62
7
100
AcDbLine
 10
27.110402
 20
13.440629
 30
0.0
 11
27.110402
 21
13.693559
 31
0.0
  0
SPLINE
  5
13d
100
AcDbEntity
  8
Ebene_1
 62
7
100
AcDbSpline
 70
8
 71
3
 72
8
 73
4
 74
0
 40
0
 40
0
 40
0
 40
0
 40
1
 40
1
 40
1
 40
1
 10
27.110402
 20
13.693559
 30
0.0
 10
27.110402
 20
13.804186
 30
0.0
 10
27.200082
 20
13.893876
 30
0.0
 10
27.310734
 20
13.893876
 30
0.0
  0
LINE
  5
13e
100
AcDbEntity
  8
Ebene_1
 62
7
100
AcDbLine
 10
27.310734
 20
13.893876
 30
0.0
 11
27.310734
 21
13.893876
 31
0.0
  0
LINE
  5
13f
100
AcDbEntity
  8
Ebene_1
 62
7
100
AcDbLine
 10
27.310734
 20
13.893876
 30
0.0
 11
27.310734
 21
13.893876
 31
0.0
  0
LINE
  5
140
100
AcDbEntity
  8
Ebene_1
 62
7
100
AcDbLine
 10
28.645416
 20
20.277305
 30
0.0
 11
28.645416
 21
20.595339
 31
0.0
  0
LINE
  5
141
100
AcDbEntity
  8
Ebene_1
 62
7
100
AcDbLine
 10
28.645416
 20
20.595339
 30
0.0
 11
27.230464
 21
20.595339
 31
0.0
  0
LINE
  5
142
100
AcDbEntity
  8
Ebene_1
 62
7
100
AcDbLine
 10
27.230464
 20
20.595339
 30
0.0
 11
27.230464
 21
20.020379
 31
0.0
  0
LINE
  5
143
100
AcDbEntity
  8
Ebene_1
 62
7
100
AcDbLine
 10
27.230464
 20
20.020379
 30
0.0
 11
27.480874
 21
20.020379
 31
0.0
  0
LINE
  5
144
100
AcDbEntity
  8
Ebene_1
 62
7
100
AcDbLine
 10
27.480874
 20
20.020379
 30
0.0
 11
27.480874
 21
19.694824
 31
0.0
  0
LINE
  5
145
100
AcDbEntity
  8
Ebene_1
 62
7
100
AcDbLine
 10
27.480874
 20
19.694824
 30
0.0
 11
27.230464
 21
19.694824
 31
0.0
  0
LINE
  5
146
100
AcDbEntity
  8
Ebene_1
 62
7
100
AcDbLine
 10
27.230464
 20
19.694824
 30
0.0
 11
27.230464
 21
19.594662
 31
0.0
  0
LINE
  5
147
100
AcDbEntity
  8
Ebene_1
 62
7
100
AcDbLine
 10
27.230464
 20
19.594662
 30
0.0
 11
26.912440
 21
19.594662
 31
0.0
  0
LINE
  5
148
100
AcDbEntity
  8
Ebene_1
 62
7
100
AcDbLine
 10
26.912440
 20
19.594662
 30
0.0
 11
26.912440
 21
19.694824
 31
0.0
  0
LINE
  5
149
100
AcDbEntity
  8
Ebene_1
 62
7
100
AcDbLine
 10
26.912440
 20
19.694824
 30
0.0
 11
26.662028
 21
19.694824
 31
0.0
  0
LINE
  5
14a
100
AcDbEntity
  8
Ebene_1
 62
7
100
AcDbLine
 10
26.662028
 20
19.694824
 30
0.0
 11
26.662028
 21
20.020379
 31
0.0
  0
LINE
  5
14b
100
AcDbEntity
  8
Ebene_1
 62
7
100
AcDbLine
 10
26.662028
 20
20.020379
 30
0.0
 11
26.912440
 21
20.020379
 31
0.0
  0
LINE
  5
14c
100
AcDbEntity
  8
Ebene_1
 62
7
100
AcDbLine
 10
26.912440
 20
20.020379
 30
0.0
 11
26.912440
 21
20.595339
 31
0.0
  0
LINE
  5
14d
100
AcDbEntity
  8
Ebene_1
 62
7
100
AcDbLine
 10
26.912440
 20
20.595339
 30
0.0
 11
25.585964
 21
20.595339
 31
0.0
  0
LINE
  5
14e
100
AcDbEntity
  8
Ebene_1
 62
7
100
AcDbLine
 10
25.585964
 20
20.595339
 30
0.0
 11
25.585964
 21
20.277305
 31
0.0
  0
LINE
  5
14f
100
AcDbEntity
  8
Ebene_1
 62
7
100
AcDbLine
 10
25.585964
 20
20.277305
 30
0.0
 11
25.085140
 21
20.277305
 31
0.0
  0
LINE
  5
150
100
AcDbEntity
  8
Ebene_1
 62
7
100
AcDbLine
 10
25.085140
 20
20.277305
 30
0.0
 11
23.228091
 21
17.558580
 31
0.0
  0
LINE
  5
151
100
AcDbEntity
  8
Ebene_1
 62
7
100
AcDbLine
 10
23.228091
 20
17.558580
 30
0.0
 11
21.629876
 21
14.933168
 31
0.0
  0
LINE
  5
152
100
AcDbEntity
  8
Ebene_1
 62
7
100
AcDbLine
 10
21.629876
 20
14.813789
 30
0.0
 11
21.629876
 21
12.200999
 31
0.0
  0
LINE
  5
153
100
AcDbEntity
  8
Ebene_1
 62
7
100
AcDbLine
 10
21.629876
 20
12.200999
 30
0.0
 11
23.228091
 21
9.575569
 31
0.0
  0
LINE
  5
154
100
AcDbEntity
  8
Ebene_1
 62
7
100
AcDbLine
 10
23.228091
 20
9.575569
 30
0.0
 11
24.622098
 21
7.534729
 31
0.0
  0
LINE
  5
155
100
AcDbEntity
  8
Ebene_1
 62
7
100
AcDbLine
 10
24.632238
 20
7.519887
 30
0.0
 11
25.085140
 21
6.856847
 31
0.0
  0
LINE
  5
156
100
AcDbEntity
  8
Ebene_1
 62
7
100
AcDbLine
 10
25.107058
 20
6.856847
 30
0.0
 11
25.585964
 21
6.856847
 31
0.0
  0
LINE
  5
157
100
AcDbEntity
  8
Ebene_1
 62
7
100
AcDbLine
 10
25.585964
 20
6.856847
 30
0.0
 11
25.585964
 21
6.538832
 31
0.0
  0
LINE
  5
158
100
AcDbEntity
  8
Ebene_1
 62
7
100
AcDbLine
 10
25.585964
 20
6.538832
 30
0.0
 11
26.912440
 21
6.538832
 31
0.0
  0
LINE
  5
159
100
AcDbEntity
  8
Ebene_1
 62
7
100
AcDbLine
 10
26.912440
 20
6.538832
 30
0.0
 11
26.912440
 21
7.104437
 31
0.0
  0
LINE
  5
15a
100
AcDbEntity
  8
Ebene_1
 62
7
100
AcDbLine
 10
26.912440
 20
7.104437
 30
0.0
 11
26.662028
 21
7.104437
 31
0.0
  0
LINE
  5
15b
100
AcDbEntity
  8
Ebene_1
 62
7
100
AcDbLine
 10
26.662028
 20
7.104437
 30
0.0
 11
26.662028
 21
7.429987
 31
0.0
  0
LINE
  5
15c
100
AcDbEntity
  8
Ebene_1
 62
7
100
AcDbLine
 10
26.662028
 20
7.429987
 30
0.0
 11
26.912440
 21
7.429987
 31
0.0
  0
LINE
  5
15d
100
AcDbEntity
  8
Ebene_1
 62
7
100
AcDbLine
 10
26.912440
 20
7.429987
 30
0.0
 11
26.912440
 21
7.530160
 31
0.0
  0
LINE
  5
15e
100
AcDbEntity
  8
Ebene_1
 62
7
100
AcDbLine
 10
26.912440
 20
7.530160
 30
0.0
 11
27.230464
 21
7.530160
 31
0.0
  0
LINE
  5
15f
100
AcDbEntity
  8
Ebene_1
 62
7
100
AcDbLine
 10
27.230464
 20
7.530160
 30
0.0
 11
27.230464
 21
7.429987
 31
0.0
  0
LINE
  5
160
100
AcDbEntity
  8
Ebene_1
 62
7
100
AcDbLine
 10
27.230464
 20
7.429987
 30
0.0
 11
27.480874
 21
7.429987
 31
0.0
  0
LINE
  5
161
100
AcDbEntity
  8
Ebene_1
 62
7
100
AcDbLine
 10
27.480874
 20
7.429987
 30
0.0
 11
27.480874
 21
7.104437
 31
0.0
  0
LINE
  5
162
100
AcDbEntity
  8
Ebene_1
 62
7
100
AcDbLine
 10
27.480874
 20
7.104437
 30
0.0
 11
27.230464
 21
7.104437
 31
0.0
  0
LINE
  5
163
100
AcDbEntity
  8
Ebene_1
 62
7
100
AcDbLine
 10
27.230464
 20
7.104437
 30
0.0
 11
27.230464
 21
6.538832
 31
0.0
  0
LINE
  5
164
100
AcDbEntity
  8
Ebene_1
 62
7
100
AcDbLine
 10
27.230464
 20
6.538832
 30
0.0
 11
28.645416
 21
6.538832
 31
0.0
  0
LINE
  5
165
100
AcDbEntity
  8
Ebene_1
 62
7
100
AcDbLine
 10
28.645416
 20
6.538832
 30
0.0
 11
28.645416
 21
6.856847
 31
0.0
  0
LINE
  5
166
100
AcDbEntity
  8
Ebene_1
 62
7
100
AcDbLine
 10
28.645416
 20
6.856847
 30
0.0
 11
29.146238
 21
6.856847
 31
0.0
  0
LINE
  5
167
100
AcDbEntity
  8
Ebene_1
 62
7
100
AcDbLine
 10
29.146238
 20
6.914547
 30
0.0
 11
29.146238
 21
9.575569
 31
0.0
  0
LINE
  5
168
100
AcDbEntity
  8
Ebene_1
 62
7
100
AcDbLine
 10
29.146238
 20
9.575569
 30
0.0
 11
29.489638
 21
9.575569
 31
0.0
  0
LINE
  5
169
100
AcDbEntity
  8
Ebene_1
 62
7
100
AcDbLine
 10
29.489638
 20
9.575569
 30
0.0
 11
29.489638
 21
13.888866
 31
0.0
  0
LINE
  5
16a
100
AcDbEntity
  8
Ebene_1
 62
7
100
AcDbLine
 10
29.489638
 20
13.888866
 30
0.0
 11
29.102545
 21
13.888866
 31
0.0
  0
LINE
  5
16b
100
AcDbEntity
  8
Ebene_1
 62
7
100
AcDbLine
 10
29.102545
 20
13.888866
 30
0.0
 11
29.102545
 21
13.638447
 31
0.0
  0
LINE
  5
16c
100
AcDbEntity
  8
Ebene_1
 62
7
100
AcDbLine
 10
29.102545
 20
13.638447
 30
0.0
 11
28.777012
 21
13.638447
 31
0.0
  0
LINE
  5
16d
100
AcDbEntity
  8
Ebene_1
 62
7
100
AcDbLine
 10
28.777012
 20
13.638447
 30
0.0
 11
28.777012
 21
13.888866
 31
0.0
  0
LINE
  5
16e
100
AcDbEntity
  8
Ebene_1
 62
7
100
AcDbLine
 10
28.777012
 20
13.888866
 30
0.0
 11
28.576680
 21
13.888866
 31
0.0
  0
LINE
  5
16f
100
AcDbEntity
  8
Ebene_1
 62
7
100
AcDbLine
 10
28.576680
 20
13.888866
 30
0.0
 11
28.576680
 21
14.206900
 31
0.0
  0
LINE
  5
170
100
AcDbEntity
  8
Ebene_1
 62
7
100
AcDbLine
 10
28.576680
 20
14.206900
 30
0.0
 11
28.777012
 21
14.206900
 31
0.0
  0
LINE
  5
171
100
AcDbEntity
  8
Ebene_1
 62
7
100
AcDbLine
 10
28.777012
 20
14.206900
 30
0.0
 11
28.777012
 21
14.457330
 31
0.0
  0
LINE
  5
172
100
AcDbEntity
  8
Ebene_1
 62
7
100
AcDbLine
 10
28.777012
 20
14.457330
 30
0.0
 11
29.102545
 21
14.457330
 31
0.0
  0
LINE
  5
173
100
AcDbEntity
  8
Ebene_1
 62
7
100
AcDbLine
 10
29.102545
 20
14.457330
 30
0.0
 11
29.102545
 21
14.206900
 31
0.0
  0
LINE
  5
174
100
AcDbEntity
  8
Ebene_1
 62
7
100
AcDbLine
 10
29.102545
 20
14.206900
 30
0.0
 11
29.489638
 21
14.206900
 31
0.0
  0
LINE
  5
175
100
AcDbEntity
  8
Ebene_1
 62
7
100
AcDbLine
 10
29.489638
 20
14.206900
 30
0.0
 11
29.489638
 21
17.558580
 31
0.0
  0
LINE
  5
176
100
AcDbEntity
  8
Ebene_1
 62
7
100
AcDbLine
 10
29.489638
 20
17.558580
 30
0.0
 11
29.146238
 21
17.558580
 31
0.0
  0
LINE
  5
177
100
AcDbEntity
  8
Ebene_1
 62
7
100
AcDbLine
 10
29.146238
 20
17.558580
 30
0.0
 11
29.146238
 21
20.240466
 31
0.0
  0
LINE
  5
178
100
AcDbEntity
  8
Ebene_1
 62
7
100
AcDbLine
 10
29.146238
 20
20.277305
 30
0.0
 11
28.645416
 21
20.277305
 31
0.0
  0
LINE
  5
179
100
AcDbEntity
  8
Ebene_1
 62
7
100
AcDbLine
 10
27.425774
 20
8.892775
 30
0.0
 11
27.678697
 21
8.892775
 31
0.0
  0
SPLINE
  5
17a
100
AcDbEntity
  8
Ebene_1
 62
7
100
AcDbSpline
 70
8
 71
3
 72
8
 73
4
 74
0
 40
0
 40
0
 40
0
 40
0
 40
1
 40
1
 40
1
 40
1
 10
27.678698
 20
8.892775
 30
0.0
 10
27.789330
 20
8.892775
 30
0.0
 10
27.879029
 20
8.803074
 30
0.0
 10
27.879029
 20
8.692437
 30
0.0
  0
LINE
  5
17b
100
AcDbEntity
  8
Ebene_1
 62
7
100
AcDbLine
 10
27.879029
 20
8.692437
 30
0.0
 11
27.879029
 21
8.492099
 31
0.0
  0
SPLINE
  5
17c
100
AcDbEntity
  8
Ebene_1
 62
7
100
AcDbSpline
 70
8
 71
3
 72
8
 73
4
 74
0
 40
0
 40
0
 40
0
 40
0
 40
1
 40
1
 40
1
 40
1
 10
27.879029
 20
8.492099
 30
0.0
 10
27.879029
 20
8.381453
 30
0.0
 10
27.789330
 20
8.291760
 30
0.0
 10
27.678698
 20
8.291760
 30
0.0
  0
LINE
  5
17d
100
AcDbEntity
  8
Ebene_1
 62
7
100
AcDbLine
 10
27.678698
 20
8.291760
 30
0.0
 11
27.425774
 21
8.291760
 31
0.0
  0
SPLINE
  5
17e
100
AcDbEntity
  8
Ebene_1
 62
7
100
AcDbSpline
 70
8
 71
3
 72
8
 73
4
 74
0
 40
0
 40
0
 40
0
 40
0
 40
1
 40
1
 40
1
 40
1
 10
27.425774
 20
8.291760
 30
0.0
 10
27.315141
 20
8.291760
 30
0.0
 10
27.225464
 20
8.381453
 30
0.0
 10
27.225464
 20
8.492099
 30
0.0
  0
LINE
  5
17f
100
AcDbEntity
  8
Ebene_1
 62
7
100
AcDbLine
 10
27.225464
 20
8.492099
 30
0.0
 11
27.225464
 21
8.692437
 31
0.0
  0
SPLINE
  5
180
100
AcDbEntity
  8
Ebene_1
 62
7
100
AcDbSpline
 70
8
 71
3
 72
8
 73
4
 74
0
 40
0
 40
0
 40
0
 40
0
 40
1
 40
1
 40
1
 40
1
 10
27.225464
 20
8.692437
 30
0.0
 10
27.225464
 20
8.803074
 30
0.0
 10
27.315141
 20
8.892775
 30
0.0
 10
27.425774
 20
8.892775
 30
0.0
  0
LINE
  5
181
100
AcDbEntity
  8
Ebene_1
 62
7
100
AcDbLine
 10
27.425774
 20
8.892775
 30
0.0
 11
27.425774
 21
8.892775
 31
0.0
  0
LINE
  5
182
100
AcDbEntity
  8
Ebene_1
 62
7
100
AcDbLine
 10
27.425774
 20
8.892775
 30
0.0
 11
27.425774
 21
8.892775
 31
0.0
  0
SPLINE
  5
183
100
AcDbEntity
  8
Ebene_1
 62
7
100
AcDbSpline
 70
8
 71
3
 72
8
 73
4
 74
0
 40
0
 40
0
 40
0
 40
0
 40
1
 40
1
 40
1
 40
1
 10
27.425774
 20
18.241392
 30
0.0
 10
27.315141
 20
18.241392
 30
0.0
 10
27.225464
 20
18.331096
 30
0.0
 10
27.225464
 20
18.441731
 30
0.0
  0
LINE
  5
184
100
AcDbEntity
  8
Ebene_1
 62
7
100
AcDbLine
 10
27.225464
 20
18.441731
 30
0.0
 11
27.225464
 21
18.642069
 31
0.0
  0
SPLINE
  5
185
100
AcDbEntity
  8
Ebene_1
 62
7
100
AcDbSpline
 70
8
 71
3
 72
8
 73
4
 74
0
 40
0
 40
0
 40
0
 40
0
 40
1
 40
1
 40
1
 40
1
 10
27.225464
 20
18.642069
 30
0.0
 10
27.225464
 20
18.752714
 30
0.0
 10
27.315141
 20
18.842397
 30
0.0
 10
27.425774
 20
18.842397
 30
0.0
  0
LINE
  5
186
100
AcDbEntity
  8
Ebene_1
 62
7
100
AcDbLine
 10
27.425774
 20
18.842397
 30
0.0
 11
27.678697
 21
18.842397
 31
0.0
  0
SPLINE
  5
187
100
AcDbEntity
  8
Ebene_1
 62
7
100
AcDbSpline
 70
8
 71
3
 72
8
 73
4
 74
0
 40
0
 40
0
 40
0
 40
0
 40
1
 40
1
 40
1
 40
1
 10
27.678698
 20
18.842397
 30
0.0
 10
27.789349
 20
18.842397
 30
0.0
 10
27.879029
 20
18.752714
 30
0.0
 10
27.879029
 20
18.642069
 30
0.0
  0
LINE
  5
188
100
AcDbEntity
  8
Ebene_1
 62
7
100
AcDbLine
 10
27.879029
 20
18.642069
 30
0.0
 11
27.879029
 21
18.441731
 31
0.0
  0
SPLINE
  5
189
100
AcDbEntity
  8
Ebene_1
 62
7
100
AcDbSpline
 70
8
 71
3
 72
8
 73
4
 74
0
 40
0
 40
0
 40
0
 40
0
 40
1
 40
1
 40
1
 40
1
 10
27.879029
 20
18.441731
 30
0.0
 10
27.879029
 20
18.331096
 30
0.0
 10
27.789349
 20
18.241392
 30
0.0
 10
27.678698
 20
18.241392
 30
0.0
  0
LINE
  5
18a
100
AcDbEntity
  8
Ebene_1
 62
7
100
AcDbLine
 10
27.678698
 20
18.241392
 30
0.0
 11
27.425774
 21
18.241392
 31
0.0
  0
SPLINE
  5
18b
100
AcDbEntity
  8
Ebene_1
 62
7
100
AcDbSpline
 70
8
 71
3
 72
8
 73
4
 74
0
 40
0
 40
0
 40
0
 40
0
 40
1
 40
1
 40
1
 40
1
 10
13.020200
 20
12.715726
 30
0.0
 10
12.998021
 20
12.715726
 30
0.0
 10
12.977508
 20
12.703905
 30
0.0
 10
12.966415
 20
12.684679
 30
0.0
  0
SPLINE
  5
18c
100
AcDbEntity
  8
Ebene_1
 62
7
100
AcDbSpline
 70
8
 71
3
 72
8
 73
4
 74
0
 40
0
 40
0
 40
0
 40
0
 40
1
 40
1
 40
1
 40
1
 10
12.966415
 20
12.684679
 30
0.0
 10
12.955320
 20
12.665472
 30
0.0
 10
12.955320
 20
12.641776
 30
0.0
 10
12.966415
 20
12.622569
 30
0.0
  0
SPLINE
  5
18d
100
AcDbEntity
  8
Ebene_1
 62
7
100
AcDbSpline
 70
8
 71
3
 72
8
 73
4
 74
0
 40
0
 40
0
 40
0
 40
0
 40
1
 40
1
 40
1
 40
1
 10
12.966415
 20
12.622569
 30
0.0
 10
12.977508
 20
12.603362
 30
0.0
 10
12.998021
 20
12.591525
 30
0.0
 10
13.020200
 20
12.591525
 30
0.0
  0
SPLINE
  5
18e
100
AcDbEntity
  8
Ebene_1
 62
7
100
AcDbSpline
 70
8
 71
3
 72
8
 73
4
 74
0
 40
0
 40
0
 40
0
 40
0
 40
1
 40
1
 40
1
 40
1
 10
13.020200
 20
12.591525
 30
0.0
 10
13.042389
 20
12.591525
 30
0.0
 10
13.062900
 20
12.603373
 30
0.0
 10
13.073985
 20
12.622569
 30
0.0
  0
SPLINE
  5
18f
100
AcDbEntity
  8
Ebene_1
 62
7
100
AcDbSpline
 70
8
 71
3
 72
8
 73
4
 74
0
 40
0
 40
0
 40
0
 40
0
 40
1
 40
1
 40
1
 40
1
 10
13.073985
 20
12.622569
 30
0.0
 10
13.085079
 20
12.641776
 30
0.0
 10
13.085079
 20
12.665462
 30
0.0
 10
13.073985
 20
12.684679
 30
0.0
  0
SPLINE
  5
190
100
AcDbEntity
  8
Ebene_1
 62
7
100
AcDbSpline
 70
8
 71
3
 72
8
 73
4
 74
0
 40
0
 40
0
 40
0
 40
0
 40
1
 40
1
 40
1
 40
1
 10
13.073985
 20
12.684679
 30
0.0
 10
13.062900
 20
12.703886
 30
0.0
 10
13.042389
 20
12.715726
 30
0.0
 10
13.020200
 20
12.715726
 30
0.0
  0
LINE
  5
191
100
AcDbEntity
  8
Ebene_1
 62
7
100
AcDbLine
 10
13.020200
 20
12.715726
 30
0.0
 11
13.020200
 21
12.715726
 31
0.0
  0
LINE
  5
192
100
AcDbEntity
  8
Ebene_1
 62
7
100
AcDbLine
 10
13.020200
 20
12.715726
 30
0.0
 11
13.020200
 21
12.715726
 31
0.0
  0
SPLINE
  5
193
100
AcDbEntity
  8
Ebene_1
 62
7
100
AcDbSpline
 70
8
 71
3
 72
8
 73
4
 74
0
 40
0
 40
0
 40
0
 40
0
 40
1
 40
1
 40
1
 40
1
 10
13.020200
 20
14.542645
 30
0.0
 10
12.998021
 20
14.542645
 30
0.0
 10
12.977508
 20
14.530797
 30
0.0
 10
12.966415
 20
14.511590
 30
0.0
  0
SPLINE
  5
194
100
AcDbEntity
  8
Ebene_1
 62
7
100
AcDbSpline
 70
8
 71
3
 72
8
 73
4
 74
0
 40
0
 40
0
 40
0
 40
0
 40
1
 40
1
 40
1
 40
1
 10
12.966415
 20
14.511590
 30
0.0
 10
12.955320
 20
14.492357
 30
0.0
 10
12.955320
 20
14.468695
 30
0.0
 10
12.966415
 20
14.449488
 30
0.0
  0
SPLINE
  5
195
100
AcDbEntity
  8
Ebene_1
 62
7
100
AcDbSpline
 70
8
 71
3
 72
8
 73
4
 74
0
 40
0
 40
0
 40
0
 40
0
 40
1
 40
1
 40
1
 40
1
 10
12.966415
 20
14.449488
 30
0.0
 10
12.977508
 20
14.430281
 30
0.0
 10
12.998021
 20
14.418433
 30
0.0
 10
13.020200
 20
14.418433
 30
0.0
  0
SPLINE
  5
196
100
AcDbEntity
  8
Ebene_1
 62
7
100
AcDbSpline
 70
8
 71
3
 72
8
 73
4
 74
0
 40
0
 40
0
 40
0
 40
0
 40
1
 40
1
 40
1
 40
1
 10
13.020200
 20
14.418433
 30
0.0
 10
13.042389
 20
14.418433
 30
0.0
 10
13.062900
 20
14.430281
 30
0.0
 10
13.073985
 20
14.449488
 30
0.0
  0
SPLINE
  5
197
100
AcDbEntity
  8
Ebene_1
 62
7
100
AcDbSpline
 70
8
 71
3
 72
8
 73
4
 74
0
 40
0
 40
0
 40
0
 40
0
 40
1
 40
1
 40
1
 40
1
 10
13.073985
 20
14.449488
 30
0.0
 10
13.085079
 20
14.468695
 30
0.0
 10
13.085079
 20
14.492370
 30
0.0
 10
13.073985
 20
14.511590
 30
0.0
  0
SPLINE
  5
198
100
AcDbEntity
  8
Ebene_1
 62
7
100
AcDbSpline
 70
8
 71
3
 72
8
 73
4
 74
0
 40
0
 40
0
 40
0
 40
0
 40
1
 40
1
 40
1
 40
1
 10
13.073985
 20
14.511590
 30
0.0
 10
13.062900
 20
14.530797
 30
0.0
 10
13.042389
 20
14.542645
 30
0.0
 10
13.020200
 20
14.542645
 30
0.0
  0
LINE
  5
199
100
AcDbEntity
  8
Ebene_1
 62
7
100
AcDbLine
 10
13.020200
 20
14.542645
 30
0.0
 11
13.020200
 21
14.542645
 31
0.0
  0
LINE
  5
19a
100
AcDbEntity
  8
Ebene_1
 62
7
100
AcDbLine
 10
13.020200
 20
14.542645
 30
0.0
 11
13.020200
 21
14.542645
 31
0.0
  0
SPLINE
  5
19b
100
AcDbEntity
  8
Ebene_1
 62
7
100
AcDbSpline
 70
8
 71
3
 72
8
 73
4
 74
0
 40
0
 40
0
 40
0
 40
0
 40
1
 40
1
 40
1
 40
1
 10
13.547560
 20
13.629181
 30
0.0
 10
13.525341
 20
13.629181
 30
0.0
 10
13.504788
 20
13.617412
 30
0.0
 10
13.493664
 20
13.598184
 30
0.0
  0
SPLINE
  5
19c
100
AcDbEntity
  8
Ebene_1
 62
7
100
AcDbSpline
 70
8
 71
3
 72
8
 73
4
 74
0
 40
0
 40
0
 40
0
 40
0
 40
1
 40
1
 40
1
 40
1
 10
13.493664
 20
13.598184
 30
0.0
 10
13.482529
 20
13.578924
 30
0.0
 10
13.482529
 20
13.555230
 30
0.0
 10
13.493664
 20
13.535984
 30
0.0
  0
SPLINE
  5
19d
100
AcDbEntity
  8
Ebene_1
 62
7
100
AcDbSpline
 70
8
 71
3
 72
8
 73
4
 74
0
 40
0
 40
0
 40
0
 40
0
 40
1
 40
1
 40
1
 40
1
 10
13.493664
 20
13.535984
 30
0.0
 10
13.504788
 20
13.516750
 30
0.0
 10
13.525341
 20
13.504918
 30
0.0
 10
13.547560
 20
13.504968
 30
0.0
  0
SPLINE
  5
19e
100
AcDbEntity
  8
Ebene_1
 62
7
100
AcDbSpline
 70
8
 71
3
 72
8
 73
4
 74
0
 40
0
 40
0
 40
0
 40
0
 40
1
 40
1
 40
1
 40
1
 10
13.547560
 20
13.504968
 30
0.0
 10
13.569798
 20
13.504968
 30
0.0
 10
13.590351
 20
13.516763
 30
0.0
 10
13.601475
 20
13.535984
 30
0.0
  0
SPLINE
  5
19f
100
AcDbEntity
  8
Ebene_1
 62
7
100
AcDbSpline
 70
8
 71
3
 72
8
 73
4
 74
0
 40
0
 40
0
 40
0
 40
0
 40
1
 40
1
 40
1
 40
1
 10
13.601475
 20
13.535984
 30
0.0
 10
13.612600
 20
13.555244
 30
0.0
 10
13.612600
 20
13.578937
 30
0.0
 10
13.601475
 20
13.598184
 30
0.0
  0
SPLINE
  5
1a0
100
AcDbEntity
  8
Ebene_1
 62
7
100
AcDbSpline
 70
8
 71
3
 72
8
 73
4
 74
0
 40
0
 40
0
 40
0
 40
0
 40
1
 40
1
 40
1
 40
1
 10
13.601475
 20
13.598184
 30
0.0
 10
13.590351
 20
13.617417
 30
0.0
 10
13.569798
 20
13.629250
 30
0.0
 10
13.547560
 20
13.629181
 30
0.0
  0
LINE
  5
1a1
100
AcDbEntity
  8
Ebene_1
 62
7
100
AcDbLine
 10
13.547560
 20
13.629181
 30
0.0
 11
13.547560
 21
13.629181
 31
0.0
  0
LINE
  5
1a2
100
AcDbEntity
  8
Ebene_1
 62
7
100
AcDbLine
 10
13.547560
 20
13.629181
 30
0.0
 11
13.547560
 21
13.629181
 31
0.0
  0
SPLINE
  5
1a3
100
AcDbEntity
  8
Ebene_1
 62
7
100
AcDbSpline
 70
8
 71
3
 72
8
 73
4
 74
0
 40
0
 40
0
 40
0
 40
0
 40
1
 40
1
 40
1
 40
1
 10
11.965470
 20
12.715726
 30
0.0
 10
11.943281
 20
12.715726
 30
0.0
 10
11.922779
 20
12.703905
 30
0.0
 10
11.911684
 20
12.684679
 30
0.0
  0
SPLINE
  5
1a4
100
AcDbEntity
  8
Ebene_1
 62
7
100
AcDbSpline
 70
8
 71
3
 72
8
 73
4
 74
0
 40
0
 40
0
 40
0
 40
0
 40
1
 40
1
 40
1
 40
1
 10
11.911684
 20
12.684679
 30
0.0
 10
11.900590
 20
12.665472
 30
0.0
 10
11.900590
 20
12.641776
 30
0.0
 10
11.911684
 20
12.622569
 30
0.0
  0
SPLINE
  5
1a5
100
AcDbEntity
  8
Ebene_1
 62
7
100
AcDbSpline
 70
8
 71
3
 72
8
 73
4
 74
0
 40
0
 40
0
 40
0
 40
0
 40
1
 40
1
 40
1
 40
1
 10
11.911684
 20
12.622569
 30
0.0
 10
11.922779
 20
12.603362
 30
0.0
 10
11.943281
 20
12.591525
 30
0.0
 10
11.965470
 20
12.591525
 30
0.0
  0
SPLINE
  5
1a6
100
AcDbEntity
  8
Ebene_1
 62
7
100
AcDbSpline
 70
8
 71
3
 72
8
 73
4
 74
0
 40
0
 40
0
 40
0
 40
0
 40
1
 40
1
 40
1
 40
1
 10
11.965470
 20
12.591525
 30
0.0
 10
11.987648
 20
12.591525
 30
0.0
 10
12.008150
 20
12.603373
 30
0.0
 10
12.019245
 20
12.622569
 30
0.0
  0
SPLINE
  5
1a7
100
AcDbEntity
  8
Ebene_1
 62
7
100
AcDbSpline
 70
8
 71
3
 72
8
 73
4
 74
0
 40
0
 40
0
 40
0
 40
0
 40
1
 40
1
 40
1
 40
1
 10
12.019245
 20
12.622569
 30
0.0
 10
12.030349
 20
12.641776
 30
0.0
 10
12.030349
 20
12.665462
 30
0.0
 10
12.019245
 20
12.684679
 30
0.0
  0
SPLINE
  5
1a8
100
AcDbEntity
  8
Ebene_1
 62
7
100
AcDbSpline
 70
8
 71
3
 72
8
 73
4
 74
0
 40
0
 40
0
 40
0
 40
0
 40
1
 40
1
 40
1
 40
1
 10
12.019245
 20
12.684679
 30
0.0
 10
12.008150
 20
12.703886
 30
0.0
 10
11.987648
 20
12.715726
 30
0.0
 10
11.965470
 20
12.715726
 30
0.0
  0
LINE
  5
1a9
100
AcDbEntity
  8
Ebene_1
 62
7
100
AcDbLine
 10
11.965470
 20
12.715726
 30
0.0
 11
11.965470
 21
12.715726
 31
0.0
  0
LINE
  5
1aa
100
AcDbEntity
  8
Ebene_1
 62
7
100
AcDbLine
 10
11.965470
 20
12.715726
 30
0.0
 11
11.965470
 21
12.715726
 31
0.0
  0
SPLINE
  5
1ab
100
AcDbEntity
  8
Ebene_1
 62
7
100
AcDbSpline
 70
8
 71
3
 72
8
 73
4
 74
0
 40
0
 40
0
 40
0
 40
0
 40
1
 40
1
 40
1
 40
1
 10
11.965470
 20
14.542645
 30
0.0
 10
11.943281
 20
14.542645
 30
0.0
 10
11.922779
 20
14.530797
 30
0.0
 10
11.911684
 20
14.511590
 30
0.0
  0
SPLINE
  5
1ac
100
AcDbEntity
  8
Ebene_1
 62
7
100
AcDbSpline
 70
8
 71
3
 72
8
 73
4
 74
0
 40
0
 40
0
 40
0
 40
0
 40
1
 40
1
 40
1
 40
1
 10
11.911684
 20
14.511590
 30
0.0
 10
11.900590
 20
14.492357
 30
0.0
 10
11.900590
 20
14.468695
 30
0.0
 10
11.911684
 20
14.449488
 30
0.0
  0
SPLINE
  5
1ad
100
AcDbEntity
  8
Ebene_1
 62
7
100
AcDbSpline
 70
8
 71
3
 72
8
 73
4
 74
0
 40
0
 40
0
 40
0
 40
0
 40
1
 40
1
 40
1
 40
1
 10
11.911684
 20
14.449488
 30
0.0
 10
11.922779
 20
14.430281
 30
0.0
 10
11.943281
 20
14.418433
 30
0.0
 10
11.965470
 20
14.418433
 30
0.0
  0
SPLINE
  5
1ae
100
AcDbEntity
  8
Ebene_1
 62
7
100
AcDbSpline
 70
8
 71
3
 72
8
 73
4
 74
0
 40
0
 40
0
 40
0
 40
0
 40
1
 40
1
 40
1
 40
1
 10
11.965470
 20
14.418433
 30
0.0
 10
11.987648
 20
14.418433
 30
0.0
 10
12.008150
 20
14.430281
 30
0.0
 10
12.019245
 20
14.449488
 30
0.0
  0
SPLINE
  5
1af
100
AcDbEntity
  8
Ebene_1
 62
7
100
AcDbSpline
 70
8
 71
3
 72
8
 73
4
 74
0
 40
0
 40
0
 40
0
 40
0
 40
1
 40
1
 40
1
 40
1
 10
12.019245
 20
14.449488
 30
0.0
 10
12.030349
 20
14.468695
 30
0.0
 10
12.030349
 20
14.492370
 30
0.0
 10
12.019245
 20
14.511590
 30
0.0
  0
SPLINE
  5
1b0
100
AcDbEntity
  8
Ebene_1
 62
7
100
AcDbSpline
 70
8
 71
3
 72
8
 73
4
 74
0
 40
0
 40
0
 40
0
 40
0
 40
1
 40
1
 40
1
 40
1
 10
12.019245
 20
14.511590
 30
0.0
 10
12.008150
 20
14.530797
 30
0.0
 10
11.987648
 20
14.542645
 30
0.0
 10
11.965470
 20
14.542645
 30
0.0
  0
LINE
  5
1b1
100
AcDbEntity
  8
Ebene_1
 62
7
100
AcDbLine
 10
11.965470
 20
14.542645
 30
0.0
 11
11.965470
 21
14.542645
 31
0.0
  0
LINE
  5
1b2
100
AcDbEntity
  8
Ebene_1
 62
7
100
AcDbLine
 10
11.965470
 20
14.542645
 30
0.0
 11
11.965470
 21
14.542645
 31
0.0
  0
SPLINE
  5
1b3
100
AcDbEntity
  8
Ebene_1
 62
7
100
AcDbSpline
 70
8
 71
3
 72
8
 73
4
 74
0
 40
0
 40
0
 40
0
 40
0
 40
1
 40
1
 40
1
 40
1
 10
11.438090
 20
13.629181
 30
0.0
 10
11.415881
 20
13.629181
 30
0.0
 10
11.395318
 20
13.617412
 30
0.0
 10
11.384194
 20
13.598184
 30
0.0
  0
SPLINE
  5
1b4
100
AcDbEntity
  8
Ebene_1
 62
7
100
AcDbSpline
 70
8
 71
3
 72
8
 73
4
 74
0
 40
0
 40
0
 40
0
 40
0
 40
1
 40
1
 40
1
 40
1
 10
11.384194
 20
13.598184
 30
0.0
 10
11.373070
 20
13.578924
 30
0.0
 10
11.373070
 20
13.555230
 30
0.0
 10
11.384194
 20
13.535984
 30
0.0
  0
SPLINE
  5
1b5
100
AcDbEntity
  8
Ebene_1
 62
7
100
AcDbSpline
 70
8
 71
3
 72
8
 73
4
 74
0
 40
0
 40
0
 40
0
 40
0
 40
1
 40
1
 40
1
 40
1
 10
11.384194
 20
13.535984
 30
0.0
 10
11.395318
 20
13.516750
 30
0.0
 10
11.415881
 20
13.504918
 30
0.0
 10
11.438090
 20
13.504968
 30
0.0
  0
SPLINE
  5
1b6
100
AcDbEntity
  8
Ebene_1
 62
7
100
AcDbSpline
 70
8
 71
3
 72
8
 73
4
 74
0
 40
0
 40
0
 40
0
 40
0
 40
1
 40
1
 40
1
 40
1
 10
11.438090
 20
13.504968
 30
0.0
 10
11.460329
 20
13.504968
 30
0.0
 10
11.480881
 20
13.516763
 30
0.0
 10
11.492005
 20
13.535984
 30
0.0
  0
SPLINE
  5
1b7
100
AcDbEntity
  8
Ebene_1
 62
7
100
AcDbSpline
 70
8
 71
3
 72
8
 73
4
 74
0
 40
0
 40
0
 40
0
 40
0
 40
1
 40
1
 40
1
 40
1
 10
11.492005
 20
13.535984
 30
0.0
 10
11.503130
 20
13.555244
 30
0.0
 10
11.503130
 20
13.578937
 30
0.0
 10
11.492005
 20
13.598184
 30
0.0
  0
SPLINE
  5
1b8
100
AcDbEntity
  8
Ebene_1
 62
7
100
AcDbSpline
 70
8
 71
3
 72
8
 73
4
 74
0
 40
0
 40
0
 40
0
 40
0
 40
1
 40
1
 40
1
 40
1
 10
11.492005
 20
13.598184
 30
0.0
 10
11.480881
 20
13.617417
 30
0.0
 10
11.460329
 20
13.629250
 30
0.0
 10
11.438090
 20
13.629181
 30
0.0
  0
LINE
  5
1b9
100
AcDbEntity
  8
Ebene_1
 62
7
100
AcDbLine
 10
11.438090
 20
13.629181
 30
0.0
 11
11.438090
 21
13.629181
 31
0.0
  0
LINE
  5
1ba
100
AcDbEntity
  8
Ebene_1
 62
7
100
AcDbLine
 10
11.438090
 20
13.629181
 30
0.0
 11
11.438090
 21
13.629181
 31
0.0
  0
SPLINE
  5
1bb
100
AcDbEntity
  8
Ebene_1
 62
7
100
AcDbSpline
 70
8
 71
3
 72
8
 73
4
 74
0
 40
0
 40
0
 40
0
 40
0
 40
1
 40
1
 40
1
 40
1
 10
12.492829
 20
14.015831
 30
0.0
 10
12.332528
 20
14.015831
 30
0.0
 10
12.184376
 20
13.930314
 30
0.0
 10
12.104215
 20
13.791453
 30
0.0
  0
SPLINE
  5
1bc
100
AcDbEntity
  8
Ebene_1
 62
7
100
AcDbSpline
 70
8
 71
3
 72
8
 73
4
 74
0
 40
0
 40
0
 40
0
 40
0
 40
1
 40
1
 40
1
 40
1
 10
12.104215
 20
13.791453
 30
0.0
 10
12.024054
 20
13.652603
 30
0.0
 10
12.024054
 20
13.481564
 30
0.0
 10
12.104215
 20
13.342704
 30
0.0
  0
SPLINE
  5
1bd
100
AcDbEntity
  8
Ebene_1
 62
7
100
AcDbSpline
 70
8
 71
3
 72
8
 73
4
 74
0
 40
0
 40
0
 40
0
 40
0
 40
1
 40
1
 40
1
 40
1
 10
12.104215
 20
13.342704
 30
0.0
 10
12.184376
 20
13.203854
 30
0.0
 10
12.332528
 20
13.118318
 30
0.0
 10
12.492829
 20
13.118318
 30
0.0
  0
SPLINE
  5
1be
100
AcDbEntity
  8
Ebene_1
 62
7
100
AcDbSpline
 70
8
 71
3
 72
8
 73
4
 74
0
 40
0
 40
0
 40
0
 40
0
 40
1
 40
1
 40
1
 40
1
 10
12.492829
 20
13.118318
 30
0.0
 10
12.653161
 20
13.118318
 30
0.0
 10
12.801294
 20
13.203854
 30
0.0
 10
12.881454
 20
13.342704
 30
0.0
  0
SPLINE
  5
1bf
100
AcDbEntity
  8
Ebene_1
 62
7
100
AcDbSpline
 70
8
 71
3
 72
8
 73
4
 74
0
 40
0
 40
0
 40
0
 40
0
 40
1
 40
1
 40
1
 40
1
 10
12.881454
 20
13.342704
 30
0.0
 10
12.961615
 20
13.481564
 30
0.0
 10
12.961615
 20
13.652603
 30
0.0
 10
12.881454
 20
13.791453
 30
0.0
  0
SPLINE
  5
1c0
100
AcDbEntity
  8
Ebene_1
 62
7
100
AcDbSpline
 70
8
 71
3
 72
8
 73
4
 74
0
 40
0
 40
0
 40
0
 40
0
 40
1
 40
1
 40
1
 40
1
 10
12.881454
 20
13.791453
 30
0.0
 10
12.801294
 20
13.930314
 30
0.0
 10
12.653161
 20
14.015831
 30
0.0
 10
12.492829
 20
14.015831
 30
0.0
  0
LINE
  5
1c1
100
AcDbEntity
  8
Ebene_1
 62
7
100
AcDbLine
 10
12.492829
 20
14.015831
 30
0.0
 11
12.492829
 21
14.015831
 31
0.0
  0
LINE
  5
1c2
100
AcDbEntity
  8
Ebene_1
 62
7
100
AcDbLine
 10
12.492829
 20
14.015831
 30
0.0
 11
12.492829
 21
14.015831
 31
0.0
  0
LINE
  5
1c3
100
AcDbEntity
  8
Ebene_1
 62
7
100
AcDbLine
 10
7.376148
 20
6.856847
 30
0.0
 11
7.376148
 21
6.538832
 31
0.0
  0
LINE
  5
1c4
100
AcDbEntity
  8
Ebene_1
 62
7
100
AcDbLine
 10
7.376148
 20
6.538832
 30
0.0
 11
8.791119
 21
6.538832
 31
0.0
  0
LINE
  5
1c5
100
AcDbEntity
  8
Ebene_1
 62
7
100
AcDbLine
 10
8.791119
 20
6.538832
 30
0.0
 11
8.791119
 21
7.121917
 31
0.0
  0
LINE
  5
1c6
100
AcDbEntity
  8
Ebene_1
 62
7
100
AcDbLine
 10
8.791119
 20
7.121917
 30
0.0
 11
8.540707
 21
7.121917
 31
0.0
  0
LINE
  5
1c7
100
AcDbEntity
  8
Ebene_1
 62
7
100
AcDbLine
 10
8.540707
 20
7.121917
 30
0.0
 11
8.540707
 21
7.447467
 31
0.0
  0
LINE
  5
1c8
100
AcDbEntity
  8
Ebene_1
 62
7
100
AcDbLine
 10
8.540707
 20
7.447467
 30
0.0
 11
8.791119
 21
7.447467
 31
0.0
  0
LINE
  5
1c9
100
AcDbEntity
  8
Ebene_1
 62
7
100
AcDbLine
 10
8.791119
 20
7.447467
 30
0.0
 11
8.791119
 21
7.647805
 31
0.0
  0
LINE
  5
1ca
100
AcDbEntity
  8
Ebene_1
 62
7
100
AcDbLine
 10
8.791119
 20
7.647805
 30
0.0
 11
9.109142
 21
7.647805
 31
0.0
  0
LINE
  5
1cb
100
AcDbEntity
  8
Ebene_1
 62
7
100
AcDbLine
 10
9.109142
 20
7.647805
 30
0.0
 11
9.109142
 21
7.447467
 31
0.0
  0
LINE
  5
1cc
100
AcDbEntity
  8
Ebene_1
 62
7
100
AcDbLine
 10
9.109142
 20
7.447467
 30
0.0
 11
9.359554
 21
7.447467
 31
0.0
  0
LINE
  5
1cd
100
AcDbEntity
  8
Ebene_1
 62
7
100
AcDbLine
 10
9.359554
 20
7.447467
 30
0.0
 11
9.359554
 21
7.121917
 31
0.0
  0
LINE
  5
1ce
100
AcDbEntity
  8
Ebene_1
 62
7
100
AcDbLine
 10
9.359554
 20
7.121917
 30
0.0
 11
9.109142
 21
7.121917
 31
0.0
  0
LINE
  5
1cf
100
AcDbEntity
  8
Ebene_1
 62
7
100
AcDbLine
 10
9.109142
 20
7.121917
 30
0.0
 11
9.109142
 21
6.538832
 31
0.0
  0
LINE
  5
1d0
100
AcDbEntity
  8
Ebene_1
 62
7
100
AcDbLine
 10
9.109142
 20
6.538832
 30
0.0
 11
10.435609
 21
6.538832
 31
0.0
  0
LINE
  5
1d1
100
AcDbEntity
  8
Ebene_1
 62
7
100
AcDbLine
 10
10.435609
 20
6.538832
 30
0.0
 11
10.435609
 21
6.856847
 31
0.0
  0
LINE
  5
1d2
100
AcDbEntity
  8
Ebene_1
 62
7
100
AcDbLine
 10
10.435609
 20
6.856847
 30
0.0
 11
10.627376
 21
6.856847
 31
0.0
  0
LINE
  5
1d3
100
AcDbEntity
  8
Ebene_1
 62
7
100
AcDbLine
 10
10.678832
 20
6.856847
 30
0.0
 11
10.936432
 21
6.856847
 31
0.0
  0
LINE
  5
1d4
100
AcDbEntity
  8
Ebene_1
 62
7
100
AcDbLine
 10
10.936432
 20
6.856847
 30
0.0
 11
12.793483
 21
9.575569
 31
0.0
  0
LINE
  5
1d5
100
AcDbEntity
  8
Ebene_1
 62
7
100
AcDbLine
 10
12.793483
 20
9.575569
 30
0.0
 11
14.391697
 21
12.200999
 31
0.0
  0
LINE
  5
1d6
100
AcDbEntity
  8
Ebene_1
 62
7
100
AcDbLine
 10
14.391697
 20
12.200999
 30
0.0
 11
14.391697
 21
14.933168
 31
0.0
  0
LINE
  5
1d7
100
AcDbEntity
  8
Ebene_1
 62
7
100
AcDbLine
 10
14.391697
 20
14.933168
 30
0.0
 11
12.793483
 21
17.558580
 31
0.0
  0
LINE
  5
1d8
100
AcDbEntity
  8
Ebene_1
 62
7
100
AcDbLine
 10
12.793483
 20
17.558580
 30
0.0
 11
10.936432
 21
20.277305
 31
0.0
  0
LINE
  5
1d9
100
AcDbEntity
  8
Ebene_1
 62
7
100
AcDbLine
 10
10.914846
 20
20.277305
 30
0.0
 11
10.435609
 21
20.277305
 31
0.0
  0
LINE
  5
1da
100
AcDbEntity
  8
Ebene_1
 62
7
100
AcDbLine
 10
10.435609
 20
20.277305
 30
0.0
 11
10.435609
 21
20.595339
 31
0.0
  0
LINE
  5
1db
100
AcDbEntity
  8
Ebene_1
 62
7
100
AcDbLine
 10
10.435609
 20
20.595339
 30
0.0
 11
9.109142
 21
20.595339
 31
0.0
  0
LINE
  5
1dc
100
AcDbEntity
  8
Ebene_1
 62
7
100
AcDbLine
 10
9.109142
 20
20.595339
 30
0.0
 11
9.109142
 21
20.021572
 31
0.0
  0
LINE
  5
1dd
100
AcDbEntity
  8
Ebene_1
 62
7
100
AcDbLine
 10
9.109142
 20
20.021572
 30
0.0
 11
9.359554
 21
20.021572
 31
0.0
  0
LINE
  5
1de
100
AcDbEntity
  8
Ebene_1
 62
7
100
AcDbLine
 10
9.359554
 20
20.021572
 30
0.0
 11
9.359554
 21
19.696030
 31
0.0
  0
LINE
  5
1df
100
AcDbEntity
  8
Ebene_1
 62
7
100
AcDbLine
 10
9.359554
 20
19.696030
 30
0.0
 11
9.109142
 21
19.696030
 31
0.0
  0
LINE
  5
1e0
100
AcDbEntity
  8
Ebene_1
 62
7
100
AcDbLine
 10
9.109142
 20
19.696030
 30
0.0
 11
9.109142
 21
19.495692
 31
0.0
  0
LINE
  5
1e1
100
AcDbEntity
  8
Ebene_1
 62
7
100
AcDbLine
 10
9.109142
 20
19.495692
 30
0.0
 11
8.791119
 21
19.495692
 31
0.0
  0
LINE
  5
1e2
100
AcDbEntity
  8
Ebene_1
 62
7
100
AcDbLine
 10
8.791119
 20
19.495692
 30
0.0
 11
8.791119
 21
19.696030
 31
0.0
  0
LINE
  5
1e3
100
AcDbEntity
  8
Ebene_1
 62
7
100
AcDbLine
 10
8.791119
 20
19.696030
 30
0.0
 11
8.540707
 21
19.696030
 31
0.0
  0
LINE
  5
1e4
100
AcDbEntity
  8
Ebene_1
 62
7
100
AcDbLine
 10
8.540707
 20
19.696030
 30
0.0
 11
8.540707
 21
20.021572
 31
0.0
  0
LINE
  5
1e5
100
AcDbEntity
  8
Ebene_1
 62
7
100
AcDbLine
 10
8.540707
 20
20.021572
 30
0.0
 11
8.791119
 21
20.021572
 31
0.0
  0
LINE
  5
1e6
100
AcDbEntity
  8
Ebene_1
 62
7
100
AcDbLine
 10
8.791119
 20
20.021572
 30
0.0
 11
8.791119
 21
20.595339
 31
0.0
  0
LINE
  5
1e7
100
AcDbEntity
  8
Ebene_1
 62
7
100
AcDbLine
 10
8.791119
 20
20.595339
 30
0.0
 11
7.376148
 21
20.595339
 31
0.0
  0
LINE
  5
1e8
100
AcDbEntity
  8
Ebene_1
 62
7
100
AcDbLine
 10
7.376148
 20
20.595339
 30
0.0
 11
7.376148
 21
20.277305
 31
0.0
  0
LINE
  5
1e9
100
AcDbEntity
  8
Ebene_1
 62
7
100
AcDbLine
 10
7.376148
 20
20.277305
 30
0.0
 11
6.875324
 21
20.277305
 31
0.0
  0
LINE
  5
1ea
100
AcDbEntity
  8
Ebene_1
 62
7
100
AcDbLine
 10
6.875324
 20
20.247142
 30
0.0
 11
6.875324
 21
19.028690
 31
0.0
  0
LINE
  5
1eb
100
AcDbEntity
  8
Ebene_1
 62
7
100
AcDbLine
 10
6.875324
 20
18.922420
 30
0.0
 11
6.875324
 21
17.558580
 31
0.0
  0
LINE
  5
1ec
100
AcDbEntity
  8
Ebene_1
 62
7
100
AcDbLine
 10
6.875324
 20
17.558580
 30
0.0
 11
6.486629
 21
17.558580
 31
0.0
  0
LINE
  5
1ed
100
AcDbEntity
  8
Ebene_1
 62
7
100
AcDbLine
 10
6.486629
 20
17.558580
 30
0.0
 11
6.486629
 21
15.729461
 31
0.0
  0
LINE
  5
1ee
100
AcDbEntity
  8
Ebene_1
 62
7
100
AcDbLine
 10
6.451479
 20
15.729461
 30
0.0
 11
7.017071
 21
15.729461
 31
0.0
  0
LINE
  5
1ef
100
AcDbEntity
  8
Ebene_1
 62
7
100
AcDbLine
 10
7.017071
 20
15.729461
 30
0.0
 11
7.017071
 21
15.979881
 31
0.0
  0
LINE
  5
1f0
100
AcDbEntity
  8
Ebene_1
 62
7
100
AcDbLine
 10
7.017071
 20
15.979881
 30
0.0
 11
7.342594
 21
15.979881
 31
0.0
  0
LINE
  5
1f1
100
AcDbEntity
  8
Ebene_1
 62
7
100
AcDbLine
 10
7.342594
 20
15.979881
 30
0.0
 11
7.342594
 21
15.729461
 31
0.0
  0
LINE
  5
1f2
100
AcDbEntity
  8
Ebene_1
 62
7
100
AcDbLine
 10
7.342594
 20
15.729461
 30
0.0
 11
7.495692
 21
15.729461
 31
0.0
  0
LINE
  5
1f3
100
AcDbEntity
  8
Ebene_1
 62
7
100
AcDbLine
 10
7.495692
 20
15.729461
 30
0.0
 11
7.495692
 21
15.411438
 31
0.0
  0
LINE
  5
1f4
100
AcDbEntity
  8
Ebene_1
 62
7
100
AcDbLine
 10
7.495692
 20
15.411438
 30
0.0
 11
7.342594
 21
15.411438
 31
0.0
  0
LINE
  5
1f5
100
AcDbEntity
  8
Ebene_1
 62
7
100
AcDbLine
 10
7.342594
 20
15.411438
 30
0.0
 11
7.342594
 21
15.161018
 31
0.0
  0
LINE
  5
1f6
100
AcDbEntity
  8
Ebene_1
 62
7
100
AcDbLine
 10
7.342594
 20
15.161018
 30
0.0
 11
7.017071
 21
15.161018
 31
0.0
  0
LINE
  5
1f7
100
AcDbEntity
  8
Ebene_1
 62
7
100
AcDbLine
 10
7.017071
 20
15.161018
 30
0.0
 11
7.017071
 21
15.411438
 31
0.0
  0
LINE
  5
1f8
100
AcDbEntity
  8
Ebene_1
 62
7
100
AcDbLine
 10
7.017071
 20
15.411438
 30
0.0
 11
6.451479
 21
15.411438
 31
0.0
  0
LINE
  5
1f9
100
AcDbEntity
  8
Ebene_1
 62
7
100
AcDbLine
 10
6.486629
 20
15.411438
 30
0.0
 11
6.486629
 21
11.722741
 31
0.0
  0
LINE
  5
1fa
100
AcDbEntity
  8
Ebene_1
 62
7
100
AcDbLine
 10
6.486629
 20
11.404717
 30
0.0
 11
6.486629
 21
9.575569
 31
0.0
  0
LINE
  5
1fb
100
AcDbEntity
  8
Ebene_1
 62
7
100
AcDbLine
 10
6.486629
 20
9.575569
 30
0.0
 11
6.875324
 21
9.575569
 31
0.0
  0
LINE
  5
1fc
100
AcDbEntity
  8
Ebene_1
 62
7
100
AcDbLine
 10
6.875324
 20
9.575569
 30
0.0
 11
6.875324
 21
8.267764
 31
0.0
  0
LINE
  5
1fd
100
AcDbEntity
  8
Ebene_1
 62
7
100
AcDbLine
 10
6.875324
 20
8.229791
 30
0.0
 11
6.875324
 21
6.856847
 31
0.0
  0
LINE
  5
1fe
100
AcDbEntity
  8
Ebene_1
 62
7
100
AcDbLine
 10
6.875324
 20
6.856847
 30
0.0
 11
7.376148
 21
6.856847
 31
0.0
  0
LINE
  5
1ff
100
AcDbEntity
  8
Ebene_1
 62
7
100
AcDbLine
 10
0.797758
 20
1.901427
 30
0.0
 11
0.296935
 21
1.901427
 31
0.0
  0
LINE
  5
200
100
AcDbEntity
  8
Ebene_1
 62
7
100
AcDbLine
 10
0.296935
 20
1.901427
 30
0.0
 11
0.296935
 21
12.729862
 31
0.0
  0
LINE
  5
201
100
AcDbEntity
  8
Ebene_1
 62
7
100
AcDbLine
 10
0.296935
 20
12.729862
 30
0.0
 11
0.797758
 21
12.729862
 31
0.0
  0
LINE
  5
202
100
AcDbEntity
  8
Ebene_1
 62
7
100
AcDbLine
 10
0.797758
 20
12.729862
 30
0.0
 11
0.797758
 21
13.047885
 31
0.0
  0
LINE
  5
203
100
AcDbEntity
  8
Ebene_1
 62
7
100
AcDbLine
 10
0.797758
 20
13.047885
 30
0.0
 11
2.331706
 21
13.047885
 31
0.0
  0
LINE
  5
204
100
AcDbEntity
  8
Ebene_1
 62
7
100
AcDbLine
 10
2.331706
 20
13.047885
 30
0.0
 11
2.331706
 21
12.482274
 31
0.0
  0
LINE
  5
205
100
AcDbEntity
  8
Ebene_1
 62
7
100
AcDbLine
 10
2.331706
 20
12.482274
 30
0.0
 11
2.081294
 21
12.482274
 31
0.0
  0
LINE
  5
206
100
AcDbEntity
  8
Ebene_1
 62
7
100
AcDbLine
 10
2.081294
 20
12.482274
 30
0.0
 11
2.081294
 21
12.156720
 31
0.0
  0
LINE
  5
207
100
AcDbEntity
  8
Ebene_1
 62
7
100
AcDbLine
 10
2.081294
 20
12.156720
 30
0.0
 11
2.331706
 21
12.156720
 31
0.0
  0
LINE
  5
208
100
AcDbEntity
  8
Ebene_1
 62
7
100
AcDbLine
 10
2.331706
 20
12.156720
 30
0.0
 11
2.331706
 21
12.056557
 31
0.0
  0
LINE
  5
209
100
AcDbEntity
  8
Ebene_1
 62
7
100
AcDbLine
 10
2.331706
 20
12.056557
 30
0.0
 11
2.649728
 21
12.056557
 31
0.0
  0
LINE
  5
20a
100
AcDbEntity
  8
Ebene_1
 62
7
100
AcDbLine
 10
2.649728
 20
12.056557
 30
0.0
 11
2.649728
 21
12.156720
 31
0.0
  0
LINE
  5
20b
100
AcDbEntity
  8
Ebene_1
 62
7
100
AcDbLine
 10
2.649728
 20
12.156720
 30
0.0
 11
2.900140
 21
12.156720
 31
0.0
  0
LINE
  5
20c
100
AcDbEntity
  8
Ebene_1
 62
7
100
AcDbLine
 10
2.900140
 20
12.156720
 30
0.0
 11
2.900140
 21
12.482274
 31
0.0
  0
LINE
  5
20d
100
AcDbEntity
  8
Ebene_1
 62
7
100
AcDbLine
 10
2.900140
 20
12.482274
 30
0.0
 11
2.649728
 21
12.482274
 31
0.0
  0
LINE
  5
20e
100
AcDbEntity
  8
Ebene_1
 62
7
100
AcDbLine
 10
2.649728
 20
12.482274
 30
0.0
 11
2.649728
 21
13.047885
 31
0.0
  0
LINE
  5
20f
100
AcDbEntity
  8
Ebene_1
 62
7
100
AcDbLine
 10
2.649728
 20
13.047885
 30
0.0
 11
5.773797
 21
13.047885
 31
0.0
  0
LINE
  5
210
100
AcDbEntity
  8
Ebene_1
 62
7
100
AcDbLine
 10
5.773797
 20
13.047885
 30
0.0
 11
5.773797
 21
12.729862
 31
0.0
  0
LINE
  5
211
100
AcDbEntity
  8
Ebene_1
 62
7
100
AcDbLine
 10
5.821769
 20
12.729862
 30
0.0
 11
6.274621
 21
12.729862
 31
0.0
  0
LINE
  5
212
100
AcDbEntity
  8
Ebene_1
 62
7
100
AcDbLine
 10
6.274621
 20
12.729862
 30
0.0
 11
6.274621
 21
4.797889
 31
0.0
  0
LINE
  5
213
100
AcDbEntity
  8
Ebene_1
 62
7
100
AcDbLine
 10
6.274621
 20
4.638496
 30
0.0
 11
6.274621
 21
1.901427
 31
0.0
  0
LINE
  5
214
100
AcDbEntity
  8
Ebene_1
 62
7
100
AcDbLine
 10
6.274621
 20
1.901427
 30
0.0
 11
5.773797
 21
1.901427
 31
0.0
  0
LINE
  5
215
100
AcDbEntity
  8
Ebene_1
 62
7
100
AcDbLine
 10
5.773797
 20
1.901427
 30
0.0
 11
5.773797
 21
1.583413
 31
0.0
  0
LINE
  5
216
100
AcDbEntity
  8
Ebene_1
 62
7
100
AcDbLine
 10
5.773797
 20
1.583413
 30
0.0
 11
3.782390
 21
1.583413
 31
0.0
  0
LINE
  5
217
100
AcDbEntity
  8
Ebene_1
 62
7
100
AcDbLine
 10
3.782390
 20
1.583413
 30
0.0
 11
3.782390
 21
2.163655
 31
0.0
  0
LINE
  5
218
100
AcDbEntity
  8
Ebene_1
 62
7
100
AcDbLine
 10
3.782390
 20
2.163655
 30
0.0
 11
4.032802
 21
2.163655
 31
0.0
  0
LINE
  5
219
100
AcDbEntity
  8
Ebene_1
 62
7
100
AcDbLine
 10
4.032802
 20
2.163655
 30
0.0
 11
4.032802
 21
2.489188
 31
0.0
  0
LINE
  5
21a
100
AcDbEntity
  8
Ebene_1
 62
7
100
AcDbLine
 10
4.032802
 20
2.489188
 30
0.0
 11
3.782390
 21
2.489188
 31
0.0
  0
LINE
  5
21b
100
AcDbEntity
  8
Ebene_1
 62
7
100
AcDbLine
 10
3.782390
 20
2.489188
 30
0.0
 11
3.782390
 21
2.589367
 31
0.0
  0
LINE
  5
21c
100
AcDbEntity
  8
Ebene_1
 62
7
100
AcDbLine
 10
3.782390
 20
2.589367
 30
0.0
 11
3.464367
 21
2.589367
 31
0.0
  0
LINE
  5
21d
100
AcDbEntity
  8
Ebene_1
 62
7
100
AcDbLine
 10
3.464367
 20
2.589367
 30
0.0
 11
3.464367
 21
2.489188
 31
0.0
  0
LINE
  5
21e
100
AcDbEntity
  8
Ebene_1
 62
7
100
AcDbLine
 10
3.464367
 20
2.489188
 30
0.0
 11
3.213956
 21
2.489188
 31
0.0
  0
LINE
  5
21f
100
AcDbEntity
  8
Ebene_1
 62
7
100
AcDbLine
 10
3.213956
 20
2.489188
 30
0.0
 11
3.213956
 21
2.163655
 31
0.0
  0
LINE
  5
220
100
AcDbEntity
  8
Ebene_1
 62
7
100
AcDbLine
 10
3.213956
 20
2.163655
 30
0.0
 11
3.464367
 21
2.163655
 31
0.0
  0
LINE
  5
221
100
AcDbEntity
  8
Ebene_1
 62
7
100
AcDbLine
 10
3.464367
 20
2.163655
 30
0.0
 11
3.464367
 21
1.583413
 31
0.0
  0
LINE
  5
222
100
AcDbEntity
  8
Ebene_1
 62
7
100
AcDbLine
 10
3.464367
 20
1.583413
 30
0.0
 11
2.131063
 21
1.583413
 31
0.0
  0
LINE
  5
223
100
AcDbEntity
  8
Ebene_1
 62
7
100
AcDbLine
 10
2.087637
 20
1.583413
 30
0.0
 11
0.797758
 21
1.583413
 31
0.0
  0
LINE
  5
224
100
AcDbEntity
  8
Ebene_1
 62
7
100
AcDbLine
 10
0.797758
 20
1.583413
 30
0.0
 11
0.797758
 21
1.901427
 31
0.0
  0
LINE
  5
225
100
AcDbEntity
  8
Ebene_1
 62
7
100
AcDbLine
 10
0.797758
 20
13.365927
 30
0.0
 11
0.387236
 21
13.365927
 31
0.0
  0
LINE
  5
226
100
AcDbEntity
  8
Ebene_1
 62
7
100
AcDbLine
 10
0.296935
 20
13.365927
 30
0.0
 11
0.296935
 21
24.194334
 31
0.0
  0
LINE
  5
227
100
AcDbEntity
  8
Ebene_1
 62
7
100
AcDbLine
 10
0.296935
 20
24.194334
 30
0.0
 11
0.797758
 21
24.194334
 31
0.0
  0
LINE
  5
228
100
AcDbEntity
  8
Ebene_1
 62
7
100
AcDbLine
 10
0.797758
 20
24.194334
 30
0.0
 11
0.797758
 21
24.512377
 31
0.0
  0
LINE
  5
229
100
AcDbEntity
  8
Ebene_1
 62
7
100
AcDbLine
 10
0.797758
 20
24.512377
 30
0.0
 11
2.331706
 21
24.512377
 31
0.0
  0
LINE
  5
22a
100
AcDbEntity
  8
Ebene_1
 62
7
100
AcDbLine
 10
2.331706
 20
24.512377
 30
0.0
 11
2.331706
 21
23.946744
 31
0.0
  0
LINE
  5
22b
100
AcDbEntity
  8
Ebene_1
 62
7
100
AcDbLine
 10
2.331706
 20
23.946744
 30
0.0
 11
2.081294
 21
23.946744
 31
0.0
  0
LINE
  5
22c
100
AcDbEntity
  8
Ebene_1
 62
7
100
AcDbLine
 10
2.081294
 20
23.946744
 30
0.0
 11
2.081294
 21
23.621203
 31
0.0
  0
LINE
  5
22d
100
AcDbEntity
  8
Ebene_1
 62
7
100
AcDbLine
 10
2.081294
 20
23.621203
 30
0.0
 11
2.331706
 21
23.621203
 31
0.0
  0
LINE
  5
22e
100
AcDbEntity
  8
Ebene_1
 62
7
100
AcDbLine
 10
2.331706
 20
23.621203
 30
0.0
 11
2.331706
 21
23.521027
 31
0.0
  0
LINE
  5
22f
100
AcDbEntity
  8
Ebene_1
 62
7
100
AcDbLine
 10
2.331706
 20
23.521027
 30
0.0
 11
2.649728
 21
23.521027
 31
0.0
  0
LINE
  5
230
100
AcDbEntity
  8
Ebene_1
 62
7
100
AcDbLine
 10
2.649728
 20
23.521027
 30
0.0
 11
2.649728
 21
23.621203
 31
0.0
  0
LINE
  5
231
100
AcDbEntity
  8
Ebene_1
 62
7
100
AcDbLine
 10
2.649728
 20
23.621203
 30
0.0
 11
2.900140
 21
23.621203
 31
0.0
  0
LINE
  5
232
100
AcDbEntity
  8
Ebene_1
 62
7
100
AcDbLine
 10
2.900140
 20
23.621203
 30
0.0
 11
2.900140
 21
23.946744
 31
0.0
  0
LINE
  5
233
100
AcDbEntity
  8
Ebene_1
 62
7
100
AcDbLine
 10
2.900140
 20
23.946744
 30
0.0
 11
2.649728
 21
23.946744
 31
0.0
  0
LINE
  5
234
100
AcDbEntity
  8
Ebene_1
 62
7
100
AcDbLine
 10
2.649728
 20
23.946744
 30
0.0
 11
2.649728
 21
24.512377
 31
0.0
  0
LINE
  5
235
100
AcDbEntity
  8
Ebene_1
 62
7
100
AcDbLine
 10
2.649728
 20
24.512377
 30
0.0
 11
5.773797
 21
24.512377
 31
0.0
  0
LINE
  5
236
100
AcDbEntity
  8
Ebene_1
 62
7
100
AcDbLine
 10
5.773797
 20
24.512377
 30
0.0
 11
5.773797
 21
24.194334
 31
0.0
  0
LINE
  5
237
100
AcDbEntity
  8
Ebene_1
 62
7
100
AcDbLine
 10
5.773797
 20
24.194334
 30
0.0
 11
6.274621
 21
24.194334
 31
0.0
  0
LINE
  5
238
100
AcDbEntity
  8
Ebene_1
 62
7
100
AcDbLine
 10
6.274621
 20
24.194334
 30
0.0
 11
6.274621
 21
23.134701
 31
0.0
  0
LINE
  5
239
100
AcDbEntity
  8
Ebene_1
 62
7
100
AcDbLine
 10
6.274621
 20
22.815913
 30
0.0
 11
6.274621
 21
13.365927
 31
0.0
  0
LINE
  5
23a
100
AcDbEntity
  8
Ebene_1
 62
7
100
AcDbLine
 10
6.274621
 20
13.365927
 30
0.0
 11
5.831699
 21
13.365927
 31
0.0
  0
LINE
  5
23b
100
AcDbEntity
  8
Ebene_1
 62
7
100
AcDbLine
 10
5.773797
 20
13.365927
 30
0.0
 11
5.773797
 21
13.047885
 31
0.0
  0
LINE
  5
23c
100
AcDbEntity
  8
Ebene_1
 62
7
100
AcDbLine
 10
5.773797
 20
13.047885
 30
0.0
 11
3.782390
 21
13.047885
 31
0.0
  0
LINE
  5
23d
100
AcDbEntity
  8
Ebene_1
 62
7
100
AcDbLine
 10
3.782390
 20
13.047885
 30
0.0
 11
3.782390
 21
13.628126
 31
0.0
  0
LINE
  5
23e
100
AcDbEntity
  8
Ebene_1
 62
7
100
AcDbLine
 10
3.782390
 20
13.628126
 30
0.0
 11
4.032802
 21
13.628126
 31
0.0
  0
LINE
  5
23f
100
AcDbEntity
  8
Ebene_1
 62
7
100
AcDbLine
 10
4.032802
 20
13.628126
 30
0.0
 11
4.032802
 21
13.953667
 31
0.0
  0
LINE
  5
240
100
AcDbEntity
  8
Ebene_1
 62
7
100
AcDbLine
 10
4.032802
 20
13.953667
 30
0.0
 11
3.782390
 21
13.953667
 31
0.0
  0
LINE
  5
241
100
AcDbEntity
  8
Ebene_1
 62
7
100
AcDbLine
 10
3.782390
 20
13.953667
 30
0.0
 11
3.782390
 21
14.053843
 31
0.0
  0
LINE
  5
242
100
AcDbEntity
  8
Ebene_1
 62
7
100
AcDbLine
 10
3.782390
 20
14.053843
 30
0.0
 11
3.464367
 21
14.053843
 31
0.0
  0
LINE
  5
243
100
AcDbEntity
  8
Ebene_1
 62
7
100
AcDbLine
 10
3.464367
 20
14.053843
 30
0.0
 11
3.464367
 21
13.953667
 31
0.0
  0
LINE
  5
244
100
AcDbEntity
  8
Ebene_1
 62
7
100
AcDbLine
 10
3.464367
 20
13.953667
 30
0.0
 11
3.213956
 21
13.953667
 31
0.0
  0
LINE
  5
245
100
AcDbEntity
  8
Ebene_1
 62
7
100
AcDbLine
 10
3.213956
 20
13.953667
 30
0.0
 11
3.213956
 21
13.628126
 31
0.0
  0
LINE
  5
246
100
AcDbEntity
  8
Ebene_1
 62
7
100
AcDbLine
 10
3.213956
 20
13.628126
 30
0.0
 11
3.464367
 21
13.628126
 31
0.0
  0
LINE
  5
247
100
AcDbEntity
  8
Ebene_1
 62
7
100
AcDbLine
 10
3.464367
 20
13.628126
 30
0.0
 11
3.464367
 21
13.047885
 31
0.0
  0
LINE
  5
248
100
AcDbEntity
  8
Ebene_1
 62
7
100
AcDbLine
 10
3.464367
 20
13.047885
 30
0.0
 11
0.797758
 21
13.047885
 31
0.0
  0
LINE
  5
249
100
AcDbEntity
  8
Ebene_1
 62
7
100
AcDbLine
 10
0.797758
 20
13.047885
 30
0.0
 11
0.797758
 21
13.365927
 31
0.0
  0
LINE
  5
24a
100
AcDbEntity
  8
Ebene_1
 62
7
100
AcDbLine
 10
25.320944
 20
1.169973
 30
0.0
 11
24.820120
 21
1.169973
 31
0.0
  0
LINE
  5
24b
100
AcDbEntity
  8
Ebene_1
 62
7
100
AcDbLine
 10
24.820120
 20
1.169973
 30
0.0
 11
24.820120
 21
6.220790
 31
0.0
  0
LINE
  5
24c
100
AcDbEntity
  8
Ebene_1
 62
7
100
AcDbLine
 10
24.855301
 20
6.220790
 30
0.0
 11
25.320944
 21
6.220790
 31
0.0
  0
LINE
  5
24d
100
AcDbEntity
  8
Ebene_1
 62
7
100
AcDbLine
 10
25.320944
 20
6.220790
 30
0.0
 11
25.320944
 21
6.538832
 31
0.0
  0
LINE
  5
24e
100
AcDbEntity
  8
Ebene_1
 62
7
100
AcDbLine
 10
25.320944
 20
6.538832
 30
0.0
 11
26.536867
 21
6.538832
 31
0.0
  0
LINE
  5
24f
100
AcDbEntity
  8
Ebene_1
 62
7
100
AcDbLine
 10
26.536867
 20
6.538832
 30
0.0
 11
26.536867
 21
5.973199
 31
0.0
  0
LINE
  5
250
100
AcDbEntity
  8
Ebene_1
 62
7
100
AcDbLine
 10
26.536867
 20
5.973199
 30
0.0
 11
26.286465
 21
5.973199
 31
0.0
  0
LINE
  5
251
100
AcDbEntity
  8
Ebene_1
 62
7
100
AcDbLine
 10
26.286465
 20
5.973199
 30
0.0
 11
26.286465
 21
5.647666
 31
0.0
  0
LINE
  5
252
100
AcDbEntity
  8
Ebene_1
 62
7
100
AcDbLine
 10
26.286465
 20
5.647666
 30
0.0
 11
26.536867
 21
5.647666
 31
0.0
  0
LINE
  5
253
100
AcDbEntity
  8
Ebene_1
 62
7
100
AcDbLine
 10
26.536867
 20
5.647666
 30
0.0
 11
26.536867
 21
5.547514
 31
0.0
  0
LINE
  5
254
100
AcDbEntity
  8
Ebene_1
 62
7
100
AcDbLine
 10
26.536867
 20
5.547514
 30
0.0
 11
26.854891
 21
5.547514
 31
0.0
  0
LINE
  5
255
100
AcDbEntity
  8
Ebene_1
 62
7
100
AcDbLine
 10
26.854891
 20
5.547514
 30
0.0
 11
26.854891
 21
5.647666
 31
0.0
  0
LINE
  5
256
100
AcDbEntity
  8
Ebene_1
 62
7
100
AcDbLine
 10
26.854891
 20
5.647666
 30
0.0
 11
27.105303
 21
5.647666
 31
0.0
  0
LINE
  5
257
100
AcDbEntity
  8
Ebene_1
 62
7
100
AcDbLine
 10
27.105303
 20
5.647666
 30
0.0
 11
27.105303
 21
5.973199
 31
0.0
  0
LINE
  5
258
100
AcDbEntity
  8
Ebene_1
 62
7
100
AcDbLine
 10
27.105303
 20
5.973199
 30
0.0
 11
26.854891
 21
5.973199
 31
0.0
  0
LINE
  5
259
100
AcDbEntity
  8
Ebene_1
 62
7
100
AcDbLine
 10
26.854891
 20
5.973199
 30
0.0
 11
26.854891
 21
6.538832
 31
0.0
  0
LINE
  5
25a
100
AcDbEntity
  8
Ebene_1
 62
7
100
AcDbLine
 10
26.854891
 20
6.538832
 30
0.0
 11
27.540776
 21
6.538832
 31
0.0
  0
LINE
  5
25b
100
AcDbEntity
  8
Ebene_1
 62
7
100
AcDbLine
 10
27.540776
 20
6.538832
 30
0.0
 11
27.540776
 21
6.220790
 31
0.0
  0
LINE
  5
25c
100
AcDbEntity
  8
Ebene_1
 62
7
100
AcDbLine
 10
27.540776
 20
6.220790
 30
0.0
 11
28.041600
 21
6.220790
 31
0.0
  0
LINE
  5
25d
100
AcDbEntity
  8
Ebene_1
 62
7
100
AcDbLine
 10
28.041600
 20
6.220790
 30
0.0
 11
28.041600
 21
3.496738
 31
0.0
  0
LINE
  5
25e
100
AcDbEntity
  8
Ebene_1
 62
7
100
AcDbLine
 10
28.041600
 20
3.430439
 30
0.0
 11
28.041600
 21
1.169973
 31
0.0
  0
LINE
  5
25f
100
AcDbEntity
  8
Ebene_1
 62
7
100
AcDbLine
 10
28.012263
 20
1.169973
 30
0.0
 11
27.540776
 21
1.169973
 31
0.0
  0
LINE
  5
260
100
AcDbEntity
  8
Ebene_1
 62
7
100
AcDbLine
 10
27.540776
 20
1.169973
 30
0.0
 11
27.540776
 21
0.851931
 31
0.0
  0
LINE
  5
261
100
AcDbEntity
  8
Ebene_1
 62
7
100
AcDbLine
 10
27.540776
 20
0.851931
 30
0.0
 11
27.143938
 21
0.851931
 31
0.0
  0
LINE
  5
262
100
AcDbEntity
  8
Ebene_1
 62
7
100
AcDbLine
 10
27.078765
 20
0.851931
 30
0.0
 11
26.344437
 21
0.851931
 31
0.0
  0
LINE
  5
263
100
AcDbEntity
  8
Ebene_1
 62
7
100
AcDbLine
 10
26.344438
 20
0.851931
 30
0.0
 11
26.344438
 21
1.432201
 31
0.0
  0
LINE
  5
264
100
AcDbEntity
  8
Ebene_1
 62
7
100
AcDbLine
 10
26.344438
 20
1.432201
 30
0.0
 11
26.594850
 21
1.432201
 31
0.0
  0
LINE
  5
265
100
AcDbEntity
  8
Ebene_1
 62
7
100
AcDbLine
 10
26.594850
 20
1.432201
 30
0.0
 11
26.594850
 21
1.757734
 31
0.0
  0
LINE
  5
266
100
AcDbEntity
  8
Ebene_1
 62
7
100
AcDbLine
 10
26.594850
 20
1.757734
 30
0.0
 11
26.344438
 21
1.757734
 31
0.0
  0
LINE
  5
267
100
AcDbEntity
  8
Ebene_1
 62
7
100
AcDbLine
 10
26.344438
 20
1.757734
 30
0.0
 11
26.344438
 21
1.857913
 31
0.0
  0
LINE
  5
268
100
AcDbEntity
  8
Ebene_1
 62
7
100
AcDbLine
 10
26.344438
 20
1.857913
 30
0.0
 11
26.026406
 21
1.857913
 31
0.0
  0
LINE
  5
269
100
AcDbEntity
  8
Ebene_1
 62
7
100
AcDbLine
 10
26.026406
 20
1.857913
 30
0.0
 11
26.026406
 21
1.757734
 31
0.0
  0
LINE
  5
26a
100
AcDbEntity
  8
Ebene_1
 62
7
100
AcDbLine
 10
26.026406
 20
1.757734
 30
0.0
 11
25.775994
 21
1.757734
 31
0.0
  0
LINE
  5
26b
100
AcDbEntity
  8
Ebene_1
 62
7
100
AcDbLine
 10
25.775994
 20
1.757734
 30
0.0
 11
25.775994
 21
1.432201
 31
0.0
  0
LINE
  5
26c
100
AcDbEntity
  8
Ebene_1
 62
7
100
AcDbLine
 10
25.775994
 20
1.432201
 30
0.0
 11
26.026406
 21
1.432201
 31
0.0
  0
LINE
  5
26d
100
AcDbEntity
  8
Ebene_1
 62
7
100
AcDbLine
 10
26.026406
 20
1.432201
 30
0.0
 11
26.026406
 21
0.851931
 31
0.0
  0
LINE
  5
26e
100
AcDbEntity
  8
Ebene_1
 62
7
100
AcDbLine
 10
26.026406
 20
0.851931
 30
0.0
 11
25.320944
 21
0.851931
 31
0.0
  0
LINE
  5
26f
100
AcDbEntity
  8
Ebene_1
 62
7
100
AcDbLine
 10
25.320944
 20
0.851931
 30
0.0
 11
25.320944
 21
1.169973
 31
0.0
  0
LINE
  5
270
100
AcDbEntity
  8
Ebene_1
 62
7
100
AcDbLine
 10
11.141071
 20
6.220790
 30
0.0
 11
11.641895
 21
6.220790
 31
0.0
  0
LINE
  5
271
100
AcDbEntity
  8
Ebene_1
 62
7
100
AcDbLine
 10
11.641895
 20
6.220790
 30
0.0
 11
11.641895
 21
1.169973
 31
0.0
  0
LINE
  5
272
100
AcDbEntity
  8
Ebene_1
 62
7
100
AcDbLine
 10
11.641895
 20
1.169973
 30
0.0
 11
11.141071
 21
1.169973
 31
0.0
  0
LINE
  5
273
100
AcDbEntity
  8
Ebene_1
 62
7
100
AcDbLine
 10
11.141071
 20
1.169973
 30
0.0
 11
11.141071
 21
0.851931
 31
0.0
  0
LINE
  5
274
100
AcDbEntity
  8
Ebene_1
 62
7
100
AcDbLine
 10
11.141071
 20
0.851931
 30
0.0
 11
9.925137
 21
0.851931
 31
0.0
  0
LINE
  5
275
100
AcDbEntity
  8
Ebene_1
 62
7
100
AcDbLine
 10
9.925137
 20
0.851931
 30
0.0
 11
9.925137
 21
1.417565
 31
0.0
  0
LINE
  5
276
100
AcDbEntity
  8
Ebene_1
 62
7
100
AcDbLine
 10
9.925137
 20
1.417565
 30
0.0
 11
10.175548
 21
1.417565
 31
0.0
  0
LINE
  5
277
100
AcDbEntity
  8
Ebene_1
 62
7
100
AcDbLine
 10
10.175548
 20
1.417565
 30
0.0
 11
10.175548
 21
1.743097
 31
0.0
  0
LINE
  5
278
100
AcDbEntity
  8
Ebene_1
 62
7
100
AcDbLine
 10
10.175548
 20
1.743097
 30
0.0
 11
9.925137
 21
1.743097
 31
0.0
  0
LINE
  5
279
100
AcDbEntity
  8
Ebene_1
 62
7
100
AcDbLine
 10
9.925137
 20
1.743097
 30
0.0
 11
9.925137
 21
1.843303
 31
0.0
  0
LINE
  5
27a
100
AcDbEntity
  8
Ebene_1
 62
7
100
AcDbLine
 10
9.925137
 20
1.843303
 30
0.0
 11
9.607124
 21
1.843303
 31
0.0
  0
LINE
  5
27b
100
AcDbEntity
  8
Ebene_1
 62
7
100
AcDbLine
 10
9.607124
 20
1.843303
 30
0.0
 11
9.607124
 21
1.743097
 31
0.0
  0
LINE
  5
27c
100
AcDbEntity
  8
Ebene_1
 62
7
100
AcDbLine
 10
9.607124
 20
1.743097
 30
0.0
 11
9.356712
 21
1.743097
 31
0.0
  0
LINE
  5
27d
100
AcDbEntity
  8
Ebene_1
 62
7
100
AcDbLine
 10
9.356712
 20
1.743097
 30
0.0
 11
9.356712
 21
1.417565
 31
0.0
  0
LINE
  5
27e
100
AcDbEntity
  8
Ebene_1
 62
7
100
AcDbLine
 10
9.356712
 20
1.417565
 30
0.0
 11
9.607124
 21
1.417565
 31
0.0
  0
LINE
  5
27f
100
AcDbEntity
  8
Ebene_1
 62
7
100
AcDbLine
 10
9.607124
 20
1.417565
 30
0.0
 11
9.607124
 21
0.851931
 31
0.0
  0
LINE
  5
280
100
AcDbEntity
  8
Ebene_1
 62
7
100
AcDbLine
 10
9.607124
 20
0.851931
 30
0.0
 11
8.921240
 21
0.851931
 31
0.0
  0
LINE
  5
281
100
AcDbEntity
  8
Ebene_1
 62
7
100
AcDbLine
 10
8.921240
 20
0.851931
 30
0.0
 11
8.921240
 21
1.169973
 31
0.0
  0
LINE
  5
282
100
AcDbEntity
  8
Ebene_1
 62
7
100
AcDbLine
 10
8.921240
 20
1.169973
 30
0.0
 11
8.547665
 21
1.169973
 31
0.0
  0
LINE
  5
283
100
AcDbEntity
  8
Ebene_1
 62
7
100
AcDbLine
 10
8.420416
 20
1.169973
 30
0.0
 11
8.420416
 21
6.220790
 31
0.0
  0
LINE
  5
284
100
AcDbEntity
  8
Ebene_1
 62
7
100
AcDbLine
 10
8.420416
 20
6.220790
 30
0.0
 11
8.921240
 21
6.220790
 31
0.0
  0
LINE
  5
285
100
AcDbEntity
  8
Ebene_1
 62
7
100
AcDbLine
 10
8.921240
 20
6.220790
 30
0.0
 11
8.921240
 21
6.538832
 31
0.0
  0
LINE
  5
286
100
AcDbEntity
  8
Ebene_1
 62
7
100
AcDbLine
 10
8.921240
 20
6.538832
 30
0.0
 11
10.117576
 21
6.538832
 31
0.0
  0
LINE
  5
287
100
AcDbEntity
  8
Ebene_1
 62
7
100
AcDbLine
 10
10.117576
 20
6.538832
 30
0.0
 11
10.117576
 21
5.958588
 31
0.0
  0
LINE
  5
288
100
AcDbEntity
  8
Ebene_1
 62
7
100
AcDbLine
 10
10.117576
 20
5.958588
 30
0.0
 11
9.867164
 21
5.958588
 31
0.0
  0
LINE
  5
289
100
AcDbEntity
  8
Ebene_1
 62
7
100
AcDbLine
 10
9.867164
 20
5.958588
 30
0.0
 11
9.867164
 21
5.633028
 31
0.0
  0
LINE
  5
28a
100
AcDbEntity
  8
Ebene_1
 62
7
100
AcDbLine
 10
9.867164
 20
5.633028
 30
0.0
 11
10.117576
 21
5.633028
 31
0.0
  0
LINE
  5
28b
100
AcDbEntity
  8
Ebene_1
 62
7
100
AcDbLine
 10
10.117576
 20
5.633028
 30
0.0
 11
10.117576
 21
5.532876
 31
0.0
  0
LINE
  5
28c
100
AcDbEntity
  8
Ebene_1
 62
7
100
AcDbLine
 10
10.117576
 20
5.532876
 30
0.0
 11
10.435609
 21
5.532876
 31
0.0
  0
LINE
  5
28d
100
AcDbEntity
  8
Ebene_1
 62
7
100
AcDbLine
 10
10.435609
 20
5.532876
 30
0.0
 11
10.435609
 21
5.633028
 31
0.0
  0
LINE
  5
28e
100
AcDbEntity
  8
Ebene_1
 62
7
100
AcDbLine
 10
10.435609
 20
5.633028
 30
0.0
 11
10.686031
 21
5.633028
 31
0.0
  0
LINE
  5
28f
100
AcDbEntity
  8
Ebene_1
 62
7
100
AcDbLine
 10
10.686031
 20
5.633028
 30
0.0
 11
10.686031
 21
5.958588
 31
0.0
  0
LINE
  5
290
100
AcDbEntity
  8
Ebene_1
 62
7
100
AcDbLine
 10
10.686031
 20
5.958588
 30
0.0
 11
10.435609
 21
5.958588
 31
0.0
  0
LINE
  5
291
100
AcDbEntity
  8
Ebene_1
 62
7
100
AcDbLine
 10
10.435609
 20
5.958588
 30
0.0
 11
10.435609
 21
6.538832
 31
0.0
  0
LINE
  5
292
100
AcDbEntity
  8
Ebene_1
 62
7
100
AcDbLine
 10
10.435609
 20
6.538832
 30
0.0
 11
11.121704
 21
6.538832
 31
0.0
  0
LINE
  5
293
100
AcDbEntity
  8
Ebene_1
 62
7
100
AcDbLine
 10
11.141071
 20
6.538832
 30
0.0
 11
11.141071
 21
6.220790
 31
0.0
  0
SPLINE
  5
294
100
AcDbEntity
  8
Ebene_1
 62
7
100
AcDbSpline
 70
8
 71
3
 72
8
 73
4
 74
0
 40
0
 40
0
 40
0
 40
0
 40
1
 40
1
 40
1
 40
1
 10
10.709033
 20
24.477525
 30
0.0
 10
10.605428
 20
25.380096
 30
0.0
 10
9.839795
 20
26.060440
 30
0.0
 10
8.931350
 20
26.057189
 30
0.0
  0
SPLINE
  5
295
100
AcDbEntity
  8
Ebene_1
 62
7
100
AcDbSpline
 70
8
 71
3
 72
8
 73
4
 74
0
 40
0
 40
0
 40
0
 40
0
 40
1
 40
1
 40
1
 40
1
 10
8.931350
 20
26.065472
 30
0.0
 10
8.022896
 20
26.062231
 30
0.0
 10
7.262152
 20
25.376422
 30
0.0
 10
7.165003
 20
24.473147
 30
0.0
  0
LINE
  5
296
100
AcDbEntity
  8
Ebene_1
 62
7
100
AcDbLine
 10
7.165003
 20
24.473147
 30
0.0
 11
6.781308
 21
20.905137
 31
0.0
  0
LINE
  5
297
100
AcDbEntity
  8
Ebene_1
 62
7
100
AcDbLine
 10
6.781308
 20
20.905137
 30
0.0
 11
7.249270
 21
20.906997
 31
0.0
  0
LINE
  5
298
100
AcDbEntity
  8
Ebene_1
 62
7
100
AcDbLine
 10
7.282132
 20
20.906904
 30
0.0
 11
7.283248
 21
20.588872
 31
0.0
  0
LINE
  5
299
100
AcDbEntity
  8
Ebene_1
 62
7
100
AcDbLine
 10
7.283247
 20
20.588872
 30
0.0
 11
8.791119
 21
20.594212
 31
0.0
  0
LINE
  5
29a
100
AcDbEntity
  8
Ebene_1
 62
7
100
AcDbLine
 10
8.791119
 20
20.594223
 30
0.0
 11
8.789111
 21
21.159834
 31
0.0
  0
LINE
  5
29b
100
AcDbEntity
  8
Ebene_1
 62
7
100
AcDbLine
 10
8.789111
 20
21.159834
 30
0.0
 11
8.538699
 21
21.159037
 31
0.0
  0
LINE
  5
29c
100
AcDbEntity
  8
Ebene_1
 62
7
100
AcDbLine
 10
8.538699
 20
21.158952
 30
0.0
 11
8.537554
 21
21.484493
 31
0.0
  0
LINE
  5
29d
100
AcDbEntity
  8
Ebene_1
 62
7
100
AcDbLine
 10
8.537555
 20
21.484493
 30
0.0
 11
8.787967
 21
21.485290
 31
0.0
  0
LINE
  5
29e
100
AcDbEntity
  8
Ebene_1
 62
7
100
AcDbLine
 10
8.787967
 20
21.485378
 30
0.0
 11
8.787604
 21
21.585532
 31
0.0
  0
LINE
  5
29f
100
AcDbEntity
  8
Ebene_1
 62
7
100
AcDbLine
 10
8.787616
 20
21.585532
 30
0.0
 11
9.105627
 21
21.586596
 31
0.0
  0
LINE
  5
2a0
100
AcDbEntity
  8
Ebene_1
 62
7
100
AcDbLine
 10
9.105627
 20
21.586667
 30
0.0
 11
9.105990
 21
21.486491
 31
0.0
  0
LINE
  5
2a1
100
AcDbEntity
  8
Ebene_1
 62
7
100
AcDbLine
 10
9.105979
 20
21.486491
 30
0.0
 11
9.356391
 21
21.487287
 31
0.0
  0
LINE
  5
2a2
100
AcDbEntity
  8
Ebene_1
 62
7
100
AcDbLine
 10
9.356391
 20
21.487386
 30
0.0
 11
9.357555
 21
21.161832
 31
0.0
  0
LINE
  5
2a3
100
AcDbEntity
  8
Ebene_1
 62
7
100
AcDbLine
 10
9.357556
 20
21.161832
 30
0.0
 11
9.107144
 21
21.161035
 31
0.0
  0
LINE
  5
2a4
100
AcDbEntity
  8
Ebene_1
 62
7
100
AcDbLine
 10
9.107144
 20
21.160960
 30
0.0
 11
9.109141
 21
20.595339
 31
0.0
  0
LINE
  5
2a5
100
AcDbEntity
  8
Ebene_1
 62
7
100
AcDbLine
 10
9.109142
 20
20.595339
 30
0.0
 11
10.618521
 21
20.600678
 31
0.0
  0
LINE
  5
2a6
100
AcDbEntity
  8
Ebene_1
 62
7
100
AcDbLine
 10
10.618521
 20
20.600678
 30
0.0
 11
10.617396
 21
20.918712
 31
0.0
  0
LINE
  5
2a7
100
AcDbEntity
  8
Ebene_1
 62
7
100
AcDbLine
 10
10.617396
 20
20.918712
 30
0.0
 11
11.118220
 21
20.920572
 31
0.0
  0
LINE
  5
2a8
100
AcDbEntity
  8
Ebene_1
 62
7
100
AcDbLine
 10
11.118220
 20
20.920500
 30
0.0
 11
10.719324
 21
24.396006
 31
0.0
  0
SPLINE
  5
2a9
100
AcDbEntity
  8
Ebene_1
 62
7
100
AcDbSpline
 70
8
 71
3
 72
8
 73
4
 74
0
 40
0
 40
0
 40
0
 40
0
 40
1
 40
1
 40
1
 40
1
 10
9.499172
 20
23.424820
 30
0.0
 10
9.479915
 20
23.435898
 30
0.0
 10
9.456210
 20
23.435845
 30
0.0
 10
9.436973
 20
23.424820
 30
0.0
  0
SPLINE
  5
2aa
100
AcDbEntity
  8
Ebene_1
 62
7
100
AcDbSpline
 70
8
 71
3
 72
8
 73
4
 74
0
 40
0
 40
0
 40
0
 40
0
 40
1
 40
1
 40
1
 40
1
 10
9.436973
 20
23.424700
 30
0.0
 10
9.417777
 20
23.413543
 30
0.0
 10
9.405979
 20
23.392952
 30
0.0
 10
9.406070
 20
23.370722
 30
0.0
  0
SPLINE
  5
2ab
100
AcDbEntity
  8
Ebene_1
 62
7
100
AcDbSpline
 70
8
 71
3
 72
8
 73
4
 74
0
 40
0
 40
0
 40
0
 40
0
 40
1
 40
1
 40
1
 40
1
 10
9.406070
 20
23.370722
 30
0.0
 10
9.406176
 20
23.348513
 30
0.0
 10
9.418128
 20
23.328029
 30
0.0
 10
9.437445
 20
23.317025
 30
0.0
  0
SPLINE
  5
2ac
100
AcDbEntity
  8
Ebene_1
 62
7
100
AcDbSpline
 70
8
 71
3
 72
8
 73
4
 74
0
 40
0
 40
0
 40
0
 40
0
 40
1
 40
1
 40
1
 40
1
 10
9.437445
 20
23.317025
 30
0.0
 10
9.456712
 20
23.305948
 30
0.0
 10
9.480437
 20
23.306001
 30
0.0
 10
9.499644
 20
23.317025
 30
0.0
  0
SPLINE
  5
2ad
100
AcDbEntity
  8
Ebene_1
 62
7
100
AcDbSpline
 70
8
 71
3
 72
8
 73
4
 74
0
 40
0
 40
0
 40
0
 40
0
 40
1
 40
1
 40
1
 40
1
 10
9.499644
 20
23.317145
 30
0.0
 10
9.518861
 20
23.328302
 30
0.0
 10
9.530648
 20
23.348893
 30
0.0
 10
9.530548
 20
23.371113
 30
0.0
  0
SPLINE
  5
2ae
100
AcDbEntity
  8
Ebene_1
 62
7
100
AcDbSpline
 70
8
 71
3
 72
8
 73
4
 74
0
 40
0
 40
0
 40
0
 40
0
 40
1
 40
1
 40
1
 40
1
 10
9.530548
 20
23.371113
 30
0.0
 10
9.530468
 20
23.393321
 30
0.0
 10
9.518479
 20
23.413817
 30
0.0
 10
9.499172
 20
23.424820
 30
0.0
  0
LINE
  5
2af
100
AcDbEntity
  8
Ebene_1
 62
7
100
AcDbLine
 10
9.499172
 20
23.424820
 30
0.0
 11
9.499172
 21
23.424820
 31
0.0
  0
LINE
  5
2b0
100
AcDbEntity
  8
Ebene_1
 62
7
100
AcDbLine
 10
9.499172
 20
23.424820
 30
0.0
 11
9.499172
 21
23.424820
 31
0.0
  0
SPLINE
  5
2b1
100
AcDbEntity
  8
Ebene_1
 62
7
100
AcDbSpline
 70
8
 71
3
 72
8
 73
4
 74
0
 40
0
 40
0
 40
0
 40
0
 40
1
 40
1
 40
1
 40
1
 10
9.492696
 20
25.251718
 30
0.0
 10
9.473449
 20
25.262743
 30
0.0
 10
9.449785
 20
25.262663
 30
0.0
 10
9.430598
 20
25.251453
 30
0.0
  0
SPLINE
  5
2b2
100
AcDbEntity
  8
Ebene_1
 62
7
100
AcDbSpline
 70
8
 71
3
 72
8
 73
4
 74
0
 40
0
 40
0
 40
0
 40
0
 40
1
 40
1
 40
1
 40
1
 10
9.430598
 20
25.251487
 30
0.0
 10
9.411431
 20
25.240356
 30
0.0
 10
9.399664
 20
25.219789
 30
0.0
 10
9.399744
 20
25.197601
 30
0.0
  0
SPLINE
  5
2b3
100
AcDbEntity
  8
Ebene_1
 62
7
100
AcDbSpline
 70
8
 71
3
 72
8
 73
4
 74
0
 40
0
 40
0
 40
0
 40
0
 40
1
 40
1
 40
1
 40
1
 10
9.399744
 20
25.197601
 30
0.0
 10
9.399797
 20
25.175393
 30
0.0
 10
9.411732
 20
25.154958
 30
0.0
 10
9.430979
 20
25.143923
 30
0.0
  0
SPLINE
  5
2b4
100
AcDbEntity
  8
Ebene_1
 62
7
100
AcDbSpline
 70
8
 71
3
 72
8
 73
4
 74
0
 40
0
 40
0
 40
0
 40
0
 40
1
 40
1
 40
1
 40
1
 10
9.430979
 20
25.143923
 30
0.0
 10
9.450236
 20
25.132899
 30
0.0
 10
9.473901
 20
25.132978
 30
0.0
 10
9.493078
 20
25.144188
 30
0.0
  0
SPLINE
  5
2b5
100
AcDbEntity
  8
Ebene_1
 62
7
100
AcDbSpline
 70
8
 71
3
 72
8
 73
4
 74
0
 40
0
 40
0
 40
0
 40
0
 40
1
 40
1
 40
1
 40
1
 10
9.493078
 20
25.144154
 30
0.0
 10
9.512265
 20
25.155312
 30
0.0
 10
9.524032
 20
25.175842
 30
0.0
 10
9.523951
 20
25.198032
 30
0.0
  0
SPLINE
  5
2b6
100
AcDbEntity
  8
Ebene_1
 62
7
100
AcDbSpline
 70
8
 71
3
 72
8
 73
4
 74
0
 40
0
 40
0
 40
0
 40
0
 40
1
 40
1
 40
1
 40
1
 10
9.523951
 20
25.198032
 30
0.0
 10
9.523872
 20
25.220240
 30
0.0
 10
9.511963
 20
25.240685
 30
0.0
 10
9.492696
 20
25.251718
 30
0.0
  0
LINE
  5
2b7
100
AcDbEntity
  8
Ebene_1
 62
7
100
AcDbLine
 10
9.492696
 20
25.251718
 30
0.0
 11
9.492696
 21
25.251718
 31
0.0
  0
LINE
  5
2b8
100
AcDbEntity
  8
Ebene_1
 62
7
100
AcDbLine
 10
9.492696
 20
25.251718
 30
0.0
 11
9.492696
 21
25.251718
 31
0.0
  0
SPLINE
  5
2b9
100
AcDbEntity
  8
Ebene_1
 62
7
100
AcDbSpline
 70
8
 71
3
 72
8
 73
4
 74
0
 40
0
 40
0
 40
0
 40
0
 40
1
 40
1
 40
1
 40
1
 10
8.444452
 20
23.421074
 30
0.0
 10
8.425185
 20
23.432179
 30
0.0
 10
8.401460
 20
23.432152
 30
0.0
 10
8.382233
 20
23.421074
 30
0.0
  0
SPLINE
  5
2ba
100
AcDbEntity
  8
Ebene_1
 62
7
100
AcDbSpline
 70
8
 71
3
 72
8
 73
4
 74
0
 40
0
 40
0
 40
0
 40
0
 40
1
 40
1
 40
1
 40
1
 10
8.382233
 20
23.420984
 30
0.0
 10
8.363017
 20
23.409827
 30
0.0
 10
8.351229
 20
23.389228
 30
0.0
 10
8.351330
 20
23.366998
 30
0.0
  0
SPLINE
  5
2bb
100
AcDbEntity
  8
Ebene_1
 62
7
100
AcDbSpline
 70
8
 71
3
 72
8
 73
4
 74
0
 40
0
 40
0
 40
0
 40
0
 40
1
 40
1
 40
1
 40
1
 10
8.351330
 20
23.366998
 30
0.0
 10
8.351436
 20
23.344762
 30
0.0
 10
8.363409
 20
23.324286
 30
0.0
 10
8.382725
 20
23.313280
 30
0.0
  0
SPLINE
  5
2bc
100
AcDbEntity
  8
Ebene_1
 62
7
100
AcDbSpline
 70
8
 71
3
 72
8
 73
4
 74
0
 40
0
 40
0
 40
0
 40
0
 40
1
 40
1
 40
1
 40
1
 10
8.382725
 20
23.313280
 30
0.0
 10
8.401982
 20
23.302175
 30
0.0
 10
8.425697
 20
23.302228
 30
0.0
 10
8.444934
 20
23.313280
 30
0.0
  0
SPLINE
  5
2bd
100
AcDbEntity
  8
Ebene_1
 62
7
100
AcDbSpline
 70
8
 71
3
 72
8
 73
4
 74
0
 40
0
 40
0
 40
0
 40
0
 40
1
 40
1
 40
1
 40
1
 10
8.444934
 20
23.313391
 30
0.0
 10
8.464151
 20
23.324549
 30
0.0
 10
8.475949
 20
23.345139
 30
0.0
 10
8.475838
 20
23.367378
 30
0.0
  0
SPLINE
  5
2be
100
AcDbEntity
  8
Ebene_1
 62
7
100
AcDbSpline
 70
8
 71
3
 72
8
 73
4
 74
0
 40
0
 40
0
 40
0
 40
0
 40
1
 40
1
 40
1
 40
1
 10
8.475838
 20
23.367378
 30
0.0
 10
8.475732
 20
23.389586
 30
0.0
 10
8.463759
 20
23.410082
 30
0.0
 10
8.444452
 20
23.421074
 30
0.0
  0
LINE
  5
2bf
100
AcDbEntity
  8
Ebene_1
 62
7
100
AcDbLine
 10
8.444452
 20
23.421074
 30
0.0
 11
8.444452
 21
23.421074
 31
0.0
  0
LINE
  5
2c0
100
AcDbEntity
  8
Ebene_1
 62
7
100
AcDbLine
 10
8.444452
 20
23.421074
 30
0.0
 11
8.444452
 21
23.421074
 31
0.0
  0
SPLINE
  5
2c1
100
AcDbEntity
  8
Ebene_1
 62
7
100
AcDbSpline
 70
8
 71
3
 72
8
 73
4
 74
0
 40
0
 40
0
 40
0
 40
0
 40
1
 40
1
 40
1
 40
1
 10
10.023299
 20
24.340121
 30
0.0
 10
10.004052
 20
24.351145
 30
0.0
 10
9.980378
 20
24.351065
 30
0.0
 10
9.961201
 20
24.339856
 30
0.0
  0
SPLINE
  5
2c2
100
AcDbEntity
  8
Ebene_1
 62
7
100
AcDbSpline
 70
8
 71
3
 72
8
 73
4
 74
0
 40
0
 40
0
 40
0
 40
0
 40
1
 40
1
 40
1
 40
1
 10
9.961201
 20
24.339911
 30
0.0
 10
9.942034
 20
24.328753
 30
0.0
 10
9.930267
 20
24.308202
 30
0.0
 10
9.930347
 20
24.286023
 30
0.0
  0
SPLINE
  5
2c3
100
AcDbEntity
  8
Ebene_1
 62
7
100
AcDbSpline
 70
8
 71
3
 72
8
 73
4
 74
0
 40
0
 40
0
 40
0
 40
0
 40
1
 40
1
 40
1
 40
1
 10
9.930347
 20
24.286023
 30
0.0
 10
9.930427
 20
24.263841
 30
0.0
 10
9.942325
 20
24.243361
 30
0.0
 10
9.961582
 20
24.232347
 30
0.0
  0
SPLINE
  5
2c4
100
AcDbEntity
  8
Ebene_1
 62
7
100
AcDbSpline
 70
8
 71
3
 72
8
 73
4
 74
0
 40
0
 40
0
 40
0
 40
0
 40
1
 40
1
 40
1
 40
1
 10
9.961582
 20
24.232347
 30
0.0
 10
9.980829
 20
24.221322
 30
0.0
 10
10.004514
 20
24.221402
 30
0.0
 10
10.023691
 20
24.232612
 30
0.0
  0
SPLINE
  5
2c5
100
AcDbEntity
  8
Ebene_1
 62
7
100
AcDbSpline
 70
8
 71
3
 72
8
 73
4
 74
0
 40
0
 40
0
 40
0
 40
0
 40
1
 40
1
 40
1
 40
1
 10
10.023691
 20
24.232557
 30
0.0
 10
10.042858
 20
24.243714
 30
0.0
 10
10.054634
 20
24.264276
 30
0.0
 10
10.054534
 20
24.286466
 30
0.0
  0
SPLINE
  5
2c6
100
AcDbEntity
  8
Ebene_1
 62
7
100
AcDbSpline
 70
8
 71
3
 72
8
 73
4
 74
0
 40
0
 40
0
 40
0
 40
0
 40
1
 40
1
 40
1
 40
1
 10
10.054534
 20
24.286466
 30
0.0
 10
10.054481
 20
24.308648
 30
0.0
 10
10.042556
 20
24.329107
 30
0.0
 10
10.023299
 20
24.340121
 30
0.0
  0
LINE
  5
2c7
100
AcDbEntity
  8
Ebene_1
 62
7
100
AcDbLine
 10
10.023299
 20
24.340121
 30
0.0
 11
10.023299
 21
24.340121
 31
0.0
  0
LINE
  5
2c8
100
AcDbEntity
  8
Ebene_1
 62
7
100
AcDbLine
 10
10.023299
 20
24.340121
 30
0.0
 11
10.023299
 21
24.340121
 31
0.0
  0
SPLINE
  5
2c9
100
AcDbEntity
  8
Ebene_1
 62
7
100
AcDbSpline
 70
8
 71
3
 72
8
 73
4
 74
0
 40
0
 40
0
 40
0
 40
0
 40
1
 40
1
 40
1
 40
1
 10
8.437976
 20
25.247983
 30
0.0
 10
8.418730
 20
25.259007
 30
0.0
 10
8.395055
 20
25.258928
 30
0.0
 10
8.375868
 20
25.247718
 30
0.0
  0
SPLINE
  5
2ca
100
AcDbEntity
  8
Ebene_1
 62
7
100
AcDbSpline
 70
8
 71
3
 72
8
 73
4
 74
0
 40
0
 40
0
 40
0
 40
0
 40
1
 40
1
 40
1
 40
1
 10
8.375868
 20
25.247762
 30
0.0
 10
8.356712
 20
25.236605
 30
0.0
 10
8.344944
 20
25.216064
 30
0.0
 10
8.345005
 20
25.193874
 30
0.0
  0
SPLINE
  5
2cb
100
AcDbEntity
  8
Ebene_1
 62
7
100
AcDbSpline
 70
8
 71
3
 72
8
 73
4
 74
0
 40
0
 40
0
 40
0
 40
0
 40
1
 40
1
 40
1
 40
1
 10
8.345005
 20
25.193874
 30
0.0
 10
8.345084
 20
25.171666
 30
0.0
 10
8.357004
 20
25.151213
 30
0.0
 10
8.376259
 20
25.140188
 30
0.0
  0
SPLINE
  5
2cc
100
AcDbEntity
  8
Ebene_1
 62
7
100
AcDbSpline
 70
8
 71
3
 72
8
 73
4
 74
0
 40
0
 40
0
 40
0
 40
0
 40
1
 40
1
 40
1
 40
1
 10
8.376259
 20
25.140188
 30
0.0
 10
8.395505
 20
25.129163
 30
0.0
 10
8.419181
 20
25.129243
 30
0.0
 10
8.438358
 20
25.140453
 30
0.0
  0
SPLINE
  5
2cd
100
AcDbEntity
  8
Ebene_1
 62
7
100
AcDbSpline
 70
8
 71
3
 72
8
 73
4
 74
0
 40
0
 40
0
 40
0
 40
0
 40
1
 40
1
 40
1
 40
1
 10
8.438358
 20
25.140411
 30
0.0
 10
8.457545
 20
25.151569
 30
0.0
 10
8.469302
 20
25.172106
 30
0.0
 10
8.469211
 20
25.194318
 30
0.0
  0
SPLINE
  5
2ce
100
AcDbEntity
  8
Ebene_1
 62
7
100
AcDbSpline
 70
8
 71
3
 72
8
 73
4
 74
0
 40
0
 40
0
 40
0
 40
0
 40
1
 40
1
 40
1
 40
1
 10
8.469211
 20
25.194318
 30
0.0
 10
8.469132
 20
25.216500
 30
0.0
 10
8.457233
 20
25.236950
 30
0.0
 10
8.437976
 20
25.247983
 30
0.0
  0
LINE
  5
2cf
100
AcDbEntity
  8
Ebene_1
 62
7
100
AcDbLine
 10
8.437976
 20
25.247983
 30
0.0
 11
8.437976
 21
25.247983
 31
0.0
  0
LINE
  5
2d0
100
AcDbEntity
  8
Ebene_1
 62
7
100
AcDbLine
 10
8.437976
 20
25.247983
 30
0.0
 11
8.437976
 21
25.247983
 31
0.0
  0
SPLINE
  5
2d1
100
AcDbEntity
  8
Ebene_1
 62
7
100
AcDbSpline
 70
8
 71
3
 72
8
 73
4
 74
0
 40
0
 40
0
 40
0
 40
0
 40
1
 40
1
 40
1
 40
1
 10
7.913849
 20
24.332661
 30
0.0
 10
7.894593
 20
24.343765
 30
0.0
 10
7.870887
 20
24.343712
 30
0.0
 10
7.851660
 20
24.332661
 30
0.0
  0
SPLINE
  5
2d2
100
AcDbEntity
  8
Ebene_1
 62
7
100
AcDbSpline
 70
8
 71
3
 72
8
 73
4
 74
0
 40
0
 40
0
 40
0
 40
0
 40
1
 40
1
 40
1
 40
1
 10
7.851660
 20
24.332552
 30
0.0
 10
7.832444
 20
24.321368
 30
0.0
 10
7.820667
 20
24.300793
 30
0.0
 10
7.820747
 20
24.278584
 30
0.0
  0
SPLINE
  5
2d3
100
AcDbEntity
  8
Ebene_1
 62
7
100
AcDbSpline
 70
8
 71
3
 72
8
 73
4
 74
0
 40
0
 40
0
 40
0
 40
0
 40
1
 40
1
 40
1
 40
1
 10
7.820747
 20
24.278584
 30
0.0
 10
7.820853
 20
24.256349
 30
0.0
 10
7.832805
 20
24.235872
 30
0.0
 10
7.852122
 20
24.224877
 30
0.0
  0
SPLINE
  5
2d4
100
AcDbEntity
  8
Ebene_1
 62
7
100
AcDbSpline
 70
8
 71
3
 72
8
 73
4
 74
0
 40
0
 40
0
 40
0
 40
0
 40
1
 40
1
 40
1
 40
1
 10
7.852122
 20
24.224877
 30
0.0
 10
7.871390
 20
24.213799
 30
0.0
 10
7.895104
 20
24.213826
 30
0.0
 10
7.914311
 20
24.224877
 30
0.0
  0
SPLINE
  5
2d5
100
AcDbEntity
  8
Ebene_1
 62
7
100
AcDbSpline
 70
8
 71
3
 72
8
 73
4
 74
0
 40
0
 40
0
 40
0
 40
0
 40
1
 40
1
 40
1
 40
1
 10
7.914311
 20
24.224996
 30
0.0
 10
7.933528
 20
24.236154
 30
0.0
 10
7.945325
 20
24.256745
 30
0.0
 10
7.945215
 20
24.278964
 30
0.0
  0
SPLINE
  5
2d6
100
AcDbEntity
  8
Ebene_1
 62
7
100
AcDbSpline
 70
8
 71
3
 72
8
 73
4
 74
0
 40
0
 40
0
 40
0
 40
0
 40
1
 40
1
 40
1
 40
1
 10
7.945215
 20
24.278964
 30
0.0
 10
7.945162
 20
24.301173
 30
0.0
 10
7.933157
 20
24.321668
 30
0.0
 10
7.913849
 20
24.332661
 30
0.0
  0
LINE
  5
2d7
100
AcDbEntity
  8
Ebene_1
 62
7
100
AcDbLine
 10
7.913849
 20
24.332661
 30
0.0
 11
7.913849
 21
24.332661
 31
0.0
  0
LINE
  5
2d8
100
AcDbEntity
  8
Ebene_1
 62
7
100
AcDbLine
 10
7.913849
 20
24.332661
 30
0.0
 11
7.913849
 21
24.332661
 31
0.0
  0
SPLINE
  5
2d9
100
AcDbEntity
  8
Ebene_1
 62
7
100
AcDbSpline
 70
8
 71
3
 72
8
 73
4
 74
0
 40
0
 40
0
 40
0
 40
0
 40
1
 40
1
 40
1
 40
1
 10
9.160708
 20
24.671921
 30
0.0
 10
9.021592
 20
24.751601
 30
0.0
 10
8.850517
 20
24.750991
 30
0.0
 10
8.711973
 20
24.670328
 30
0.0
  0
SPLINE
  5
2da
100
AcDbEntity
  8
Ebene_1
 62
7
100
AcDbSpline
 70
8
 71
3
 72
8
 73
4
 74
0
 40
0
 40
0
 40
0
 40
0
 40
1
 40
1
 40
1
 40
1
 10
8.711973
 20
24.670335
 30
0.0
 10
8.573428
 20
24.589687
 30
0.0
 10
8.488408
 20
24.441239
 30
0.0
 10
8.488981
 20
24.280903
 30
0.0
  0
SPLINE
  5
2db
100
AcDbEntity
  8
Ebene_1
 62
7
100
AcDbSpline
 70
8
 71
3
 72
8
 73
4
 74
0
 40
0
 40
0
 40
0
 40
0
 40
1
 40
1
 40
1
 40
1
 10
8.488981
 20
24.280903
 30
0.0
 10
8.489544
 20
24.120597
 30
0.0
 10
8.575597
 20
23.972749
 30
0.0
 10
8.714724
 20
23.893079
 30
0.0
  0
SPLINE
  5
2dc
100
AcDbEntity
  8
Ebene_1
 62
7
100
AcDbSpline
 70
8
 71
3
 72
8
 73
4
 74
0
 40
0
 40
0
 40
0
 40
0
 40
1
 40
1
 40
1
 40
1
 10
8.714724
 20
23.893079
 30
0.0
 10
8.853840
 20
23.813396
 30
0.0
 10
9.024895
 20
23.814020
 30
0.0
 10
9.163459
 20
23.894672
 30
0.0
  0
SPLINE
  5
2dd
100
AcDbEntity
  8
Ebene_1
 62
7
100
AcDbSpline
 70
8
 71
3
 72
8
 73
4
 74
0
 40
0
 40
0
 40
0
 40
0
 40
1
 40
1
 40
1
 40
1
 10
9.163459
 20
23.894676
 30
0.0
 10
9.302023
 20
23.975310
 30
0.0
 10
9.387013
 20
24.123758
 30
0.0
 10
9.386441
 20
24.284097
 30
0.0
  0
SPLINE
  5
2de
100
AcDbEntity
  8
Ebene_1
 62
7
100
AcDbSpline
 70
8
 71
3
 72
8
 73
4
 74
0
 40
0
 40
0
 40
0
 40
0
 40
1
 40
1
 40
1
 40
1
 10
9.386441
 20
24.284097
 30
0.0
 10
9.385888
 20
24.444422
 30
0.0
 10
9.299815
 20
24.592259
 30
0.0
 10
9.160708
 20
24.671921
 30
0.0
  0
LINE
  5
2df
100
AcDbEntity
  8
Ebene_1
 62
7
100
AcDbLine
 10
9.160708
 20
24.671921
 30
0.0
 11
9.160708
 21
24.671921
 31
0.0
  0
LINE
  5
2e0
100
AcDbEntity
  8
Ebene_1
 62
7
100
AcDbLine
 10
9.160708
 20
24.671921
 30
0.0
 11
9.160708
 21
24.671921
 31
0.0
  0
LINE
  5
2e1
100
AcDbEntity
  8
Ebene_1
 62
7
100
AcDbLine
 10
11.949295
 20
0.488623
 30
0.0
 11
24.411395
 21
0.488623
 31
0.0
  0
SPLINE
  5
2e2
100
AcDbEntity
  8
Ebene_1
 62
7
100
AcDbSpline
 70
8
 71
3
 72
8
 73
4
 74
0
 40
0
 40
0
 40
0
 40
0
 40
1
 40
1
 40
1
 40
1
 10
24.466987
 20
0.488623
 30
0.0
 10
24.632941
 20
0.488623
 30
0.0
 10
24.767489
 20
0.623151
 30
0.0
 10
24.767489
 20
0.789132
 30
0.0
  0
LINE
  5
2e3
100
AcDbEntity
  8
Ebene_1
 62
7
100
AcDbLine
 10
24.767489
 20
0.789132
 30
0.0
 11
24.767489
 21
7.074339
 31
0.0
  0
SPLINE
  5
2e4
100
AcDbEntity
  8
Ebene_1
 62
7
100
AcDbSpline
 70
8
 71
3
 72
8
 73
4
 74
0
 40
0
 40
0
 40
0
 40
0
 40
1
 40
1
 40
1
 40
1
 10
24.767489
 20
7.095803
 30
0.0
 10
24.767489
 20
7.261766
 30
0.0
 10
24.632941
 20
7.396299
 30
0.0
 10
24.466987
 20
7.396299
 30
0.0
  0
LINE
  5
2e5
100
AcDbEntity
  8
Ebene_1
 62
7
100
AcDbLine
 10
24.466987
 20
7.396299
 30
0.0
 11
11.949295
 21
7.396299
 31
0.0
  0
SPLINE
  5
2e6
100
AcDbEntity
  8
Ebene_1
 62
7
100
AcDbSpline
 70
8
 71
3
 72
8
 73
4
 74
0
 40
0
 40
0
 40
0
 40
0
 40
1
 40
1
 40
1
 40
1
 10
11.949295
 20
7.396299
 30
0.0
 10
11.783331
 20
7.396299
 30
0.0
 10
11.648802
 20
7.261766
 30
0.0
 10
11.648802
 20
7.095803
 30
0.0
  0
LINE
  5
2e7
100
AcDbEntity
  8
Ebene_1
 62
7
100
AcDbLine
 10
11.648280
 20
7.123193
 30
0.0
 11
11.648280
 21
6.608221
 31
0.0
  0
LINE
  5
2e8
100
AcDbEntity
  8
Ebene_1
 62
7
100
AcDbLine
 10
11.648802
 20
6.580831
 30
0.0
 11
11.648802
 21
0.880384
 31
0.0
  0
SPLINE
  5
2e9
100
AcDbEntity
  8
Ebene_1
 62
7
100
AcDbSpline
 70
8
 71
3
 72
8
 73
4
 74
0
 40
0
 40
0
 40
0
 40
0
 40
1
 40
1
 40
1
 40
1
 10
11.648802
 20
0.789132
 30
0.0
 10
11.648802
 20
0.623151
 30
0.0
 10
11.783331
 20
0.488623
 30
0.0
 10
11.949295
 20
0.488623
 30
0.0
  0
LINE
  5
2ea
100
AcDbEntity
  8
Ebene_1
 62
7
100
AcDbLine
 10
11.949295
 20
0.488623
 30
0.0
 11
11.949295
 21
0.488623
 31
0.0
  0
LINE
  5
2eb
100
AcDbEntity
  8
Ebene_1
 62
7
100
AcDbLine
 10
11.949295
 20
0.488623
 30
0.0
 11
11.949295
 21
0.488623
 31
0.0
  0
LINE
  5
2ec
100
AcDbEntity
  8
Ebene_1
 62
7
100
AcDbLine
 10
17.187091
 20
1.483314
 30
0.0
 11
17.187091
 21
5.672478
 31
0.0
  0
LINE
  5
2ed
100
AcDbEntity
  8
Ebene_1
 62
7
100
AcDbLine
 10
17.187091
 20
5.672478
 30
0.0
 11
19.229181
 21
5.672478
 31
0.0
  0
LINE
  5
2ee
100
AcDbEntity
  8
Ebene_1
 62
7
100
AcDbLine
 10
19.229181
 20
5.672478
 30
0.0
 11
19.229181
 21
1.483314
 31
0.0
  0
LINE
  5
2ef
100
AcDbEntity
  8
Ebene_1
 62
7
100
AcDbLine
 10
19.229181
 20
1.483314
 30
0.0
 11
17.187091
 21
1.483314
 31
0.0
  0
LINE
  5
2f0
100
AcDbEntity
  8
Ebene_1
 62
7
100
AcDbLine
 10
18.847926
 20
5.848262
 30
0.0
 11
18.529914
 21
5.848262
 31
0.0
  0
LINE
  5
2f1
100
AcDbEntity
  8
Ebene_1
 62
7
100
AcDbLine
 10
18.529914
 20
5.848262
 30
0.0
 11
18.529914
 21
6.166304
 31
0.0
  0
LINE
  5
2f2
100
AcDbEntity
  8
Ebene_1
 62
7
100
AcDbLine
 10
18.529914
 20
6.166304
 30
0.0
 11
18.847926
 21
6.166304
 31
0.0
  0
LINE
  5
2f3
100
AcDbEntity
  8
Ebene_1
 62
7
100
AcDbLine
 10
18.847926
 20
6.166304
 30
0.0
 11
18.847926
 21
5.848262
 31
0.0
  0
LINE
  5
2f4
100
AcDbEntity
  8
Ebene_1
 62
7
100
AcDbLine
 10
17.886359
 20
5.848262
 30
0.0
 11
17.568346
 21
5.848262
 31
0.0
  0
LINE
  5
2f5
100
AcDbEntity
  8
Ebene_1
 62
7
100
AcDbLine
 10
17.568346
 20
5.848262
 30
0.0
 11
17.568346
 21
6.166304
 31
0.0
  0
LINE
  5
2f6
100
AcDbEntity
  8
Ebene_1
 62
7
100
AcDbLine
 10
17.568346
 20
6.166304
 30
0.0
 11
17.886359
 21
6.166304
 31
0.0
  0
LINE
  5
2f7
100
AcDbEntity
  8
Ebene_1
 62
7
100
AcDbLine
 10
17.886359
 20
6.166304
 30
0.0
 11
17.886359
 21
5.848262
 31
0.0
  0
LINE
  5
2f8
100
AcDbEntity
  8
Ebene_1
 62
7
100
AcDbLine
 10
21.357316
 20
2.364225
 30
0.0
 11
21.068842
 21
2.364225
 31
0.0
  0
SPLINE
  5
2f9
100
AcDbEntity
  8
Ebene_1
 62
7
100
AcDbSpline
 70
8
 71
3
 72
8
 73
4
 74
0
 40
0
 40
0
 40
0
 40
0
 40
1
 40
1
 40
1
 40
1
 10
21.068842
 20
2.364225
 30
0.0
 10
20.958199
 20
2.364225
 30
0.0
 10
20.868520
 20
2.453911
 30
0.0
 10
20.868520
 20
2.564555
 30
0.0
  0
LINE
  5
2fa
100
AcDbEntity
  8
Ebene_1
 62
7
100
AcDbLine
 10
20.868520
 20
2.564555
 30
0.0
 11
20.868520
 21
5.320379
 31
0.0
  0
SPLINE
  5
2fb
100
AcDbEntity
  8
Ebene_1
 62
7
100
AcDbSpline
 70
8
 71
3
 72
8
 73
4
 74
0
 40
0
 40
0
 40
0
 40
0
 40
1
 40
1
 40
1
 40
1
 10
20.868520
 20
5.320379
 30
0.0
 10
20.868520
 20
5.373510
 30
0.0
 10
20.889615
 20
5.424463
 30
0.0
 10
20.927185
 20
5.462026
 30
0.0
  0
SPLINE
  5
2fc
100
AcDbEntity
  8
Ebene_1
 62
7
100
AcDbSpline
 70
8
 71
3
 72
8
 73
4
 74
0
 40
0
 40
0
 40
0
 40
0
 40
1
 40
1
 40
1
 40
1
 10
20.927185
 20
5.462026
 30
0.0
 10
20.964755
 20
5.499590
 30
0.0
 10
21.015709
 20
5.520709
 30
0.0
 10
21.068842
 20
5.520709
 30
0.0
  0
LINE
  5
2fd
100
AcDbEntity
  8
Ebene_1
 62
7
100
AcDbLine
 10
21.068842
 20
5.520709
 30
0.0
 11
21.357316
 21
5.520709
 31
0.0
  0
SPLINE
  5
2fe
100
AcDbEntity
  8
Ebene_1
 62
7
100
AcDbSpline
 70
8
 71
3
 72
8
 73
4
 74
0
 40
0
 40
0
 40
0
 40
0
 40
1
 40
1
 40
1
 40
1
 10
21.357316
 20
5.520709
 30
0.0
 10
21.410448
 20
5.520709
 30
0.0
 10
21.461392
 20
5.499457
 30
0.0
 10
21.498962
 20
5.462026
 30
0.0
  0
SPLINE
  5
2ff
100
AcDbEntity
  8
Ebene_1
 62
7
100
AcDbSpline
 70
8
 71
3
 72
8
 73
4
 74
0
 40
0
 40
0
 40
0
 40
0
 40
1
 40
1
 40
1
 40
1
 10
21.498962
 20
5.462026
 30
0.0
 10
21.536533
 20
5.424463
 30
0.0
 10
21.557647
 20
5.373510
 30
0.0
 10
21.557647
 20
5.320379
 30
0.0
  0
LINE
  5
300
100
AcDbEntity
  8
Ebene_1
 62
7
100
AcDbLine
 10
21.557647
 20
5.320379
 30
0.0
 11
21.557647
 21
2.564555
 31
0.0
  0
SPLINE
  5
301
100
AcDbEntity
  8
Ebene_1
 62
7
100
AcDbSpline
 70
8
 71
3
 72
8
 73
4
 74
0
 40
0
 40
0
 40
0
 40
0
 40
1
 40
1
 40
1
 40
1
 10
21.557647
 20
2.564555
 30
0.0
 10
21.557637
 20
2.453911
 30
0.0
 10
21.467959
 20
2.364225
 30
0.0
 10
21.357316
 20
2.364225
 30
0.0
  0
LINE
  5
302
100
AcDbEntity
  8
Ebene_1
 62
7
100
AcDbLine
 10
21.357316
 20
2.364225
 30
0.0
 11
21.357316
 21
2.364225
 31
0.0
  0
LINE
  5
303
100
AcDbEntity
  8
Ebene_1
 62
7
100
AcDbLine
 10
21.357316
 20
2.364225
 30
0.0
 11
21.357316
 21
2.364225
 31
0.0
  0
LINE
  5
304
100
AcDbEntity
  8
Ebene_1
 62
7
100
AcDbLine
 10
15.347441
 20
2.364225
 30
0.0
 11
15.058966
 21
2.364225
 31
0.0
  0
SPLINE
  5
305
100
AcDbEntity
  8
Ebene_1
 62
7
100
AcDbSpline
 70
8
 71
3
 72
8
 73
4
 74
0
 40
0
 40
0
 40
0
 40
0
 40
1
 40
1
 40
1
 40
1
 10
15.058966
 20
2.364225
 30
0.0
 10
15.005824
 20
2.364225
 30
0.0
 10
14.954870
 20
2.385212
 30
0.0
 10
14.917310
 20
2.422907
 30
0.0
  0
SPLINE
  5
306
100
AcDbEntity
  8
Ebene_1
 62
7
100
AcDbSpline
 70
8
 71
3
 72
8
 73
4
 74
0
 40
0
 40
0
 40
0
 40
0
 40
1
 40
1
 40
1
 40
1
 10
14.917310
 20
2.422907
 30
0.0
 10
14.879739
 20
2.460473
 30
0.0
 10
14.858635
 20
2.511424
 30
0.0
 10
14.858625
 20
2.564555
 30
0.0
  0
LINE
  5
307
100
AcDbEntity
  8
Ebene_1
 62
7
100
AcDbLine
 10
14.858625
 20
2.564555
 30
0.0
 11
14.858625
 21
5.320379
 31
0.0
  0
SPLINE
  5
308
100
AcDbEntity
  8
Ebene_1
 62
7
100
AcDbSpline
 70
8
 71
3
 72
8
 73
4
 74
0
 40
0
 40
0
 40
0
 40
0
 40
1
 40
1
 40
1
 40
1
 10
14.858625
 20
5.320379
 30
0.0
 10
14.858625
 20
5.373510
 30
0.0
 10
14.879739
 20
5.424463
 30
0.0
 10
14.917310
 20
5.462026
 30
0.0
  0
SPLINE
  5
309
100
AcDbEntity
  8
Ebene_1
 62
7
100
AcDbSpline
 70
8
 71
3
 72
8
 73
4
 74
0
 40
0
 40
0
 40
0
 40
0
 40
1
 40
1
 40
1
 40
1
 10
14.917310
 20
5.462026
 30
0.0
 10
14.954870
 20
5.499590
 30
0.0
 10
15.005824
 20
5.520709
 30
0.0
 10
15.058966
 20
5.520709
 30
0.0
  0
LINE
  5
30a
100
AcDbEntity
  8
Ebene_1
 62
7
100
AcDbLine
 10
15.058966
 20
5.520709
 30
0.0
 11
15.347441
 21
5.520709
 31
0.0
  0
SPLINE
  5
30b
100
AcDbEntity
  8
Ebene_1
 62
7
100
AcDbSpline
 70
8
 71
3
 72
8
 73
4
 74
0
 40
0
 40
0
 40
0
 40
0
 40
1
 40
1
 40
1
 40
1
 10
15.347441
 20
5.520709
 30
0.0
 10
15.400563
 20
5.520709
 30
0.0
 10
15.451517
 20
5.499457
 30
0.0
 10
15.489087
 20
5.462026
 30
0.0
  0
SPLINE
  5
30c
100
AcDbEntity
  8
Ebene_1
 62
7
100
AcDbSpline
 70
8
 71
3
 72
8
 73
4
 74
0
 40
0
 40
0
 40
0
 40
0
 40
1
 40
1
 40
1
 40
1
 10
15.489087
 20
5.462026
 30
0.0
 10
15.526658
 20
5.424463
 30
0.0
 10
15.547772
 20
5.373510
 30
0.0
 10
15.547772
 20
5.320379
 30
0.0
  0
LINE
  5
30d
100
AcDbEntity
  8
Ebene_1
 62
7
100
AcDbLine
 10
15.547772
 20
5.320379
 30
0.0
 11
15.547772
 21
2.564555
 31
0.0
  0
SPLINE
  5
30e
100
AcDbEntity
  8
Ebene_1
 62
7
100
AcDbSpline
 70
8
 71
3
 72
8
 73
4
 74
0
 40
0
 40
0
 40
0
 40
0
 40
1
 40
1
 40
1
 40
1
 10
15.547772
 20
2.564555
 30
0.0
 10
15.547772
 20
2.453911
 30
0.0
 10
15.458063
 20
2.364225
 30
0.0
 10
15.347441
 20
2.364225
 30
0.0
  0
LINE
  5
30f
100
AcDbEntity
  8
Ebene_1
 62
7
100
AcDbLine
 10
15.347441
 20
2.364225
 30
0.0
 11
15.347441
 21
2.364225
 31
0.0
  0
LINE
  5
310
100
AcDbEntity
  8
Ebene_1
 62
7
100
AcDbLine
 10
15.347441
 20
2.364225
 30
0.0
 11
15.347441
 21
2.364225
 31
0.0
  0
LINE
  5
311
100
AcDbEntity
  8
Ebene_1
 62
7
100
AcDbLine
 10
22.198431
 20
6.550441
 30
0.0
 11
14.217831
 21
6.550441
 31
0.0
  0
LINE
  5
312
100
AcDbEntity
  8
Ebene_1
 62
7
100
AcDbLine
 10
14.217831
 20
6.550441
 30
0.0
 11
14.217831
 21
6.922464
 31
0.0
  0
LINE
  5
313
100
AcDbEntity
  8
Ebene_1
 62
7
100
AcDbLine
 10
14.217831
 20
6.922464
 30
0.0
 11
22.198431
 21
6.922464
 31
0.0
  0
LINE
  5
314
100
AcDbEntity
  8
Ebene_1
 62
7
100
AcDbLine
 10
22.198431
 20
6.922464
 30
0.0
 11
22.198431
 21
6.550441
 31
0.0
  0
LINE
  5
315
100
AcDbEntity
  8
Ebene_1
 62
7
100
AcDbLine
 10
22.198431
 20
0.962524
 30
0.0
 11
14.217831
 21
0.962524
 31
0.0
  0
LINE
  5
316
100
AcDbEntity
  8
Ebene_1
 62
7
100
AcDbLine
 10
14.217831
 20
0.962524
 30
0.0
 11
14.217831
 21
1.334546
 31
0.0
  0
LINE
  5
317
100
AcDbEntity
  8
Ebene_1
 62
7
100
AcDbLine
 10
14.217831
 20
1.334546
 30
0.0
 11
22.198431
 21
1.334546
 31
0.0
  0
LINE
  5
318
100
AcDbEntity
  8
Ebene_1
 62
7
100
AcDbLine
 10
22.198431
 20
1.334546
 30
0.0
 11
22.198431
 21
0.962524
 31
0.0
  0
SPLINE
  5
319
100
AcDbEntity
  8
Ebene_1
 62
7
100
AcDbSpline
 70
8
 71
3
 72
8
 73
4
 74
0
 40
0
 40
0
 40
0
 40
0
 40
1
 40
1
 40
1
 40
1
 10
22.363763
 20
27.584348
 30
0.0
 10
23.746736
 20
27.584348
 30
0.0
 10
24.879759
 20
26.430081
 30
0.0
 10
24.867821
 20
25.006338
 30
0.0
  0
LINE
  5
31a
100
AcDbEntity
  8
Ebene_1
 62
7
100
AcDbLine
 10
24.867821
 20
25.006338
 30
0.0
 11
24.887229
 21
20.432612
 31
0.0
  0
LINE
  5
31b
100
AcDbEntity
  8
Ebene_1
 62
7
100
AcDbLine
 10
24.887229
 20
20.432612
 30
0.0
 11
23.009325
 21
17.414919
 31
0.0
  0
LINE
  5
31c
100
AcDbEntity
  8
Ebene_1
 62
7
100
AcDbLine
 10
22.945179
 20
17.311834
 30
0.0
 11
21.629876
 21
15.198199
 31
0.0
  0
LINE
  5
31d
100
AcDbEntity
  8
Ebene_1
 62
7
100
AcDbLine
 10
21.629876
 20
15.198199
 30
0.0
 11
14.457711
 21
15.231895
 31
0.0
  0
LINE
  5
31e
100
AcDbEntity
  8
Ebene_1
 62
7
100
AcDbLine
 10
14.457711
 20
15.231895
 30
0.0
 11
11.134314
 21
20.432612
 31
0.0
  0
LINE
  5
31f
100
AcDbEntity
  8
Ebene_1
 62
7
100
AcDbLine
 10
11.134314
 20
20.432612
 30
0.0
 11
11.152005
 21
25.006338
 31
0.0
  0
SPLINE
  5
320
100
AcDbEntity
  8
Ebene_1
 62
7
100
AcDbSpline
 70
8
 71
3
 72
8
 73
4
 74
0
 40
0
 40
0
 40
0
 40
0
 40
1
 40
1
 40
1
 40
1
 10
11.152005
 20
25.006338
 30
0.0
 10
11.157507
 20
26.430123
 30
0.0
 10
12.273151
 20
27.584348
 30
0.0
 10
13.656124
 20
27.584348
 30
0.0
  0
LINE
  5
321
100
AcDbEntity
  8
Ebene_1
 62
7
100
AcDbLine
 10
13.760632
 20
27.584348
 30
0.0
 11
22.363763
 21
27.584348
 31
0.0
  0
LINE
  5
322
100
AcDbEntity
  8
Ebene_1
 62
7
100
AcDbLine
 10
13.535451
 20
26.729168
 30
0.0
 11
22.486092
 21
26.729168
 31
0.0
  0
LINE
  5
323
100
AcDbEntity
  8
Ebene_1
 62
7
100
AcDbLine
 10
22.486092
 20
26.729168
 30
0.0
 11
22.486092
 21
27.129783
 31
0.0
  0
LINE
  5
324
100
AcDbEntity
  8
Ebene_1
 62
7
100
AcDbLine
 10
22.486092
 20
27.129783
 30
0.0
 11
13.535451
 21
27.129783
 31
0.0
  0
LINE
  5
325
100
AcDbEntity
  8
Ebene_1
 62
7
100
AcDbLine
 10
13.535451
 20
27.129783
 30
0.0
 11
13.535451
 21
26.729168
 31
0.0
  0
LINE
  5
326
100
AcDbEntity
  8
Ebene_1
 62
7
100
AcDbLine
 10
13.535431
 20
19.973069
 30
0.0
 11
22.486092
 21
19.973069
 31
0.0
  0
LINE
  5
327
100
AcDbEntity
  8
Ebene_1
 62
7
100
AcDbLine
 10
22.486092
 20
19.973069
 30
0.0
 11
22.486092
 21
20.373703
 31
0.0
  0
LINE
  5
328
100
AcDbEntity
  8
Ebene_1
 62
7
100
AcDbLine
 10
22.486092
 20
20.373703
 30
0.0
 11
13.535431
 21
20.373703
 31
0.0
  0
LINE
  5
329
100
AcDbEntity
  8
Ebene_1
 62
7
100
AcDbLine
 10
13.535431
 20
20.373703
 30
0.0
 11
13.535431
 21
19.973069
 31
0.0
  0
LINE
  5
32a
100
AcDbEntity
  8
Ebene_1
 62
7
100
AcDbLine
 10
11.526533
 20
20.442632
 30
0.0
 11
11.526533
 21
25.424505
 31
0.0
  0
LINE
  5
32b
100
AcDbEntity
  8
Ebene_1
 62
7
100
AcDbLine
 10
11.526533
 20
25.424505
 30
0.0
 11
11.927146
 21
25.424505
 31
0.0
  0
LINE
  5
32c
100
AcDbEntity
  8
Ebene_1
 62
7
100
AcDbLine
 10
11.927146
 20
25.424505
 30
0.0
 11
11.927146
 21
20.442632
 31
0.0
  0
LINE
  5
32d
100
AcDbEntity
  8
Ebene_1
 62
7
100
AcDbLine
 10
11.927146
 20
20.442632
 30
0.0
 11
11.526533
 21
20.442632
 31
0.0
  0
LINE
  5
32e
100
AcDbEntity
  8
Ebene_1
 62
7
100
AcDbLine
 10
24.118855
 20
20.442632
 30
0.0
 11
24.118855
 21
25.424505
 31
0.0
  0
LINE
  5
32f
100
AcDbEntity
  8
Ebene_1
 62
7
100
AcDbLine
 10
24.118855
 20
25.424505
 30
0.0
 11
24.487188
 21
25.424505
 31
0.0
  0
LINE
  5
330
100
AcDbEntity
  8
Ebene_1
 62
7
100
AcDbLine
 10
24.487188
 20
25.424505
 30
0.0
 11
24.487188
 21
20.442632
 31
0.0
  0
LINE
  5
331
100
AcDbEntity
  8
Ebene_1
 62
7
100
AcDbLine
 10
24.487188
 20
20.442632
 30
0.0
 11
24.118855
 21
20.442632
 31
0.0
  0
LINE
  5
332
100
AcDbEntity
  8
Ebene_1
 62
7
100
AcDbLine
 10
15.048374
 20
15.706407
 30
0.0
 11
20.973169
 21
15.706407
 31
0.0
  0
LINE
  5
333
100
AcDbEntity
  8
Ebene_1
 62
7
100
AcDbLine
 10
20.973169
 20
15.706407
 30
0.0
 11
20.973169
 21
16.107044
 31
0.0
  0
LINE
  5
334
100
AcDbEntity
  8
Ebene_1
 62
7
100
AcDbLine
 10
20.973169
 20
16.107044
 30
0.0
 11
15.048374
 21
16.107044
 31
0.0
  0
LINE
  5
335
100
AcDbEntity
  8
Ebene_1
 62
7
100
AcDbLine
 10
15.048374
 20
16.107044
 30
0.0
 11
15.048374
 21
15.706407
 31
0.0
  0
LINE
  5
336
100
AcDbEntity
  8
Ebene_1
 62
7
100
AcDbLine
 10
21.687557
 20
16.912231
 30
0.0
 11
21.687557
 21
19.113200
 31
0.0
  0
LINE
  5
337
100
AcDbEntity
  8
Ebene_1
 62
7
100
AcDbLine
 10
21.687557
 20
19.113200
 30
0.0
 11
21.286934
 21
19.113200
 31
0.0
  0
LINE
  5
338
100
AcDbEntity
  8
Ebene_1
 62
7
100
AcDbLine
 10
21.286934
 20
19.113200
 30
0.0
 11
21.286934
 21
16.912231
 31
0.0
  0
LINE
  5
339
100
AcDbEntity
  8
Ebene_1
 62
7
100
AcDbLine
 10
21.286934
 20
16.912231
 30
0.0
 11
21.687557
 21
16.912231
 31
0.0
  0
LINE
  5
33a
100
AcDbEntity
  8
Ebene_1
 62
7
100
AcDbLine
 10
14.744619
 20
16.912231
 30
0.0
 11
14.744619
 21
19.113200
 31
0.0
  0
LINE
  5
33b
100
AcDbEntity
  8
Ebene_1
 62
7
100
AcDbLine
 10
14.744619
 20
19.113200
 30
0.0
 11
14.344006
 21
19.113200
 31
0.0
  0
LINE
  5
33c
100
AcDbEntity
  8
Ebene_1
 62
7
100
AcDbLine
 10
14.344006
 20
19.113200
 30
0.0
 11
14.344006
 21
16.912231
 31
0.0
  0
LINE
  5
33d
100
AcDbEntity
  8
Ebene_1
 62
7
100
AcDbLine
 10
14.344006
 20
16.912231
 30
0.0
 11
14.744619
 21
16.912231
 31
0.0
  0
LINE
  5
33e
100
AcDbEntity
  8
Ebene_1
 62
7
100
AcDbLine
 10
11.521513
 20
7.521263
 30
0.0
 11
14.391697
 21
12.200999
 31
0.0
  0
LINE
  5
33f
100
AcDbEntity
  8
Ebene_1
 62
7
100
AcDbLine
 10
14.391697
 20
12.200999
 30
0.0
 11
18.010766
 21
12.184024
 31
0.0
  0
LINE
  5
340
100
AcDbEntity
  8
Ebene_1
 62
7
100
AcDbLine
 10
18.113879
 20
12.184021
 30
0.0
 11
21.629876
 21
12.200996
 31
0.0
  0
LINE
  5
341
100
AcDbEntity
  8
Ebene_1
 62
7
100
AcDbLine
 10
21.629876
 20
12.200999
 30
0.0
 11
24.454447
 21
7.520982
 31
0.0
  0
SPLINE
  5
342
100
AcDbEntity
  8
Ebene_1
 62
7
100
AcDbSpline
 70
8
 71
3
 72
8
 73
4
 74
0
 40
0
 40
0
 40
0
 40
0
 40
1
 40
1
 40
1
 40
1
 10
24.501345
 20
7.443280
 30
0.0
 10
11.473682
 20
7.443280
 30
0.0
 10
24.501345
 20
7.443280
 30
0.0
 10
11.473682
 20
7.443280
 30
0.0
  0
LINE
  5
343
100
AcDbEntity
  8
Ebene_1
 62
7
100
AcDbLine
 10
11.473682
 20
7.443280
 30
0.0
 11
11.473682
 21
7.443280
 31
0.0
  0
LINE
  5
344
100
AcDbEntity
  8
Ebene_1
 62
7
100
AcDbLine
 10
11.473682
 20
7.443280
 30
0.0
 11
11.473682
 21
7.443280
 31
0.0
  0
LINE
  5
345
100
AcDbEntity
  8
Ebene_1
 62
7
100
AcDbLine
 10
20.973380
 20
11.697809
 30
0.0
 11
15.048183
 21
11.697809
 31
0.0
  0
LINE
  5
346
100
AcDbEntity
  8
Ebene_1
 62
7
100
AcDbLine
 10
15.048183
 20
11.697809
 30
0.0
 11
15.048183
 21
11.297175
 31
0.0
  0
LINE
  5
347
100
AcDbEntity
  8
Ebene_1
 62
7
100
AcDbLine
 10
15.048183
 20
11.297175
 30
0.0
 11
20.973380
 21
11.297175
 31
0.0
  0
LINE
  5
348
100
AcDbEntity
  8
Ebene_1
 62
7
100
AcDbLine
 10
20.973380
 20
11.297175
 30
0.0
 11
20.973380
 21
11.697809
 31
0.0
  0
LINE
  5
349
100
AcDbEntity
  8
Ebene_1
 62
7
100
AcDbLine
 10
14.739629
 20
8.285807
 30
0.0
 11
14.739629
 21
10.487177
 31
0.0
  0
LINE
  5
34a
100
AcDbEntity
  8
Ebene_1
 62
7
100
AcDbLine
 10
14.739629
 20
10.487177
 30
0.0
 11
14.339006
 21
10.487177
 31
0.0
  0
LINE
  5
34b
100
AcDbEntity
  8
Ebene_1
 62
7
100
AcDbLine
 10
14.339006
 20
10.487177
 30
0.0
 11
14.339006
 21
8.285807
 31
0.0
  0
LINE
  5
34c
100
AcDbEntity
  8
Ebene_1
 62
7
100
AcDbLine
 10
14.339006
 20
8.285807
 30
0.0
 11
14.739629
 21
8.285807
 31
0.0
  0
LINE
  5
34d
100
AcDbEntity
  8
Ebene_1
 62
7
100
AcDbLine
 10
21.682547
 20
8.285807
 30
0.0
 11
21.682547
 21
10.487177
 31
0.0
  0
LINE
  5
34e
100
AcDbEntity
  8
Ebene_1
 62
7
100
AcDbLine
 10
21.682547
 20
10.487177
 30
0.0
 11
21.281944
 21
10.487177
 31
0.0
  0
LINE
  5
34f
100
AcDbEntity
  8
Ebene_1
 62
7
100
AcDbLine
 10
21.281944
 20
10.487177
 30
0.0
 11
21.281944
 21
8.285807
 31
0.0
  0
LINE
  5
350
100
AcDbEntity
  8
Ebene_1
 62
7
100
AcDbLine
 10
21.281944
 20
8.285807
 30
0.0
 11
21.682547
 21
8.285807
 31
0.0
  0
LINE
  5
351
100
AcDbEntity
  8
Ebene_1
 62
7
100
AcDbLine
 10
29.360836
 20
27.555973
 30
0.0
 11
25.264679
 21
27.555973
 31
0.0
  0
SPLINE
  5
352
100
AcDbEntity
  8
Ebene_1
 62
7
100
AcDbSpline
 70
8
 71
3
 72
8
 73
4
 74
0
 40
0
 40
0
 40
0
 40
0
 40
1
 40
1
 40
1
 40
1
 10
25.264679
 20
27.555973
 30
0.0
 10
25.098705
 20
27.555973
 30
0.0
 10
24.964166
 20
27.421440
 30
0.0
 10
24.964166
 20
27.255470
 30
0.0
  0
LINE
  5
353
100
AcDbEntity
  8
Ebene_1
 62
7
100
AcDbLine
 10
24.964166
 20
27.080414
 30
0.0
 11
24.964166
 21
20.948803
 31
0.0
  0
SPLINE
  5
354
100
AcDbEntity
  8
Ebene_1
 62
7
100
AcDbSpline
 70
8
 71
3
 72
8
 73
4
 74
0
 40
0
 40
0
 40
0
 40
0
 40
1
 40
1
 40
1
 40
1
 10
24.964166
 20
20.948803
 30
0.0
 10
24.964166
 20
20.869091
 30
0.0
 10
24.995833
 20
20.792654
 30
0.0
 10
25.052189
 20
20.736306
 30
0.0
  0
SPLINE
  5
355
100
AcDbEntity
  8
Ebene_1
 62
7
100
AcDbSpline
 70
8
 71
3
 72
8
 73
4
 74
0
 40
0
 40
0
 40
0
 40
0
 40
1
 40
1
 40
1
 40
1
 10
25.052189
 20
20.736306
 30
0.0
 10
25.108534
 20
20.679950
 30
0.0
 10
25.184970
 20
20.648281
 30
0.0
 10
25.264679
 20
20.648281
 30
0.0
  0
LINE
  5
356
100
AcDbEntity
  8
Ebene_1
 62
7
100
AcDbLine
 10
25.264679
 20
20.648281
 30
0.0
 11
29.360836
 21
20.648281
 31
0.0
  0
SPLINE
  5
357
100
AcDbEntity
  8
Ebene_1
 62
7
100
AcDbSpline
 70
8
 71
3
 72
8
 73
4
 74
0
 40
0
 40
0
 40
0
 40
0
 40
1
 40
1
 40
1
 40
1
 10
29.360836
 20
20.648281
 30
0.0
 10
29.440526
 20
20.648281
 30
0.0
 10
29.516962
 20
20.679950
 30
0.0
 10
29.573307
 20
20.736306
 30
0.0
  0
SPLINE
  5
358
100
AcDbEntity
  8
Ebene_1
 62
7
100
AcDbSpline
 70
8
 71
3
 72
8
 73
4
 74
0
 40
0
 40
0
 40
0
 40
0
 40
1
 40
1
 40
1
 40
1
 10
29.573307
 20
20.736306
 30
0.0
 10
29.629674
 20
20.792654
 30
0.0
 10
29.661329
 20
20.869091
 30
0.0
 10
29.661329
 20
20.948803
 30
0.0
  0
LINE
  5
359
100
AcDbEntity
  8
Ebene_1
 62
7
100
AcDbLine
 10
29.661329
 20
21.129743
 30
0.0
 11
29.661329
 21
27.255470
 31
0.0
  0
SPLINE
  5
35a
100
AcDbEntity
  8
Ebene_1
 62
7
100
AcDbSpline
 70
8
 71
3
 72
8
 73
4
 74
0
 40
0
 40
0
 40
0
 40
0
 40
1
 40
1
 40
1
 40
1
 10
29.661329
 20
27.255470
 30
0.0
 10
29.661329
 20
27.421440
 30
0.0
 10
29.526791
 20
27.555973
 30
0.0
 10
29.360836
 20
27.555973
 30
0.0
  0
LINE
  5
35b
100
AcDbEntity
  8
Ebene_1
 62
7
100
AcDbLine
 10
29.360836
 20
27.555973
 30
0.0
 11
29.360836
 21
27.555973
 31
0.0
  0
LINE
  5
35c
100
AcDbEntity
  8
Ebene_1
 62
7
100
AcDbLine
 10
29.360836
 20
27.555973
 30
0.0
 11
29.360836
 21
27.555973
 31
0.0
  0
LINE
  5
35d
100
AcDbEntity
  8
Ebene_1
 62
7
100
AcDbLine
 10
27.897251
 20
26.561261
 30
0.0
 11
27.897251
 21
22.372115
 31
0.0
  0
LINE
  5
35e
100
AcDbEntity
  8
Ebene_1
 62
7
100
AcDbLine
 10
27.897251
 20
22.372115
 30
0.0
 11
25.855160
 21
22.372115
 31
0.0
  0
LINE
  5
35f
100
AcDbEntity
  8
Ebene_1
 62
7
100
AcDbLine
 10
25.855160
 20
22.372115
 30
0.0
 11
25.855160
 21
26.561261
 31
0.0
  0
LINE
  5
360
100
AcDbEntity
  8
Ebene_1
 62
7
100
AcDbLine
 10
25.855160
 20
26.561261
 30
0.0
 11
27.897251
 21
26.561261
 31
0.0
  0
LINE
  5
361
100
AcDbEntity
  8
Ebene_1
 62
7
100
AcDbLine
 10
26.236416
 20
21.878303
 30
0.0
 11
26.236416
 21
22.196334
 31
0.0
  0
LINE
  5
362
100
AcDbEntity
  8
Ebene_1
 62
7
100
AcDbLine
 10
26.236416
 20
22.196334
 30
0.0
 11
26.554438
 21
22.196334
 31
0.0
  0
LINE
  5
363
100
AcDbEntity
  8
Ebene_1
 62
7
100
AcDbLine
 10
26.554438
 20
22.196334
 30
0.0
 11
26.554438
 21
21.878303
 31
0.0
  0
LINE
  5
364
100
AcDbEntity
  8
Ebene_1
 62
7
100
AcDbLine
 10
26.554438
 20
21.878303
 30
0.0
 11
26.236416
 21
21.878303
 31
0.0
  0
LINE
  5
365
100
AcDbEntity
  8
Ebene_1
 62
7
100
AcDbLine
 10
25.783958
 20
21.487527
 30
0.0
 11
28.841560
 21
21.487527
 31
0.0
  0
LINE
  5
366
100
AcDbEntity
  8
Ebene_1
 62
7
100
AcDbLine
 10
28.841560
 20
21.487527
 30
0.0
 11
28.841560
 21
21.128779
 31
0.0
  0
LINE
  5
367
100
AcDbEntity
  8
Ebene_1
 62
7
100
AcDbLine
 10
28.841560
 20
21.128779
 30
0.0
 11
25.783958
 21
21.128779
 31
0.0
  0
LINE
  5
368
100
AcDbEntity
  8
Ebene_1
 62
7
100
AcDbLine
 10
25.783958
 20
21.128779
 30
0.0
 11
25.783958
 21
21.487527
 31
0.0
  0
LINE
  5
369
100
AcDbEntity
  8
Ebene_1
 62
7
100
AcDbLine
 10
25.783958
 20
27.075444
 30
0.0
 11
28.841560
 21
27.075444
 31
0.0
  0
LINE
  5
36a
100
AcDbEntity
  8
Ebene_1
 62
7
100
AcDbLine
 10
28.841560
 20
27.075444
 30
0.0
 11
28.841560
 21
26.716698
 31
0.0
  0
LINE
  5
36b
100
AcDbEntity
  8
Ebene_1
 62
7
100
AcDbLine
 10
28.841560
 20
26.716698
 30
0.0
 11
25.783958
 21
26.716698
 31
0.0
  0
LINE
  5
36c
100
AcDbEntity
  8
Ebene_1
 62
7
100
AcDbLine
 10
25.783958
 20
26.716698
 30
0.0
 11
25.783958
 21
27.075444
 31
0.0
  0
LINE
  5
36d
100
AcDbEntity
  8
Ebene_1
 62
7
100
AcDbLine
 10
0.974616
 20
24.671127
 30
0.0
 11
6.752252
 21
24.671127
 31
0.0
  0
SPLINE
  5
36e
100
AcDbEntity
  8
Ebene_1
 62
7
100
AcDbSpline
 70
8
 71
3
 72
8
 73
4
 74
0
 40
0
 40
0
 40
0
 40
0
 40
1
 40
1
 40
1
 40
1
 10
6.752252
 20
24.671127
 30
0.0
 10
6.805375
 20
24.671127
 30
0.0
 10
6.856329
 20
24.692219
 30
0.0
 10
6.893899
 20
24.729794
 30
0.0
  0
SPLINE
  5
36f
100
AcDbEntity
  8
Ebene_1
 62
7
100
AcDbSpline
 70
8
 71
3
 72
8
 73
4
 74
0
 40
0
 40
0
 40
0
 40
0
 40
1
 40
1
 40
1
 40
1
 10
6.893899
 20
24.729794
 30
0.0
 10
6.931469
 20
24.767355
 30
0.0
 10
6.952584
 20
24.818320
 30
0.0
 10
6.952584
 20
24.871454
 30
0.0
  0
LINE
  5
370
100
AcDbEntity
  8
Ebene_1
 62
7
100
AcDbLine
 10
6.952584
 20
24.871443
 30
0.0
 11
6.952584
 21
25.827009
 31
0.0
  0
LINE
  5
371
100
AcDbEntity
  8
Ebene_1
 62
7
100
AcDbLine
 10
6.952584
 20
25.890235
 30
0.0
 11
6.952584
 21
27.469907
 31
0.0
  0
SPLINE
  5
372
100
AcDbEntity
  8
Ebene_1
 62
7
100
AcDbSpline
 70
8
 71
3
 72
8
 73
4
 74
0
 40
0
 40
0
 40
0
 40
0
 40
1
 40
1
 40
1
 40
1
 10
6.952584
 20
27.469907
 30
0.0
 10
6.952584
 20
27.523051
 30
0.0
 10
6.931470
 20
27.574006
 30
0.0
 10
6.893899
 20
27.611578
 30
0.0
  0
SPLINE
  5
373
100
AcDbEntity
  8
Ebene_1
 62
7
100
AcDbSpline
 70
8
 71
3
 72
8
 73
4
 74
0
 40
0
 40
0
 40
0
 40
0
 40
1
 40
1
 40
1
 40
1
 10
6.893899
 20
27.611578
 30
0.0
 10
6.856329
 20
27.649139
 30
0.0
 10
6.805375
 20
27.670245
 30
0.0
 10
6.752252
 20
27.670245
 30
0.0
  0
LINE
  5
374
100
AcDbEntity
  8
Ebene_1
 62
7
100
AcDbLine
 10
6.752252
 20
27.670245
 30
0.0
 11
0.974616
 21
27.670245
 31
0.0
  0
SPLINE
  5
375
100
AcDbEntity
  8
Ebene_1
 62
7
100
AcDbSpline
 70
8
 71
3
 72
8
 73
4
 74
0
 40
0
 40
0
 40
0
 40
0
 40
1
 40
1
 40
1
 40
1
 10
0.974616
 20
27.670245
 30
0.0
 10
0.921483
 20
27.670245
 30
0.0
 10
0.870530
 20
27.649125
 30
0.0
 10
0.832959
 20
27.611578
 30
0.0
  0
SPLINE
  5
376
100
AcDbEntity
  8
Ebene_1
 62
7
100
AcDbSpline
 70
8
 71
3
 72
8
 73
4
 74
0
 40
0
 40
0
 40
0
 40
0
 40
1
 40
1
 40
1
 40
1
 10
0.832959
 20
27.611578
 30
0.0
 10
0.795389
 20
27.574006
 30
0.0
 10
0.774295
 20
27.523051
 30
0.0
 10
0.774295
 20
27.469907
 30
0.0
  0
LINE
  5
377
100
AcDbEntity
  8
Ebene_1
 62
7
100
AcDbLine
 10
0.774295
 20
27.406057
 30
0.0
 11
0.774295
 21
24.871454
 31
0.0
  0
SPLINE
  5
378
100
AcDbEntity
  8
Ebene_1
 62
7
100
AcDbSpline
 70
8
 71
3
 72
8
 73
4
 74
0
 40
0
 40
0
 40
0
 40
0
 40
1
 40
1
 40
1
 40
1
 10
0.774295
 20
24.871454
 30
0.0
 10
0.774295
 20
24.818320
 30
0.0
 10
0.795390
 20
24.767355
 30
0.0
 10
0.832959
 20
24.729794
 30
0.0
  0
SPLINE
  5
379
100
AcDbEntity
  8
Ebene_1
 62
7
100
AcDbSpline
 70
8
 71
3
 72
8
 73
4
 74
0
 40
0
 40
0
 40
0
 40
0
 40
1
 40
1
 40
1
 40
1
 10
0.832959
 20
24.729794
 30
0.0
 10
0.870519
 20
24.692222
 30
0.0
 10
0.921483
 20
24.671127
 30
0.0
 10
0.974606
 20
24.671127
 30
0.0
  0
LINE
  5
37a
100
AcDbEntity
  8
Ebene_1
 62
7
100
AcDbLine
 10
0.938793
 20
24.571044
 30
0.0
 11
0.938793
 21
24.571044
 31
0.0
  0
LINE
  5
37b
100
AcDbEntity
  8
Ebene_1
 62
7
100
AcDbLine
 10
0.938793
 20
24.571044
 30
0.0
 11
0.938793
 21
24.571044
 31
0.0
  0
LINE
  5
37c
100
AcDbEntity
  8
Ebene_1
 62
7
100
AcDbLine
 10
1.768934
 20
27.191763
 30
0.0
 11
5.957944
 21
27.191763
 31
0.0
  0
LINE
  5
37d
100
AcDbEntity
  8
Ebene_1
 62
7
100
AcDbLine
 10
5.957944
 20
27.191763
 30
0.0
 11
5.957944
 21
25.149605
 31
0.0
  0
LINE
  5
37e
100
AcDbEntity
  8
Ebene_1
 62
7
100
AcDbLine
 10
5.957944
 20
25.149605
 30
0.0
 11
1.768934
 21
25.149605
 31
0.0
  0
LINE
  5
37f
100
AcDbEntity
  8
Ebene_1
 62
7
100
AcDbLine
 10
1.768934
 20
25.149605
 30
0.0
 11
1.768934
 21
27.191763
 31
0.0
  0
LINE
  5
380
100
AcDbEntity
  8
Ebene_1
 62
7
100
AcDbLine
 10
1.254757
 20
27.168479
 30
0.0
 11
1.613492
 21
27.168479
 31
0.0
  0
LINE
  5
381
100
AcDbEntity
  8
Ebene_1
 62
7
100
AcDbLine
 10
1.613492
 20
27.168479
 30
0.0
 11
1.613492
 21
25.172872
 31
0.0
  0
LINE
  5
382
100
AcDbEntity
  8
Ebene_1
 62
7
100
AcDbLine
 10
1.613492
 20
25.172872
 30
0.0
 11
1.254757
 21
25.172872
 31
0.0
  0
LINE
  5
383
100
AcDbEntity
  8
Ebene_1
 62
7
100
AcDbLine
 10
1.254757
 20
25.172872
 30
0.0
 11
1.254757
 21
27.168479
 31
0.0
  0
LINE
  5
384
100
AcDbEntity
  8
Ebene_1
 62
7
100
AcDbLine
 10
6.113356
 20
27.168479
 30
0.0
 11
6.472101
 21
27.168479
 31
0.0
  0
LINE
  5
385
100
AcDbEntity
  8
Ebene_1
 62
7
100
AcDbLine
 10
6.472101
 20
27.168479
 30
0.0
 11
6.472101
 21
25.172872
 31
0.0
  0
LINE
  5
386
100
AcDbEntity
  8
Ebene_1
 62
7
100
AcDbLine
 10
6.472101
 20
25.172872
 30
0.0
 11
6.113356
 21
25.172872
 31
0.0
  0
LINE
  5
387
100
AcDbEntity
  8
Ebene_1
 62
7
100
AcDbLine
 10
6.113356
 20
25.172872
 30
0.0
 11
6.113356
 21
27.168479
 31
0.0
  0
LINE
  5
388
100
AcDbEntity
  8
Ebene_1
 62
7
100
AcDbLine
 10
15.686467
 20
13.082968
 30
0.0
 11
15.686467
 21
13.836747
 31
0.0
  0
SPLINE
  5
389
100
AcDbEntity
  8
Ebene_1
 62
7
100
AcDbSpline
 70
8
 71
3
 72
8
 73
4
 74
0
 40
0
 40
0
 40
0
 40
0
 40
1
 40
1
 40
1
 40
1
 10
15.686467
 20
13.836747
 30
0.0
 10
15.686467
 20
13.947385
 30
0.0
 10
15.776146
 20
14.037075
 30
0.0
 10
15.886789
 20
14.037075
 30
0.0
  0
LINE
  5
38a
100
AcDbEntity
  8
Ebene_1
 62
7
100
AcDbLine
 10
15.886789
 20
14.037075
 30
0.0
 11
16.087120
 21
14.037075
 31
0.0
  0
SPLINE
  5
38b
100
AcDbEntity
  8
Ebene_1
 62
7
100
AcDbSpline
 70
8
 71
3
 72
8
 73
4
 74
0
 40
0
 40
0
 40
0
 40
0
 40
1
 40
1
 40
1
 40
1
 10
16.087120
 20
14.037075
 30
0.0
 10
16.197753
 20
14.037075
 30
0.0
 10
16.287441
 20
13.947385
 30
0.0
 10
16.287452
 20
13.836747
 30
0.0
  0
LINE
  5
38c
100
AcDbEntity
  8
Ebene_1
 62
7
100
AcDbLine
 10
16.287452
 20
13.836747
 30
0.0
 11
16.287452
 21
13.082968
 31
0.0
  0
SPLINE
  5
38d
100
AcDbEntity
  8
Ebene_1
 62
7
100
AcDbSpline
 70
8
 71
3
 72
8
 73
4
 74
0
 40
0
 40
0
 40
0
 40
0
 40
1
 40
1
 40
1
 40
1
 10
16.287452
 20
13.082968
 30
0.0
 10
16.287441
 20
12.972352
 30
0.0
 10
16.197753
 20
12.882648
 30
0.0
 10
16.087120
 20
12.882648
 30
0.0
  0
LINE
  5
38e
100
AcDbEntity
  8
Ebene_1
 62
7
100
AcDbLine
 10
16.087120
 20
12.882648
 30
0.0
 11
15.886789
 21
12.882648
 31
0.0
  0
SPLINE
  5
38f
100
AcDbEntity
  8
Ebene_1
 62
7
100
AcDbSpline
 70
8
 71
3
 72
8
 73
4
 74
0
 40
0
 40
0
 40
0
 40
0
 40
1
 40
1
 40
1
 40
1
 10
15.886789
 20
12.882648
 30
0.0
 10
15.776146
 20
12.882648
 30
0.0
 10
15.686467
 20
12.972352
 30
0.0
 10
15.686467
 20
13.082968
 30
0.0
  0
LINE
  5
390
100
AcDbEntity
  8
Ebene_1
 62
7
100
AcDbLine
 10
15.686467
 20
13.082968
 30
0.0
 11
15.686467
 21
13.082968
 31
0.0
  0
LINE
  5
391
100
AcDbEntity
  8
Ebene_1
 62
7
100
AcDbLine
 10
15.686467
 20
13.082968
 30
0.0
 11
15.686467
 21
13.082968
 31
0.0
  0
LINE
  5
392
100
AcDbEntity
  8
Ebene_1
 62
7
100
AcDbLine
 10
14.927832
 20
12.210709
 30
0.0
 11
17.722312
 21
12.210709
 31
0.0
  0
LINE
  5
393
100
AcDbEntity
  8
Ebene_1
 62
7
100
AcDbLine
 10
17.722312
 20
12.248934
 30
0.0
 11
17.722312
 21
12.711548
 31
0.0
  0
LINE
  5
394
100
AcDbEntity
  8
Ebene_1
 62
7
100
AcDbLine
 10
17.722312
 20
12.711548
 30
0.0
 11
18.040335
 21
12.711548
 31
0.0
  0
LINE
  5
395
100
AcDbEntity
  8
Ebene_1
 62
7
100
AcDbLine
 10
18.040335
 20
12.711548
 30
0.0
 11
18.040335
 21
14.032065
 31
0.0
  0
LINE
  5
396
100
AcDbEntity
  8
Ebene_1
 62
7
100
AcDbLine
 10
18.040335
 20
14.032065
 30
0.0
 11
17.451940
 21
14.032065
 31
0.0
  0
LINE
  5
397
100
AcDbEntity
  8
Ebene_1
 62
7
100
AcDbLine
 10
17.451940
 20
14.032065
 30
0.0
 11
17.451940
 21
13.781645
 31
0.0
  0
LINE
  5
398
100
AcDbEntity
  8
Ebene_1
 62
7
100
AcDbLine
 10
17.451940
 20
13.781645
 30
0.0
 11
17.126408
 21
13.781645
 31
0.0
  0
LINE
  5
399
100
AcDbEntity
  8
Ebene_1
 62
7
100
AcDbLine
 10
17.126408
 20
13.781645
 30
0.0
 11
17.126408
 21
14.032065
 31
0.0
  0
LINE
  5
39a
100
AcDbEntity
  8
Ebene_1
 62
7
100
AcDbLine
 10
17.126408
 20
14.032065
 30
0.0
 11
16.926077
 21
14.032065
 31
0.0
  0
LINE
  5
39b
100
AcDbEntity
  8
Ebene_1
 62
7
100
AcDbLine
 10
16.926077
 20
14.032065
 30
0.0
 11
16.926077
 21
14.350099
 31
0.0
  0
LINE
  5
39c
100
AcDbEntity
  8
Ebene_1
 62
7
100
AcDbLine
 10
16.926077
 20
14.350099
 30
0.0
 11
17.126408
 21
14.350099
 31
0.0
  0
LINE
  5
39d
100
AcDbEntity
  8
Ebene_1
 62
7
100
AcDbLine
 10
17.126408
 20
14.350099
 30
0.0
 11
17.126408
 21
14.600529
 31
0.0
  0
LINE
  5
39e
100
AcDbEntity
  8
Ebene_1
 62
7
100
AcDbLine
 10
17.126408
 20
14.600529
 30
0.0
 11
17.451940
 21
14.600529
 31
0.0
  0
LINE
  5
39f
100
AcDbEntity
  8
Ebene_1
 62
7
100
AcDbLine
 10
17.451940
 20
14.600529
 30
0.0
 11
17.451940
 21
14.350099
 31
0.0
  0
LINE
  5
3a0
100
AcDbEntity
  8
Ebene_1
 62
7
100
AcDbLine
 10
17.451940
 20
14.350099
 30
0.0
 11
18.040335
 21
14.350099
 31
0.0
  0
LINE
  5
3a1
100
AcDbEntity
  8
Ebene_1
 62
7
100
AcDbLine
 10
18.040335
 20
14.350099
 30
0.0
 11
18.040335
 21
14.709014
 31
0.0
  0
LINE
  5
3a2
100
AcDbEntity
  8
Ebene_1
 62
7
100
AcDbLine
 10
18.040335
 20
14.709014
 30
0.0
 11
17.722312
 21
14.709014
 31
0.0
  0
LINE
  5
3a3
100
AcDbEntity
  8
Ebene_1
 62
7
100
AcDbLine
 10
17.722312
 20
14.709014
 30
0.0
 11
17.722312
 21
15.209845
 31
0.0
  0
LINE
  5
3a4
100
AcDbEntity
  8
Ebene_1
 62
7
100
AcDbLine
 10
17.722312
 20
15.209845
 30
0.0
 11
14.927832
 21
15.209845
 31
0.0
  0
LINE
  5
3a5
100
AcDbEntity
  8
Ebene_1
 62
7
100
AcDbLine
 10
14.927832
 20
15.209845
 30
0.0
 11
14.927832
 21
14.709014
 31
0.0
  0
LINE
  5
3a6
100
AcDbEntity
  8
Ebene_1
 62
7
100
AcDbLine
 10
14.927832
 20
14.709014
 30
0.0
 11
14.609799
 21
14.709014
 31
0.0
  0
LINE
  5
3a7
100
AcDbEntity
  8
Ebene_1
 62
7
100
AcDbLine
 10
14.609799
 20
14.709014
 30
0.0
 11
14.609799
 21
14.350107
 31
0.0
  0
LINE
  5
3a8
100
AcDbEntity
  8
Ebene_1
 62
7
100
AcDbLine
 10
14.609799
 20
14.350107
 30
0.0
 11
15.184750
 21
14.350107
 31
0.0
  0
LINE
  5
3a9
100
AcDbEntity
  8
Ebene_1
 62
7
100
AcDbLine
 10
15.184750
 20
14.350107
 30
0.0
 11
15.184750
 21
14.600529
 31
0.0
  0
LINE
  5
3aa
100
AcDbEntity
  8
Ebene_1
 62
7
100
AcDbLine
 10
15.184750
 20
14.600529
 30
0.0
 11
15.510282
 21
14.600529
 31
0.0
  0
LINE
  5
3ab
100
AcDbEntity
  8
Ebene_1
 62
7
100
AcDbLine
 10
15.510282
 20
14.600529
 30
0.0
 11
15.510282
 21
14.350107
 31
0.0
  0
LINE
  5
3ac
100
AcDbEntity
  8
Ebene_1
 62
7
100
AcDbLine
 10
15.510282
 20
14.350107
 30
0.0
 11
15.610443
 21
14.350107
 31
0.0
  0
LINE
  5
3ad
100
AcDbEntity
  8
Ebene_1
 62
7
100
AcDbLine
 10
15.610443
 20
14.350107
 30
0.0
 11
15.610443
 21
14.032086
 31
0.0
  0
LINE
  5
3ae
100
AcDbEntity
  8
Ebene_1
 62
7
100
AcDbLine
 10
15.610443
 20
14.032086
 30
0.0
 11
15.510282
 21
14.032086
 31
0.0
  0
LINE
  5
3af
100
AcDbEntity
  8
Ebene_1
 62
7
100
AcDbLine
 10
15.510282
 20
14.032086
 30
0.0
 11
15.510282
 21
13.781664
 31
0.0
  0
LINE
  5
3b0
100
AcDbEntity
  8
Ebene_1
 62
7
100
AcDbLine
 10
15.510282
 20
13.781664
 30
0.0
 11
15.184750
 21
13.781664
 31
0.0
  0
LINE
  5
3b1
100
AcDbEntity
  8
Ebene_1
 62
7
100
AcDbLine
 10
15.184750
 20
13.781664
 30
0.0
 11
15.184750
 21
14.032086
 31
0.0
  0
LINE
  5
3b2
100
AcDbEntity
  8
Ebene_1
 62
7
100
AcDbLine
 10
15.184750
 20
14.032086
 30
0.0
 11
14.609799
 21
14.032086
 31
0.0
  0
LINE
  5
3b3
100
AcDbEntity
  8
Ebene_1
 62
7
100
AcDbLine
 10
14.609799
 20
14.032086
 30
0.0
 11
14.609799
 21
12.745124
 31
0.0
  0
LINE
  5
3b4
100
AcDbEntity
  8
Ebene_1
 62
7
100
AcDbLine
 10
14.609799
 20
12.711548
 30
0.0
 11
14.927832
 21
12.711548
 31
0.0
  0
LINE
  5
3b5
100
AcDbEntity
  8
Ebene_1
 62
7
100
AcDbLine
 10
14.927832
 20
12.711548
 30
0.0
 11
14.927832
 21
12.210709
 31
0.0
  0
LINE
  5
3b6
100
AcDbEntity
  8
Ebene_1
 62
7
100
AcDbLine
 10
0.361463
 20
29.759501
 30
0.0
 11
29.879502
 21
29.759501
 31
0.0
  0
LINE
  5
3b7
100
AcDbEntity
  8
Ebene_1
 62
7
100
AcDbLine
 10
29.879502
 20
29.759501
 30
0.0
 11
29.879502
 21
0.240500
 31
0.0
  0
LINE
  5
3b8
100
AcDbEntity
  8
Ebene_1
 62
7
100
AcDbLine
 10
29.879502
 20
0.240500
 30
0.0
 11
0.361463
 21
0.240500
 31
0.0
  0
LINE
  5
3b9
100
AcDbEntity
  8
Ebene_1
 62
7
100
AcDbLine
 10
0.120499
 20
0.240500
 30
0.0
 11
0.120499
 21
29.759501
 31
0.0
  0
LINE
  5
3ba
100
AcDbEntity
  8
Ebene_1
 62
7
100
AcDbLine
 10
10.435609
 20
6.538832
 30
0.0
 11
10.435609
 21
5.968391
 31
0.0
  0
LINE
  5
3bb
100
AcDbEntity
  8
Ebene_1
 62
7
100
AcDbLine
 10
10.416773
 20
5.968391
 30
0.0
 11
10.700770
 21
5.968391
 31
0.0
  0
LINE
  5
3bc
100
AcDbEntity
  8
Ebene_1
 62
7
100
AcDbLine
 10
10.683521
 20
5.995780
 30
0.0
 11
10.683521
 21
5.619772
 31
0.0
  0
LINE
  5
3bd
100
AcDbEntity
  8
Ebene_1
 62
7
100
AcDbLine
 10
10.700258
 20
5.644903
 30
0.0
 11
10.420950
 21
5.644903
 31
0.0
  0
LINE
  5
3be
100
AcDbEntity
  8
Ebene_1
 62
7
100
AcDbLine
 10
10.434564
 20
5.660577
 30
0.0
 11
10.435610
 21
5.529317
 31
0.0
  0
LINE
  5
3bf
100
AcDbEntity
  8
Ebene_1
 62
7
100
AcDbLine
 10
10.452356
 20
5.544990
 30
0.0
 11
10.102828
 21
5.544990
 31
0.0
  0
LINE
  5
3c0
100
AcDbEntity
  8
Ebene_1
 62
7
100
AcDbLine
 10
10.120087
 20
5.526155
 30
0.0
 11
10.118520
 21
5.661108
 31
0.0
  0
LINE
  5
3c1
100
AcDbEntity
  8
Ebene_1
 62
7
100
AcDbLine
 10
10.120087
 20
5.645408
 30
0.0
 11
9.871653
 21
5.645408
 31
0.0
  0
LINE
  5
3c2
100
AcDbEntity
  8
Ebene_1
 62
7
100
AcDbLine
 10
9.866432
 20
5.619613
 30
0.0
 11
9.866432
 21
5.995594
 31
0.0
  0
LINE
  5
3c3
100
AcDbEntity
  8
Ebene_1
 62
7
100
AcDbLine
 10
9.849173
 20
5.967860
 30
0.0
 11
10.135257
 21
5.967860
 31
0.0
  0
LINE
  5
3c4
100
AcDbEntity
  8
Ebene_1
 62
7
100
AcDbLine
 10
10.120087
 20
5.951123
 30
0.0
 11
10.120087
 21
6.538832
 31
0.0
  0
LINE
  5
3c5
100
AcDbEntity
  8
Ebene_1
 62
7
100
AcDbLine
 10
26.854891
 20
6.543640
 30
0.0
 11
26.854891
 21
5.973199
 31
0.0
  0
LINE
  5
3c6
100
AcDbEntity
  8
Ebene_1
 62
7
100
AcDbLine
 10
3.781346
 20
13.928406
 30
0.0
 11
3.782383
 21
14.059685
 31
0.0
  0
LINE
  5
3c7
100
AcDbEntity
  8
Ebene_1
 62
7
100
AcDbLine
 10
3.466867
 20
14.062830
 30
0.0
 11
3.465301
 21
13.927885
 31
0.0
  0
LINE
  5
3c8
100
AcDbEntity
  8
Ebene_1
 62
7
100
AcDbLine
 10
9.373780
 20
7.432758
 30
0.0
 11
9.094483
 21
7.433821
 31
0.0
  0
LINE
  5
3c9
100
AcDbEntity
  8
Ebene_1
 62
7
100
AcDbLine
 10
9.922647
 20
0.851931
 30
0.0
 11
9.922647
 21
1.422372
 31
0.0
  0
LINE
  5
3ca
100
AcDbEntity
  8
Ebene_1
 62
7
100
AcDbLine
 10
9.903811
 20
1.422372
 30
0.0
 11
10.187807
 21
1.422372
 31
0.0
  0
LINE
  5
3cb
100
AcDbEntity
  8
Ebene_1
 62
7
100
AcDbLine
 10
10.170538
 20
1.395009
 30
0.0
 11
10.170538
 21
1.770990
 31
0.0
  0
LINE
  5
3cc
100
AcDbEntity
  8
Ebene_1
 62
7
100
AcDbLine
 10
10.187295
 20
1.745886
 30
0.0
 11
9.907988
 21
1.745886
 31
0.0
  0
LINE
  5
3cd
100
AcDbEntity
  8
Ebene_1
 62
7
100
AcDbLine
 10
9.921582
 20
1.730186
 30
0.0
 11
9.922627
 21
1.861475
 31
0.0
  0
LINE
  5
3ce
100
AcDbEntity
  8
Ebene_1
 62
7
100
AcDbLine
 10
9.939373
 20
1.845772
 30
0.0
 11
9.589855
 21
1.845772
 31
0.0
  0
LINE
  5
3cf
100
AcDbEntity
  8
Ebene_1
 62
7
100
AcDbLine
 10
9.607124
 20
1.864607
 30
0.0
 11
9.605550
 21
1.729683
 31
0.0
  0
LINE
  5
3d0
100
AcDbEntity
  8
Ebene_1
 62
7
100
AcDbLine
 10
9.607124
 20
1.745354
 30
0.0
 11
9.358690
 21
1.745354
 31
0.0
  0
LINE
  5
3d1
100
AcDbEntity
  8
Ebene_1
 62
7
100
AcDbLine
 10
9.353449
 20
1.771151
 30
0.0
 11
9.353449
 21
1.395170
 31
0.0
  0
LINE
  5
3d2
100
AcDbEntity
  8
Ebene_1
 62
7
100
AcDbLine
 10
9.336200
 20
1.422904
 30
0.0
 11
9.622285
 21
1.422904
 31
0.0
  0
LINE
  5
3d3
100
AcDbEntity
  8
Ebene_1
 62
7
100
AcDbLine
 10
9.607124
 20
1.439665
 30
0.0
 11
9.607124
 21
0.851931
 31
0.0
  0
LINE
  5
3d4
100
AcDbEntity
  8
Ebene_1
 62
7
100
AcDbLine
 10
27.229409
 20
7.412254
 30
0.0
 11
27.230440
 21
7.543533
 31
0.0
  0
LINE
  5
3d5
100
AcDbEntity
  8
Ebene_1
 62
7
100
AcDbLine
 10
26.914930
 20
7.546675
 30
0.0
 11
26.913369
 21
7.411731
 31
0.0
  0
LINE
  5
3d6
100
AcDbEntity
  8
Ebene_1
 62
7
100
AcDbLine
 10
17.128446
 20
14.614765
 30
0.0
 11
17.127409
 21
14.335459
 31
0.0
  0
LINE
  5
3d7
100
AcDbEntity
  8
Ebene_1
 62
7
100
AcDbLine
 10
17.103175
 20
13.780901
 30
0.0
 11
17.479139
 21
13.780901
 31
0.0
  0
LINE
  5
3d8
100
AcDbEntity
  8
Ebene_1
 62
7
100
AcDbLine
 10
17.451429
 20
13.763642
 30
0.0
 11
17.451934
 21
14.049757
 31
0.0
  0
LINE
  5
3d9
100
AcDbEntity
  8
Ebene_1
 62
7
100
AcDbLine
 10
21.452888
 20
14.350099
 30
0.0
 11
20.882476
 21
14.350099
 31
0.0
  0
LINE
  5
3da
100
AcDbEntity
  8
Ebene_1
 62
7
100
AcDbLine
 10
20.882476
 20
14.331261
 30
0.0
 11
20.881441
 21
14.615289
 31
0.0
  0
LINE
  5
3db
100
AcDbEntity
  8
Ebene_1
 62
7
100
AcDbLine
 10
20.909845
 20
14.598018
 30
0.0
 11
20.533881
 21
14.598018
 31
0.0
  0
LINE
  5
3dc
100
AcDbEntity
  8
Ebene_1
 62
7
100
AcDbLine
 10
20.558982
 20
14.614765
 30
0.0
 11
20.557945
 21
14.335459
 31
0.0
  0
LINE
  5
3dd
100
AcDbEntity
  8
Ebene_1
 62
7
100
AcDbLine
 10
20.574674
 20
14.349052
 30
0.0
 11
20.443389
 21
14.350116
 31
0.0
  0
LINE
  5
3de
100
AcDbEntity
  8
Ebene_1
 62
7
100
AcDbLine
 10
20.459082
 20
14.366846
 30
0.0
 11
20.460119
 21
14.017326
 31
0.0
  0
LINE
  5
3df
100
AcDbEntity
  8
Ebene_1
 62
7
100
AcDbLine
 10
20.440247
 20
14.034586
 30
0.0
 11
20.575207
 21
14.032993
 31
0.0
  0
LINE
  5
3e0
100
AcDbEntity
  8
Ebene_1
 62
7
100
AcDbLine
 10
20.559504
 20
14.034586
 30
0.0
 11
20.559504
 21
13.786132
 31
0.0
  0
LINE
  5
3e1
100
AcDbEntity
  8
Ebene_1
 62
7
100
AcDbLine
 10
20.533701
 20
13.780901
 30
0.0
 11
20.909665
 21
13.780901
 31
0.0
  0
LINE
  5
3e2
100
AcDbEntity
  8
Ebene_1
 62
7
100
AcDbLine
 10
20.881954
 20
13.763642
 30
0.0
 11
20.882459
 21
14.049757
 31
0.0
  0
LINE
  5
3e3
100
AcDbEntity
  8
Ebene_1
 62
7
100
AcDbLine
 10
20.865217
 20
14.034586
 30
0.0
 11
21.452888
 21
14.034586
 31
0.0
  0
SPLINE
  5
3e4
100
AcDbEntity
  8
Ebene_1
 62
7
100
AcDbSpline
 70
8
 71
3
 72
8
 73
4
 74
0
 40
0
 40
0
 40
0
 40
0
 40
1
 40
1
 40
1
 40
1
 10
8.593384
 20
27.895472
 30
0.0
 10
8.580693
 20
27.895499
 30
0.0
 10
8.568953
 20
27.882880
 30
0.0
 10
8.562608
 20
27.862398
 30
0.0
  0
SPLINE
  5
3e5
100
AcDbEntity
  8
Ebene_1
 62
7
100
AcDbSpline
 70
8
 71
3
 72
8
 73
4
 74
0
 40
0
 40
0
 40
0
 40
0
 40
1
 40
1
 40
1
 40
1
 10
8.562608
 20
27.862398
 30
0.0
 10
8.556262
 20
27.841943
 30
0.0
 10
8.556262
 20
27.816714
 30
0.0
 10
8.562608
 20
27.796242
 30
0.0
  0
SPLINE
  5
3e6
100
AcDbEntity
  8
Ebene_1
 62
7
100
AcDbSpline
 70
8
 71
3
 72
8
 73
4
 74
0
 40
0
 40
0
 40
0
 40
0
 40
1
 40
1
 40
1
 40
1
 10
8.562608
 20
27.796242
 30
0.0
 10
8.568953
 20
27.775787
 30
0.0
 10
8.580693
 20
27.763158
 30
0.0
 10
8.593384
 20
27.763168
 30
0.0
  0
SPLINE
  5
3e7
100
AcDbEntity
  8
Ebene_1
 62
7
100
AcDbSpline
 70
8
 71
3
 72
8
 73
4
 74
0
 40
0
 40
0
 40
0
 40
0
 40
1
 40
1
 40
1
 40
1
 10
8.593384
 20
27.763168
 30
0.0
 10
8.606090
 20
27.763158
 30
0.0
 10
8.617815
 20
27.775787
 30
0.0
 10
8.624160
 20
27.796242
 30
0.0
  0
SPLINE
  5
3e8
100
AcDbEntity
  8
Ebene_1
 62
7
100
AcDbSpline
 70
8
 71
3
 72
8
 73
4
 74
0
 40
0
 40
0
 40
0
 40
0
 40
1
 40
1
 40
1
 40
1
 10
8.624160
 20
27.796242
 30
0.0
 10
8.630523
 20
27.816725
 30
0.0
 10
8.630523
 20
27.841946
 30
0.0
 10
8.624160
 20
27.862398
 30
0.0
  0
SPLINE
  5
3e9
100
AcDbEntity
  8
Ebene_1
 62
7
100
AcDbSpline
 70
8
 71
3
 72
8
 73
4
 74
0
 40
0
 40
0
 40
0
 40
0
 40
1
 40
1
 40
1
 40
1
 10
8.624160
 20
27.862398
 30
0.0
 10
8.617815
 20
27.882880
 30
0.0
 10
8.606092
 20
27.895502
 30
0.0
 10
8.593384
 20
27.895472
 30
0.0
  0
LINE
  5
3ea
100
AcDbEntity
  8
Ebene_1
 62
7
100
AcDbLine
 10
8.593384
 20
27.895472
 30
0.0
 11
8.593384
 21
27.895472
 31
0.0
  0
LINE
  5
3eb
100
AcDbEntity
  8
Ebene_1
 62
7
100
AcDbLine
 10
8.593384
 20
27.895472
 30
0.0
 11
8.593384
 21
27.895472
 31
0.0
  0
SPLINE
  5
3ec
100
AcDbEntity
  8
Ebene_1
 62
7
100
AcDbSpline
 70
8
 71
3
 72
8
 73
4
 74
0
 40
0
 40
0
 40
0
 40
0
 40
1
 40
1
 40
1
 40
1
 10
11.008713
 20
27.895472
 30
0.0
 10
10.996014
 20
27.895499
 30
0.0
 10
10.984282
 20
27.882880
 30
0.0
 10
10.977937
 20
27.862398
 30
0.0
  0
SPLINE
  5
3ed
100
AcDbEntity
  8
Ebene_1
 62
7
100
AcDbSpline
 70
8
 71
3
 72
8
 73
4
 74
0
 40
0
 40
0
 40
0
 40
0
 40
1
 40
1
 40
1
 40
1
 10
10.977937
 20
27.862398
 30
0.0
 10
10.971575
 20
27.841943
 30
0.0
 10
10.971575
 20
27.816714
 30
0.0
 10
10.977937
 20
27.796242
 30
0.0
  0
SPLINE
  5
3ee
100
AcDbEntity
  8
Ebene_1
 62
7
100
AcDbSpline
 70
8
 71
3
 72
8
 73
4
 74
0
 40
0
 40
0
 40
0
 40
0
 40
1
 40
1
 40
1
 40
1
 10
10.977937
 20
27.796242
 30
0.0
 10
10.984282
 20
27.775787
 30
0.0
 10
10.996014
 20
27.763158
 30
0.0
 10
11.008713
 20
27.763168
 30
0.0
  0
SPLINE
  5
3ef
100
AcDbEntity
  8
Ebene_1
 62
7
100
AcDbSpline
 70
8
 71
3
 72
8
 73
4
 74
0
 40
0
 40
0
 40
0
 40
0
 40
1
 40
1
 40
1
 40
1
 10
11.008713
 20
27.763168
 30
0.0
 10
11.021404
 20
27.763158
 30
0.0
 10
11.033136
 20
27.775787
 30
0.0
 10
11.039481
 20
27.796242
 30
0.0
  0
SPLINE
  5
3f0
100
AcDbEntity
  8
Ebene_1
 62
7
100
AcDbSpline
 70
8
 71
3
 72
8
 73
4
 74
0
 40
0
 40
0
 40
0
 40
0
 40
1
 40
1
 40
1
 40
1
 10
11.039481
 20
27.796242
 30
0.0
 10
11.045843
 20
27.816725
 30
0.0
 10
11.045843
 20
27.841946
 30
0.0
 10
11.039481
 20
27.862398
 30
0.0
  0
SPLINE
  5
3f1
100
AcDbEntity
  8
Ebene_1
 62
7
100
AcDbSpline
 70
8
 71
3
 72
8
 73
4
 74
0
 40
0
 40
0
 40
0
 40
0
 40
1
 40
1
 40
1
 40
1
 10
11.039481
 20
27.862398
 30
0.0
 10
11.033136
 20
27.882880
 30
0.0
 10
11.021404
 20
27.895502
 30
0.0
 10
11.008713
 20
27.895472
 30
0.0
  0
LINE
  5
3f2
100
AcDbEntity
  8
Ebene_1
 62
7
100
AcDbLine
 10
11.008713
 20
27.895472
 30
0.0
 11
11.008713
 21
27.895472
 31
0.0
  0
LINE
  5
3f3
100
AcDbEntity
  8
Ebene_1
 62
7
100
AcDbLine
 10
11.008713
 20
27.895472
 30
0.0
 11
11.008713
 21
27.895472
 31
0.0
  0
LINE
  5
3f4
100
AcDbEntity
  8
Ebene_1
 62
7
100
AcDbLine
 10
7.164411
 20
27.332983
 30
0.0
 11
8.301540
 21
26.432030
 31
0.0
  0
LINE
  5
3f5
100
AcDbEntity
  8
Ebene_1
 62
7
100
AcDbLine
 10
8.400607
 20
26.432030
 30
0.0
 11
8.802364
 21
26.432030
 31
0.0
  0
LINE
  5
3f6
100
AcDbEntity
  8
Ebene_1
 62
7
100
AcDbLine
 10
8.802364
 20
26.432030
 30
0.0
 11
8.802364
 21
26.113996
 31
0.0
  0
LINE
  5
3f7
100
AcDbEntity
  8
Ebene_1
 62
7
100
AcDbLine
 10
8.802364
 20
26.113996
 30
0.0
 11
10.122827
 21
26.113996
 31
0.0
  0
LINE
  5
3f8
100
AcDbEntity
  8
Ebene_1
 62
7
100
AcDbLine
 10
10.122827
 20
26.113996
 30
0.0
 11
10.122827
 21
26.685261
 31
0.0
  0
LINE
  5
3f9
100
AcDbEntity
  8
Ebene_1
 62
7
100
AcDbLine
 10
10.122827
 20
26.685261
 30
0.0
 11
9.937676
 21
26.682259
 31
0.0
  0
LINE
  5
3fa
100
AcDbEntity
  8
Ebene_1
 62
7
100
AcDbLine
 10
9.937676
 20
26.682237
 30
0.0
 11
9.937676
 21
27.007781
 31
0.0
  0
LINE
  5
3fb
100
AcDbEntity
  8
Ebene_1
 62
7
100
AcDbLine
 10
9.937676
 20
27.007781
 30
0.0
 11
10.122827
 21
27.010783
 31
0.0
  0
LINE
  5
3fc
100
AcDbEntity
  8
Ebene_1
 62
7
100
AcDbLine
 10
10.122827
 20
27.010805
 30
0.0
 11
10.122827
 21
27.211143
 31
0.0
  0
LINE
  5
3fd
100
AcDbEntity
  8
Ebene_1
 62
7
100
AcDbLine
 10
10.122827
 20
27.211143
 30
0.0
 11
10.440850
 21
27.211143
 31
0.0
  0
LINE
  5
3fe
100
AcDbEntity
  8
Ebene_1
 62
7
100
AcDbLine
 10
10.440850
 20
27.211143
 30
0.0
 11
10.440850
 21
27.010805
 31
0.0
  0
LINE
  5
3ff
100
AcDbEntity
  8
Ebene_1
 62
7
100
AcDbLine
 10
10.440850
 20
27.010805
 30
0.0
 11
10.628802
 21
27.010805
 31
0.0
  0
LINE
  5
400
100
AcDbEntity
  8
Ebene_1
 62
7
100
AcDbLine
 10
10.628802
 20
27.010805
 30
0.0
 11
10.628802
 21
26.685261
 31
0.0
  0
LINE
  5
401
100
AcDbEntity
  8
Ebene_1
 62
7
100
AcDbLine
 10
10.628802
 20
26.685261
 30
0.0
 11
10.440850
 21
26.685261
 31
0.0
  0
LINE
  5
402
100
AcDbEntity
  8
Ebene_1
 62
7
100
AcDbLine
 10
10.440850
 20
26.685261
 30
0.0
 11
10.440850
 21
26.113996
 31
0.0
  0
LINE
  5
403
100
AcDbEntity
  8
Ebene_1
 62
7
100
AcDbLine
 10
10.440850
 20
26.113996
 30
0.0
 11
10.799746
 21
26.113996
 31
0.0
  0
LINE
  5
404
100
AcDbEntity
  8
Ebene_1
 62
7
100
AcDbLine
 10
10.799746
 20
26.113996
 30
0.0
 11
10.799746
 21
26.432030
 31
0.0
  0
LINE
  5
405
100
AcDbEntity
  8
Ebene_1
 62
7
100
AcDbLine
 10
10.799746
 20
26.432030
 30
0.0
 11
11.300569
 21
26.432030
 31
0.0
  0
LINE
  5
406
100
AcDbEntity
  8
Ebene_1
 62
7
100
AcDbLine
 10
11.300569
 20
26.432030
 30
0.0
 11
12.437699
 21
27.332983
 31
0.0
  0
SPLINE
  5
407
100
AcDbEntity
  8
Ebene_1
 62
7
100
AcDbSpline
 70
8
 71
3
 72
8
 73
4
 74
0
 40
0
 40
0
 40
0
 40
0
 40
1
 40
1
 40
1
 40
1
 10
12.437699
 20
27.332983
 30
0.0
 10
12.509627
 20
27.389992
 30
0.0
 10
12.551575
 20
27.476734
 30
0.0
 10
12.551575
 20
27.568523
 30
0.0
  0
LINE
  5
408
100
AcDbEntity
  8
Ebene_1
 62
7
100
AcDbLine
 10
12.551575
 20
27.568523
 30
0.0
 11
12.551575
 21
28.090086
 31
0.0
  0
SPLINE
  5
409
100
AcDbEntity
  8
Ebene_1
 62
7
100
AcDbSpline
 70
8
 71
3
 72
8
 73
4
 74
0
 40
0
 40
0
 40
0
 40
0
 40
1
 40
1
 40
1
 40
1
 10
12.551575
 20
28.090086
 30
0.0
 10
12.551575
 20
28.181888
 30
0.0
 10
12.509627
 20
28.268627
 30
0.0
 10
12.437699
 20
28.325637
 30
0.0
  0
LINE
  5
40a
100
AcDbEntity
  8
Ebene_1
 62
7
100
AcDbLine
 10
12.437699
 20
28.325637
 30
0.0
 11
11.300569
 21
29.226603
 31
0.0
  0
LINE
  5
40b
100
AcDbEntity
  8
Ebene_1
 62
7
100
AcDbLine
 10
11.300569
 20
29.226603
 30
0.0
 11
10.799746
 21
29.226603
 31
0.0
  0
LINE
  5
40c
100
AcDbEntity
  8
Ebene_1
 62
7
100
AcDbLine
 10
10.799746
 20
29.226603
 30
0.0
 11
10.799746
 21
29.544634
 31
0.0
  0
LINE
  5
40d
100
AcDbEntity
  8
Ebene_1
 62
7
100
AcDbLine
 10
10.799746
 20
29.544634
 30
0.0
 11
10.440870
 21
29.544634
 31
0.0
  0
LINE
  5
40e
100
AcDbEntity
  8
Ebene_1
 62
7
100
AcDbLine
 10
10.440870
 20
29.544634
 30
0.0
 11
10.440870
 21
28.969674
 31
0.0
  0
LINE
  5
40f
100
AcDbEntity
  8
Ebene_1
 62
7
100
AcDbLine
 10
10.440870
 20
28.969674
 30
0.0
 11
10.626011
 21
28.973367
 31
0.0
  0
LINE
  5
410
100
AcDbEntity
  8
Ebene_1
 62
7
100
AcDbLine
 10
10.626011
 20
28.647828
 30
0.0
 11
10.440870
 21
28.644136
 31
0.0
  0
LINE
  5
411
100
AcDbEntity
  8
Ebene_1
 62
7
100
AcDbLine
 10
10.440870
 20
28.644133
 30
0.0
 11
10.440870
 21
28.468062
 31
0.0
  0
LINE
  5
412
100
AcDbEntity
  8
Ebene_1
 62
7
100
AcDbLine
 10
10.440870
 20
28.468062
 30
0.0
 11
10.122837
 21
28.468062
 31
0.0
  0
LINE
  5
413
100
AcDbEntity
  8
Ebene_1
 62
7
100
AcDbLine
 10
10.122837
 20
28.468062
 30
0.0
 11
10.122837
 21
28.644133
 31
0.0
  0
LINE
  5
414
100
AcDbEntity
  8
Ebene_1
 62
7
100
AcDbLine
 10
10.122837
 20
28.644133
 30
0.0
 11
9.934885
 21
28.647825
 31
0.0
  0
LINE
  5
415
100
AcDbEntity
  8
Ebene_1
 62
7
100
AcDbLine
 10
9.934885
 20
28.973370
 30
0.0
 11
10.122837
 21
28.969677
 31
0.0
  0
LINE
  5
416
100
AcDbEntity
  8
Ebene_1
 62
7
100
AcDbLine
 10
10.122837
 20
28.969674
 30
0.0
 11
10.122837
 21
29.544634
 31
0.0
  0
LINE
  5
417
100
AcDbEntity
  8
Ebene_1
 62
7
100
AcDbLine
 10
10.122837
 20
29.544634
 30
0.0
 11
8.802364
 21
29.544634
 31
0.0
  0
LINE
  5
418
100
AcDbEntity
  8
Ebene_1
 62
7
100
AcDbLine
 10
8.802364
 20
29.544634
 30
0.0
 11
8.802364
 21
29.226603
 31
0.0
  0
LINE
  5
419
100
AcDbEntity
  8
Ebene_1
 62
7
100
AcDbLine
 10
8.802364
 20
29.226603
 30
0.0
 11
8.420477
 21
29.226603
 31
0.0
  0
LINE
  5
41a
100
AcDbEntity
  8
Ebene_1
 62
7
100
AcDbLine
 10
8.301540
 20
29.226603
 30
0.0
 11
7.164411
 21
28.325637
 31
0.0
  0
SPLINE
  5
41b
100
AcDbEntity
  8
Ebene_1
 62
7
100
AcDbSpline
 70
8
 71
3
 72
8
 73
4
 74
0
 40
0
 40
0
 40
0
 40
0
 40
1
 40
1
 40
1
 40
1
 10
7.164411
 20
28.325637
 30
0.0
 10
7.092483
 20
28.268627
 30
0.0
 10
7.050535
 20
28.181888
 30
0.0
 10
7.050535
 20
28.090086
 30
0.0
  0
LINE
  5
41c
100
AcDbEntity
  8
Ebene_1
 62
7
100
AcDbLine
 10
7.050535
 20
28.090086
 30
0.0
 11
7.050535
 21
27.568523
 31
0.0
  0
SPLINE
  5
41d
100
AcDbEntity
  8
Ebene_1
 62
7
100
AcDbSpline
 70
8
 71
3
 72
8
 73
4
 74
0
 40
0
 40
0
 40
0
 40
0
 40
1
 40
1
 40
1
 40
1
 10
7.050535
 20
27.568523
 30
0.0
 10
7.050535
 20
27.476734
 30
0.0
 10
7.092483
 20
27.389992
 30
0.0
 10
7.164411
 20
27.332983
 30
0.0
  0
LINE
  5
41e
100
AcDbEntity
  8
Ebene_1
 62
7
100
AcDbLine
 10
7.164411
 20
27.332983
 30
0.0
 11
7.164411
 21
27.332983
 31
0.0
  0
LINE
  5
41f
100
AcDbEntity
  8
Ebene_1
 62
7
100
AcDbLine
 10
7.164411
 20
27.332983
 30
0.0
 11
7.164411
 21
27.332983
 31
0.0
  0
SPLINE
  5
420
100
AcDbEntity
  8
Ebene_1
 62
7
100
AcDbSpline
 70
8
 71
3
 72
8
 73
4
 74
0
 40
0
 40
0
 40
0
 40
0
 40
1
 40
1
 40
1
 40
1
 10
9.801060
 20
28.115018
 30
0.0
 10
9.903118
 20
28.115018
 30
0.0
 10
9.997436
 20
28.060558
 30
0.0
 10
10.048460
 20
27.972172
 30
0.0
  0
SPLINE
  5
421
100
AcDbEntity
  8
Ebene_1
 62
7
100
AcDbSpline
 70
8
 71
3
 72
8
 73
4
 74
0
 40
0
 40
0
 40
0
 40
0
 40
1
 40
1
 40
1
 40
1
 10
10.048460
 20
27.972172
 30
0.0
 10
10.099494
 20
27.883776
 30
0.0
 10
10.099494
 20
27.774865
 30
0.0
 10
10.048460
 20
27.686469
 30
0.0
  0
SPLINE
  5
422
100
AcDbEntity
  8
Ebene_1
 62
7
100
AcDbSpline
 70
8
 71
3
 72
8
 73
4
 74
0
 40
0
 40
0
 40
0
 40
0
 40
1
 40
1
 40
1
 40
1
 10
10.048460
 20
27.686469
 30
0.0
 10
9.997436
 20
27.598082
 30
0.0
 10
9.903118
 20
27.543634
 30
0.0
 10
9.801060
 20
27.543634
 30
0.0
  0
SPLINE
  5
423
100
AcDbEntity
  8
Ebene_1
 62
7
100
AcDbSpline
 70
8
 71
3
 72
8
 73
4
 74
0
 40
0
 40
0
 40
0
 40
0
 40
1
 40
1
 40
1
 40
1
 10
9.801060
 20
27.543634
 30
0.0
 10
9.698982
 20
27.543634
 30
0.0
 10
9.604684
 20
27.598082
 30
0.0
 10
9.553640
 20
27.686469
 30
0.0
  0
SPLINE
  5
424
100
AcDbEntity
  8
Ebene_1
 62
7
100
AcDbSpline
 70
8
 71
3
 72
8
 73
4
 74
0
 40
0
 40
0
 40
0
 40
0
 40
1
 40
1
 40
1
 40
1
 10
9.553640
 20
27.686469
 30
0.0
 10
9.502606
 20
27.774865
 30
0.0
 10
9.502606
 20
27.883776
 30
0.0
 10
9.553640
 20
27.972172
 30
0.0
  0
SPLINE
  5
425
100
AcDbEntity
  8
Ebene_1
 62
7
100
AcDbSpline
 70
8
 71
3
 72
8
 73
4
 74
0
 40
0
 40
0
 40
0
 40
0
 40
1
 40
1
 40
1
 40
1
 10
9.553640
 20
27.972172
 30
0.0
 10
9.604684
 20
28.060558
 30
0.0
 10
9.698982
 20
28.115018
 30
0.0
 10
9.801060
 20
28.115018
 30
0.0
  0
LINE
  5
426
100
AcDbEntity
  8
Ebene_1
 62
7
100
AcDbLine
 10
9.801060
 20
28.115018
 30
0.0
 11
9.801060
 21
28.115018
 31
0.0
  0
LINE
  5
427
100
AcDbEntity
  8
Ebene_1
 62
7
100
AcDbLine
 10
9.801060
 20
28.115018
 30
0.0
 11
9.801060
 21
28.115018
 31
0.0
  0
LINE
  5
428
100
AcDbEntity
  8
Ebene_1
 62
7
100
AcDbLine
 10
10.122827
 20
26.114820
 30
0.0
 11
10.122827
 21
26.685261
 31
0.0
  0
LINE
  5
429
100
AcDbEntity
  8
Ebene_1
 62
7
100
AcDbLine
 10
10.123862
 20
26.993062
 30
0.0
 11
10.122827
 21
27.124343
 31
0.0
  0
LINE
  5
42a
100
AcDbEntity
  8
Ebene_1
 62
7
100
AcDbLine
 10
10.438340
 20
27.127475
 30
0.0
 11
10.439914
 21
26.992541
 31
0.0
  0
LINE
  5
42b
100
AcDbEntity
  8
Ebene_1
 62
7
100
AcDbLine
 10
10.438340
 20
26.702531
 30
0.0
 11
10.438340
 21
26.114820
 31
0.0
  0
LINE
  5
42c
100
AcDbEntity
  8
Ebene_1
 62
7
100
AcDbLine
 10
9.909007
 20
28.997037
 30
0.0
 11
9.909007
 21
28.621058
 31
0.0
  0
LINE
  5
42d
100
AcDbEntity
  8
Ebene_1
 62
7
100
AcDbLine
 10
9.839363
 20
28.646171
 30
0.0
 11
10.118661
 21
28.645107
 31
0.0
  0
LINE
  5
42e
100
AcDbEntity
  8
Ebene_1
 62
7
100
AcDbLine
 10
10.620283
 20
28.620888
 30
0.0
 11
10.620283
 21
28.996875
 31
0.0
  0
LINE
  5
42f
100
AcDbEntity
  8
Ebene_1
 62
7
100
AcDbLine
 10
6.451479
 20
11.728939
 30
0.0
 11
7.017071
 21
11.728939
 31
0.0
  0
LINE
  5
430
100
AcDbEntity
  8
Ebene_1
 62
7
100
AcDbLine
 10
7.017071
 20
11.728939
 30
0.0
 11
7.017071
 21
11.979358
 31
0.0
  0
LINE
  5
431
100
AcDbEntity
  8
Ebene_1
 62
7
100
AcDbLine
 10
7.017071
 20
11.979358
 30
0.0
 11
7.342594
 21
11.979358
 31
0.0
  0
LINE
  5
432
100
AcDbEntity
  8
Ebene_1
 62
7
100
AcDbLine
 10
7.342594
 20
11.979358
 30
0.0
 11
7.342594
 21
11.728939
 31
0.0
  0
LINE
  5
433
100
AcDbEntity
  8
Ebene_1
 62
7
100
AcDbLine
 10
7.342594
 20
11.728939
 30
0.0
 11
7.495692
 21
11.728939
 31
0.0
  0
LINE
  5
434
100
AcDbEntity
  8
Ebene_1
 62
7
100
AcDbLine
 10
7.495692
 20
11.728939
 30
0.0
 11
7.495692
 21
11.410915
 31
0.0
  0
LINE
  5
435
100
AcDbEntity
  8
Ebene_1
 62
7
100
AcDbLine
 10
7.495692
 20
11.410915
 30
0.0
 11
7.342594
 21
11.410915
 31
0.0
  0
LINE
  5
436
100
AcDbEntity
  8
Ebene_1
 62
7
100
AcDbLine
 10
7.342594
 20
11.410915
 30
0.0
 11
7.342594
 21
11.160496
 31
0.0
  0
LINE
  5
437
100
AcDbEntity
  8
Ebene_1
 62
7
100
AcDbLine
 10
7.342594
 20
11.160496
 30
0.0
 11
7.017071
 21
11.160496
 31
0.0
  0
LINE
  5
438
100
AcDbEntity
  8
Ebene_1
 62
7
100
AcDbLine
 10
7.017071
 20
11.160496
 30
0.0
 11
7.017071
 21
11.410915
 31
0.0
  0
LINE
  5
439
100
AcDbEntity
  8
Ebene_1
 62
7
100
AcDbLine
 10
7.017071
 20
11.410915
 30
0.0
 11
6.451479
 21
11.410915
 31
0.0
  0
ENDSEC
  0
SECTION
  2
OBJECTS
  0
DICTIONARY
  5
C
330
0
100
AcDbDictionary
  3
ACAD_GROUP
350
D
  3
ACAD_MLINESTYLE
350
17
  0
DICTIONARY
  5
D
330
C
100
AcDbDictionary
  0
DICTIONARY
  5
1A
330
C
100
AcDbDictionary
  0
DICTIONARY
  5
17
330
C
100
AcDbDictionary
  3
STANDARD
350
18
  0
DICTIONARY
  5
19
330
C
100
AcDbDictionary
  0
ENDSEC
  0
EOF
