  0
SECTION
  2
HEADER
  9
$ACADVER
  1
AC1014
  9
$HANDSEED
  5
FFFF
  9
$MEASUREMENT
 70
     1
  0
ENDSEC
  0
SECTION
  2
TABLES
  0
TABLE
  2
VPORT
  5
8
330
0
100
AcDbSymbolTable
 70
     4
  0
VPORT
  5
2E
330
8
100
AcDbSymbolTableRecord
100
AcDbViewportTableRecord
  2
*ACTIVE
 70
     0
 10
0.0
 20
0.0
 11
1.0
 21
1.0
 12
210.0
 22
148.5
 13
0.0
 23
0.0
 14
10.0
 24
10.0
 15
10.0
 25
10.0
 16
0.0
 26
0.0
 36
1.0
 17
0.0
 27
0.0
 37
0.0
 40
341.0
 41
1.24
 42
50.0
 43
0.0
 44
0.0
 50
0.0
 51
0.0
 71
     0
 72
   100
 73
     1
 74
     3
 75
     0
 76
     0
 77
     0
 78
     0
  0
ENDTAB
  0
TABLE
  2
LTYPE
  5
5
330
0
100
AcDbSymbolTable
 70
     1
  0
LTYPE
  5
14
330
5
100
AcDbSymbolTableRecord
100
AcDbLinetypeTableRecord
  2
BYBLOCK
 70
     0
  3

 72
    65
 73
     0
 40
0.0
  0
LTYPE
  5
15
330
5
100
AcDbSymbolTableRecord
100
AcDbLinetypeTableRecord
  2
BYLAYER
 70
     0
  3

 72
    65
 73
     0
 40
0.0
  0
LTYPE
  5
16
330
5
100
AcDbSymbolTableRecord
100
AcDbLinetypeTableRecord
  2
CONTINUOUS
 70
     0
  3
Solid line
 72
    65
 73
     0
 40
0.0
  0
ENDTAB
  0
TABLE
  2
LAYER
  5
2
100
AcDbSymbolTable
 70
2
  0
LAYER
  5
50
100
AcDbSymbolTableRecord
100
AcDbLayerTableRecord
  2
0
 70
0
  6
CONTINUOUS
  0
LAYER
  5
51
100
AcDbSymbolTableRecord
100
AcDbLayerTableRecord
  2
Ebene_1
 70
0
  6
CONTINUOUS
  0
ENDTAB
  0
TABLE
  2
STYLE
  5
3
330
0
100
AcDbSymbolTable
 70
     1
  0
STYLE
  5
11
330
3
100
AcDbSymbolTableRecord
100
AcDbTextStyleTableRecord
  2
STANDARD
 70
     0
 40
0.0
 41
1.0
 50
0.0
 71
     0
 42
2.5
  3
txt
  4

  0
ENDTAB
  0
TABLE
  2
VIEW
  5
6
330
0
100
AcDbSymbolTable
 70
     0
  0
ENDTAB
  0
TABLE
  2
UCS
  5
7
330
0
100
AcDbSymbolTable
 70
     0
  0
ENDTAB
  0
TABLE
  2
APPID
  5
9
330
0
100
AcDbSymbolTable
 70
     2
  0
APPID
  5
12
330
9
100
AcDbSymbolTableRecord
100
AcDbRegAppTableRecord
  2
ACAD
 70
     0
  0
ENDTAB
  0
TABLE
  2
DIMSTYLE
  5
A
330
0
100
AcDbSymbolTable
 70
     1
  0
DIMSTYLE
105
27
330
A
100
AcDbSymbolTableRecord
100
AcDbDimStyleTableRecord
  2
ISO-25
 70
     0
  3

  4

  5

  6

  7

 40
1.0
 41
2.5
 42
0.625
 43
3.75
 44
1.25
 45
0.0
 46
0.0
 47
0.0
 48
0.0
140
2.5
141
2.5
142
0.0
143
0.03937007874016
144
1.0
145
0.0
146
1.0
147
0.625
 71
     0
 72
     0
 73
     0
 74
     0
 75
     0
 76
     0
 77
     1
 78
     8
170
     0
171
     3
172
     1
173
     0
174
     0
175
     0
176
     0
177
     0
178
     0
270
     2
271
     2
272
     2
273
     2
274
     3
340
11
275
     0
280
     0
281
     0
282
     0
283
     0
284
     8
285
     0
286
     0
287
     3
288
     0
  0
ENDTAB
  0
TABLE
  2
BLOCK_RECORD
  5
1
330
0
100
AcDbSymbolTable
 70
     1
  0
BLOCK_RECORD
  5
1F
330
1
100
AcDbSymbolTableRecord
100
AcDbBlockTableRecord
  2
*MODEL_SPACE
  0
BLOCK_RECORD
  5
1B
330
1
100
AcDbSymbolTableRecord
100
AcDbBlockTableRecord
  2
*PAPER_SPACE
  0
ENDTAB
  0
ENDSEC
  0
SECTION
  2
BLOCKS
  0
BLOCK
  5
20
330
1F
100
AcDbEntity
  8
0
100
AcDbBlockBegin
  2
*MODEL_SPACE
 70
     0
 10
0.0
 20
0.0
 30
0.0
  3
*MODEL_SPACE
  1

  0
ENDBLK
  5
21
330
1F
100
AcDbEntity
  8
0
100
AcDbBlockEnd
  0
BLOCK
  5
1C
330
1B
100
AcDbEntity
 67
     1
  8
0
100
AcDbBlockBegin
  2
*PAPER_SPACE
  1

  0
ENDBLK
  5
1D
330
1B
100
AcDbEntity
 67
     1
  8
0
100
AcDbBlockEnd
  0
ENDSEC
  0
SECTION
  2
ENTITIES
  0
LINE
  5
100
100
AcDbEntity
  8
Ebene_1
 62
7
100
AcDbLine
 10
21.429688
 20
7.981481
 30
0.0
 11
21.429688
 21
8.799034
 31
0.0
  0
SPLINE
  5
101
100
AcDbEntity
  8
Ebene_1
 62
7
100
AcDbSpline
 70
8
 71
3
 72
8
 73
4
 74
0
 40
0
 40
0
 40
0
 40
0
 40
1
 40
1
 40
1
 40
1
 10
21.429688
 20
8.922617
 30
0.0
 10
21.676322
 20
11.813129
 30
0.0
 10
24.017167
 20
19.680599
 30
0.0
 10
21.329961
 20
19.721975
 30
0.0
  0
SPLINE
  5
102
100
AcDbEntity
  8
Ebene_1
 62
7
100
AcDbSpline
 70
8
 71
3
 72
8
 73
4
 74
0
 40
0
 40
0
 40
0
 40
0
 40
1
 40
1
 40
1
 40
1
 10
21.329961
 20
19.721975
 30
0.0
 10
20.776839
 20
19.721975
 30
0.0
 10
20.328415
 20
20.170385
 30
0.0
 10
20.328415
 20
20.723515
 30
0.0
  0
LINE
  5
103
100
AcDbEntity
  8
Ebene_1
 62
7
100
AcDbLine
 10
20.328415
 20
20.723515
 30
0.0
 11
20.328415
 21
24.951531
 31
0.0
  0
SPLINE
  5
104
100
AcDbEntity
  8
Ebene_1
 62
7
100
AcDbSpline
 70
8
 71
3
 72
8
 73
4
 74
0
 40
0
 40
0
 40
0
 40
0
 40
1
 40
1
 40
1
 40
1
 10
20.328415
 20
24.951531
 30
0.0
 10
20.328415
 20
25.504673
 30
0.0
 10
20.776839
 20
25.953072
 30
0.0
 10
21.329961
 20
25.953072
 30
0.0
  0
LINE
  5
105
100
AcDbEntity
  8
Ebene_1
 62
7
100
AcDbLine
 10
21.329961
 20
25.953072
 30
0.0
 11
28.334859
 21
25.953072
 31
0.0
  0
SPLINE
  5
106
100
AcDbEntity
  8
Ebene_1
 62
7
100
AcDbSpline
 70
8
 71
3
 72
8
 73
4
 74
0
 40
0
 40
0
 40
0
 40
0
 40
1
 40
1
 40
1
 40
1
 10
28.334859
 20
25.953072
 30
0.0
 10
28.887978
 20
25.953072
 30
0.0
 10
29.336405
 20
25.504673
 30
0.0
 10
29.336405
 20
24.951531
 30
0.0
  0
LINE
  5
107
100
AcDbEntity
  8
Ebene_1
 62
7
100
AcDbLine
 10
29.336405
 20
24.784588
 30
0.0
 11
29.336405
 21
20.723515
 31
0.0
  0
SPLINE
  5
108
100
AcDbEntity
  8
Ebene_1
 62
7
100
AcDbSpline
 70
8
 71
3
 72
8
 73
4
 74
0
 40
0
 40
0
 40
0
 40
0
 40
1
 40
1
 40
1
 40
1
 10
29.336405
 20
20.723515
 30
0.0
 10
29.336405
 20
20.170385
 30
0.0
 10
28.887978
 20
19.721975
 30
0.0
 10
28.334859
 20
19.721975
 30
0.0
  0
SPLINE
  5
109
100
AcDbEntity
  8
Ebene_1
 62
7
100
AcDbSpline
 70
8
 71
3
 72
8
 73
4
 74
0
 40
0
 40
0
 40
0
 40
0
 40
1
 40
1
 40
1
 40
1
 10
28.334859
 20
19.721975
 30
0.0
 10
25.171915
 20
18.937270
 30
0.0
 10
27.859281
 20
11.470700
 30
0.0
 10
28.235129
 20
8.922617
 30
0.0
  0
LINE
  5
10a
100
AcDbEntity
  8
Ebene_1
 62
7
100
AcDbLine
 10
28.235129
 20
8.775816
 30
0.0
 11
28.235129
 21
7.981481
 31
0.0
  0
SPLINE
  5
10b
100
AcDbEntity
  8
Ebene_1
 62
7
100
AcDbSpline
 70
8
 71
3
 72
8
 73
4
 74
0
 40
0
 40
0
 40
0
 40
0
 40
1
 40
1
 40
1
 40
1
 10
28.235129
 20
7.981481
 30
0.0
 10
28.235129
 20
7.428334
 30
0.0
 10
27.786732
 20
6.979935
 30
0.0
 10
27.233584
 20
6.979935
 30
0.0
  0
LINE
  5
10c
100
AcDbEntity
  8
Ebene_1
 62
7
100
AcDbLine
 10
27.233584
 20
6.979935
 30
0.0
 11
22.431234
 21
6.979935
 31
0.0
  0
SPLINE
  5
10d
100
AcDbEntity
  8
Ebene_1
 62
7
100
AcDbSpline
 70
8
 71
3
 72
8
 73
4
 74
0
 40
0
 40
0
 40
0
 40
0
 40
1
 40
1
 40
1
 40
1
 10
22.431234
 20
6.979935
 30
0.0
 10
21.878085
 20
6.979935
 30
0.0
 10
21.429688
 20
7.428334
 30
0.0
 10
21.429688
 20
7.981481
 30
0.0
  0
LINE
  5
10e
100
AcDbEntity
  8
Ebene_1
 62
7
100
AcDbLine
 10
21.429688
 20
7.981481
 30
0.0
 11
21.429688
 21
7.981481
 31
0.0
  0
LINE
  5
10f
100
AcDbEntity
  8
Ebene_1
 62
7
100
AcDbLine
 10
21.429688
 20
7.981481
 30
0.0
 11
21.429688
 21
7.981481
 31
0.0
  0
LINE
  5
110
100
AcDbEntity
  8
Ebene_1
 62
7
100
AcDbLine
 10
25.176937
 20
13.835127
 30
0.0
 11
25.176937
 21
14.836256
 31
0.0
  0
SPLINE
  5
111
100
AcDbEntity
  8
Ebene_1
 62
7
100
AcDbSpline
 70
8
 71
3
 72
8
 73
4
 74
0
 40
0
 40
0
 40
0
 40
0
 40
1
 40
1
 40
1
 40
1
 10
25.176937
 20
14.836256
 30
0.0
 10
25.176937
 20
14.847812
 30
0.0
 10
25.155950
 20
14.858916
 30
0.0
 10
25.118279
 20
14.867109
 30
0.0
  0
SPLINE
  5
112
100
AcDbEntity
  8
Ebene_1
 62
7
100
AcDbSpline
 70
8
 71
3
 72
8
 73
4
 74
0
 40
0
 40
0
 40
0
 40
0
 40
1
 40
1
 40
1
 40
1
 10
25.118279
 20
14.867109
 30
0.0
 10
25.080716
 20
14.875291
 30
0.0
 10
25.029762
 20
14.879887
 30
0.0
 10
24.976631
 20
14.879887
 30
0.0
  0
LINE
  5
113
100
AcDbEntity
  8
Ebene_1
 62
7
100
AcDbLine
 10
24.976631
 20
14.879893
 30
0.0
 11
24.688185
 21
14.879893
 31
0.0
  0
SPLINE
  5
114
100
AcDbEntity
  8
Ebene_1
 62
7
100
AcDbSpline
 70
8
 71
3
 72
8
 73
4
 74
0
 40
0
 40
0
 40
0
 40
0
 40
1
 40
1
 40
1
 40
1
 10
24.688185
 20
14.879893
 30
0.0
 10
24.635054
 20
14.879893
 30
0.0
 10
24.584101
 20
14.875270
 30
0.0
 10
24.546564
 20
14.867114
 30
0.0
  0
SPLINE
  5
115
100
AcDbEntity
  8
Ebene_1
 62
7
100
AcDbSpline
 70
8
 71
3
 72
8
 73
4
 74
0
 40
0
 40
0
 40
0
 40
0
 40
1
 40
1
 40
1
 40
1
 10
24.546564
 20
14.867109
 30
0.0
 10
24.508999
 20
14.858927
 30
0.0
 10
24.487880
 20
14.847823
 30
0.0
 10
24.487880
 20
14.836256
 30
0.0
  0
LINE
  5
116
100
AcDbEntity
  8
Ebene_1
 62
7
100
AcDbLine
 10
24.487880
 20
14.836256
 30
0.0
 11
24.487880
 21
13.835127
 31
0.0
  0
SPLINE
  5
117
100
AcDbEntity
  8
Ebene_1
 62
7
100
AcDbSpline
 70
8
 71
3
 72
8
 73
4
 74
0
 40
0
 40
0
 40
0
 40
0
 40
1
 40
1
 40
1
 40
1
 10
24.487880
 20
13.835127
 30
0.0
 10
24.487880
 20
13.823545
 30
0.0
 10
24.509134
 20
13.812440
 30
0.0
 10
24.546564
 20
13.804274
 30
0.0
  0
SPLINE
  5
118
100
AcDbEntity
  8
Ebene_1
 62
7
100
AcDbSpline
 70
8
 71
3
 72
8
 73
4
 74
0
 40
0
 40
0
 40
0
 40
0
 40
1
 40
1
 40
1
 40
1
 10
24.546564
 20
13.804274
 30
0.0
 10
24.584101
 20
13.796092
 30
0.0
 10
24.635054
 20
13.791496
 30
0.0
 10
24.688185
 20
13.791496
 30
0.0
  0
LINE
  5
119
100
AcDbEntity
  8
Ebene_1
 62
7
100
AcDbLine
 10
24.688185
 20
13.791501
 30
0.0
 11
24.976631
 21
13.791501
 31
0.0
  0
SPLINE
  5
11a
100
AcDbEntity
  8
Ebene_1
 62
7
100
AcDbSpline
 70
8
 71
3
 72
8
 73
4
 74
0
 40
0
 40
0
 40
0
 40
0
 40
1
 40
1
 40
1
 40
1
 10
24.976631
 20
13.791501
 30
0.0
 10
25.029762
 20
13.791501
 30
0.0
 10
25.080716
 20
13.796097
 30
0.0
 10
25.118279
 20
13.804279
 30
0.0
  0
SPLINE
  5
11b
100
AcDbEntity
  8
Ebene_1
 62
7
100
AcDbSpline
 70
8
 71
3
 72
8
 73
4
 74
0
 40
0
 40
0
 40
0
 40
0
 40
1
 40
1
 40
1
 40
1
 10
25.118279
 20
13.804274
 30
0.0
 10
25.155844
 20
13.812456
 30
0.0
 10
25.176937
 20
13.823560
 30
0.0
 10
25.176937
 20
13.835127
 30
0.0
  0
LINE
  5
11c
100
AcDbEntity
  8
Ebene_1
 62
7
100
AcDbLine
 10
25.176937
 20
13.835127
 30
0.0
 11
25.176937
 21
13.835127
 31
0.0
  0
LINE
  5
11d
100
AcDbEntity
  8
Ebene_1
 62
7
100
AcDbLine
 10
25.176937
 20
13.835127
 30
0.0
 11
25.176937
 21
13.835127
 31
0.0
  0
LINE
  5
11e
100
AcDbEntity
  8
Ebene_1
 62
7
100
AcDbLine
 10
25.853347
 20
8.278271
 30
0.0
 11
25.853347
 21
12.466826
 31
0.0
  0
LINE
  5
11f
100
AcDbEntity
  8
Ebene_1
 62
7
100
AcDbLine
 10
25.853347
 20
12.466826
 30
0.0
 11
23.811470
 21
12.466826
 31
0.0
  0
LINE
  5
120
100
AcDbEntity
  8
Ebene_1
 62
7
100
AcDbLine
 10
23.811470
 20
12.466826
 30
0.0
 11
23.811470
 21
8.278271
 31
0.0
  0
LINE
  5
121
100
AcDbEntity
  8
Ebene_1
 62
7
100
AcDbLine
 10
23.811470
 20
8.278271
 30
0.0
 11
25.853347
 21
8.278271
 31
0.0
  0
SPLINE
  5
122
100
AcDbEntity
  8
Ebene_1
 62
7
100
AcDbSpline
 70
8
 71
3
 72
8
 73
4
 74
0
 40
0
 40
0
 40
0
 40
0
 40
1
 40
1
 40
1
 40
1
 10
22.153278
 20
23.842366
 30
0.0
 10
22.153014
 20
23.905090
 30
0.0
 10
22.186510
 20
23.963114
 30
0.0
 10
22.240810
 20
23.994520
 30
0.0
  0
SPLINE
  5
123
100
AcDbEntity
  8
Ebene_1
 62
7
100
AcDbSpline
 70
8
 71
3
 72
8
 73
4
 74
0
 40
0
 40
0
 40
0
 40
0
 40
1
 40
1
 40
1
 40
1
 10
22.240810
 20
23.994520
 30
0.0
 10
22.295111
 20
24.025926
 30
0.0
 10
22.362029
 20
24.025926
 30
0.0
 10
22.416330
 20
23.994520
 30
0.0
  0
SPLINE
  5
124
100
AcDbEntity
  8
Ebene_1
 62
7
100
AcDbSpline
 70
8
 71
3
 72
8
 73
4
 74
0
 40
0
 40
0
 40
0
 40
0
 40
1
 40
1
 40
1
 40
1
 10
22.416330
 20
23.994520
 30
0.0
 10
22.470604
 20
23.963114
 30
0.0
 10
22.503968
 20
23.905090
 30
0.0
 10
22.503809
 20
23.842366
 30
0.0
  0
SPLINE
  5
125
100
AcDbEntity
  8
Ebene_1
 62
7
100
AcDbSpline
 70
8
 71
3
 72
8
 73
4
 74
0
 40
0
 40
0
 40
0
 40
0
 40
1
 40
1
 40
1
 40
1
 10
22.503809
 20
23.842366
 30
0.0
 10
22.504074
 20
23.779642
 30
0.0
 10
22.470604
 20
23.721621
 30
0.0
 10
22.416330
 20
23.690212
 30
0.0
  0
SPLINE
  5
126
100
AcDbEntity
  8
Ebene_1
 62
7
100
AcDbSpline
 70
8
 71
3
 72
8
 73
4
 74
0
 40
0
 40
0
 40
0
 40
0
 40
1
 40
1
 40
1
 40
1
 10
22.416330
 20
23.690212
 30
0.0
 10
22.362029
 20
23.658806
 30
0.0
 10
22.295111
 20
23.658806
 30
0.0
 10
22.240810
 20
23.690212
 30
0.0
  0
SPLINE
  5
127
100
AcDbEntity
  8
Ebene_1
 62
7
100
AcDbSpline
 70
8
 71
3
 72
8
 73
4
 74
0
 40
0
 40
0
 40
0
 40
0
 40
1
 40
1
 40
1
 40
1
 10
22.240810
 20
23.690212
 30
0.0
 10
22.186510
 20
23.721621
 30
0.0
 10
22.153146
 20
23.779642
 30
0.0
 10
22.153278
 20
23.842366
 30
0.0
  0
LINE
  5
128
100
AcDbEntity
  8
Ebene_1
 62
7
100
AcDbLine
 10
22.153278
 20
23.842366
 30
0.0
 11
22.153278
 21
23.842366
 31
0.0
  0
LINE
  5
129
100
AcDbEntity
  8
Ebene_1
 62
7
100
AcDbLine
 10
22.153278
 20
23.842366
 30
0.0
 11
22.153278
 21
23.842366
 31
0.0
  0
SPLINE
  5
12a
100
AcDbEntity
  8
Ebene_1
 62
7
100
AcDbSpline
 70
8
 71
3
 72
8
 73
4
 74
0
 40
0
 40
0
 40
0
 40
0
 40
1
 40
1
 40
1
 40
1
 10
27.161008
 20
23.842366
 30
0.0
 10
27.160744
 20
23.905130
 30
0.0
 10
27.194134
 20
23.963223
 30
0.0
 10
27.248461
 20
23.994671
 30
0.0
  0
SPLINE
  5
12b
100
AcDbEntity
  8
Ebene_1
 62
7
100
AcDbSpline
 70
8
 71
3
 72
8
 73
4
 74
0
 40
0
 40
0
 40
0
 40
0
 40
1
 40
1
 40
1
 40
1
 10
27.248461
 20
23.994671
 30
0.0
 10
27.302762
 20
24.026106
 30
0.0
 10
27.369759
 20
24.026106
 30
0.0
 10
27.424060
 20
23.994671
 30
0.0
  0
SPLINE
  5
12c
100
AcDbEntity
  8
Ebene_1
 62
7
100
AcDbSpline
 70
8
 71
3
 72
8
 73
4
 74
0
 40
0
 40
0
 40
0
 40
0
 40
1
 40
1
 40
1
 40
1
 10
27.424060
 20
23.994671
 30
0.0
 10
27.478387
 20
23.963223
 30
0.0
 10
27.511753
 20
23.905130
 30
0.0
 10
27.511513
 20
23.842366
 30
0.0
  0
SPLINE
  5
12d
100
AcDbEntity
  8
Ebene_1
 62
7
100
AcDbSpline
 70
8
 71
3
 72
8
 73
4
 74
0
 40
0
 40
0
 40
0
 40
0
 40
1
 40
1
 40
1
 40
1
 10
27.511513
 20
23.842366
 30
0.0
 10
27.511777
 20
23.779602
 30
0.0
 10
27.478387
 20
23.721520
 30
0.0
 10
27.424060
 20
23.690082
 30
0.0
  0
SPLINE
  5
12e
100
AcDbEntity
  8
Ebene_1
 62
7
100
AcDbSpline
 70
8
 71
3
 72
8
 73
4
 74
0
 40
0
 40
0
 40
0
 40
0
 40
1
 40
1
 40
1
 40
1
 10
27.424060
 20
23.690082
 30
0.0
 10
27.369759
 20
23.658637
 30
0.0
 10
27.302762
 20
23.658637
 30
0.0
 10
27.248461
 20
23.690082
 30
0.0
  0
SPLINE
  5
12f
100
AcDbEntity
  8
Ebene_1
 62
7
100
AcDbSpline
 70
8
 71
3
 72
8
 73
4
 74
0
 40
0
 40
0
 40
0
 40
0
 40
1
 40
1
 40
1
 40
1
 10
27.248461
 20
23.690082
 30
0.0
 10
27.194134
 20
23.721520
 30
0.0
 10
27.160768
 20
23.779602
 30
0.0
 10
27.161008
 20
23.842366
 30
0.0
  0
LINE
  5
130
100
AcDbEntity
  8
Ebene_1
 62
7
100
AcDbLine
 10
27.161008
 20
23.842366
 30
0.0
 11
27.161008
 21
23.842366
 31
0.0
  0
LINE
  5
131
100
AcDbEntity
  8
Ebene_1
 62
7
100
AcDbLine
 10
27.161008
 20
23.842366
 30
0.0
 11
27.161008
 21
23.842366
 31
0.0
  0
LINE
  5
132
100
AcDbEntity
  8
Ebene_1
 62
7
100
AcDbLine
 10
25.829942
 20
8.129504
 30
0.0
 11
23.834901
 21
8.129504
 31
0.0
  0
LINE
  5
133
100
AcDbEntity
  8
Ebene_1
 62
7
100
AcDbLine
 10
23.834901
 20
8.129504
 30
0.0
 11
23.834901
 21
7.757534
 31
0.0
  0
LINE
  5
134
100
AcDbEntity
  8
Ebene_1
 62
7
100
AcDbLine
 10
23.834901
 20
7.757534
 30
0.0
 11
25.829942
 21
7.757534
 31
0.0
  0
LINE
  5
135
100
AcDbEntity
  8
Ebene_1
 62
7
100
AcDbLine
 10
25.829942
 20
7.757534
 30
0.0
 11
25.829942
 21
8.129504
 31
0.0
  0
LINE
  5
136
100
AcDbEntity
  8
Ebene_1
 62
7
100
AcDbLine
 10
25.829942
 20
12.987579
 30
0.0
 11
23.834901
 21
12.987579
 31
0.0
  0
LINE
  5
137
100
AcDbEntity
  8
Ebene_1
 62
7
100
AcDbLine
 10
23.834901
 20
12.987579
 30
0.0
 11
23.834901
 21
12.615620
 31
0.0
  0
LINE
  5
138
100
AcDbEntity
  8
Ebene_1
 62
7
100
AcDbLine
 10
23.834901
 20
12.615620
 30
0.0
 11
25.829942
 21
12.615620
 31
0.0
  0
LINE
  5
139
100
AcDbEntity
  8
Ebene_1
 62
7
100
AcDbLine
 10
25.829942
 20
12.615620
 30
0.0
 11
25.829942
 21
12.987579
 31
0.0
  0
LINE
  5
13a
100
AcDbEntity
  8
Ebene_1
 62
7
100
AcDbLine
 10
23.326065
 20
20.567735
 30
0.0
 11
21.331049
 21
20.567735
 31
0.0
  0
LINE
  5
13b
100
AcDbEntity
  8
Ebene_1
 62
7
100
AcDbLine
 10
21.331049
 20
20.567735
 30
0.0
 11
21.331049
 21
20.195757
 31
0.0
  0
LINE
  5
13c
100
AcDbEntity
  8
Ebene_1
 62
7
100
AcDbLine
 10
21.331049
 20
20.195757
 30
0.0
 11
23.326065
 21
20.195757
 31
0.0
  0
LINE
  5
13d
100
AcDbEntity
  8
Ebene_1
 62
7
100
AcDbLine
 10
23.326065
 20
20.195757
 30
0.0
 11
23.326065
 21
20.567735
 31
0.0
  0
LINE
  5
13e
100
AcDbEntity
  8
Ebene_1
 62
7
100
AcDbLine
 10
28.333769
 20
20.567735
 30
0.0
 11
26.338751
 21
20.567735
 31
0.0
  0
LINE
  5
13f
100
AcDbEntity
  8
Ebene_1
 62
7
100
AcDbLine
 10
26.338751
 20
20.567735
 30
0.0
 11
26.338751
 21
20.195757
 31
0.0
  0
LINE
  5
140
100
AcDbEntity
  8
Ebene_1
 62
7
100
AcDbLine
 10
26.338751
 20
20.195757
 30
0.0
 11
28.333769
 21
20.195757
 31
0.0
  0
LINE
  5
141
100
AcDbEntity
  8
Ebene_1
 62
7
100
AcDbLine
 10
28.333769
 20
20.195757
 30
0.0
 11
28.333769
 21
20.567735
 31
0.0
  0
LINE
  5
142
100
AcDbEntity
  8
Ebene_1
 62
7
100
AcDbLine
 10
28.333769
 20
25.425813
 30
0.0
 11
26.338751
 21
25.425813
 31
0.0
  0
LINE
  5
143
100
AcDbEntity
  8
Ebene_1
 62
7
100
AcDbLine
 10
26.338751
 20
25.425813
 30
0.0
 11
26.338751
 21
25.053843
 31
0.0
  0
LINE
  5
144
100
AcDbEntity
  8
Ebene_1
 62
7
100
AcDbLine
 10
26.338751
 20
25.053843
 30
0.0
 11
28.333769
 21
25.053843
 31
0.0
  0
LINE
  5
145
100
AcDbEntity
  8
Ebene_1
 62
7
100
AcDbLine
 10
28.333769
 20
25.053843
 30
0.0
 11
28.333769
 21
25.425813
 31
0.0
  0
LINE
  5
146
100
AcDbEntity
  8
Ebene_1
 62
7
100
AcDbLine
 10
23.326065
 20
25.425813
 30
0.0
 11
21.331049
 21
25.425813
 31
0.0
  0
LINE
  5
147
100
AcDbEntity
  8
Ebene_1
 62
7
100
AcDbLine
 10
21.331049
 20
25.425813
 30
0.0
 11
21.331049
 21
25.053843
 31
0.0
  0
LINE
  5
148
100
AcDbEntity
  8
Ebene_1
 62
7
100
AcDbLine
 10
21.331049
 20
25.053843
 30
0.0
 11
23.326065
 21
25.053843
 31
0.0
  0
LINE
  5
149
100
AcDbEntity
  8
Ebene_1
 62
7
100
AcDbLine
 10
23.326065
 20
25.053843
 30
0.0
 11
23.326065
 21
25.425813
 31
0.0
  0
LINE
  5
14a
100
AcDbEntity
  8
Ebene_1
 62
7
100
AcDbLine
 10
18.502011
 20
8.412851
 30
0.0
 11
17.772946
 21
8.412851
 31
0.0
  0
SPLINE
  5
14b
100
AcDbEntity
  8
Ebene_1
 62
7
100
AcDbSpline
 70
8
 71
3
 72
8
 73
4
 74
0
 40
0
 40
0
 40
0
 40
0
 40
1
 40
1
 40
1
 40
1
 10
17.560848
 20
8.412851
 30
0.0
 10
14.670363
 20
8.166244
 30
0.0
 10
6.802885
 20
5.825372
 30
0.0
 10
6.761496
 20
8.512578
 30
0.0
  0
SPLINE
  5
14c
100
AcDbEntity
  8
Ebene_1
 62
7
100
AcDbSpline
 70
8
 71
3
 72
8
 73
4
 74
0
 40
0
 40
0
 40
0
 40
0
 40
1
 40
1
 40
1
 40
1
 10
6.761496
 20
8.512578
 30
0.0
 10
6.761496
 20
9.065699
 30
0.0
 10
6.313096
 20
9.514124
 30
0.0
 10
5.759977
 20
9.514124
 30
0.0
  0
LINE
  5
14d
100
AcDbEntity
  8
Ebene_1
 62
7
100
AcDbLine
 10
5.759977
 20
9.514124
 30
0.0
 11
1.531945
 21
9.514124
 31
0.0
  0
SPLINE
  5
14e
100
AcDbEntity
  8
Ebene_1
 62
7
100
AcDbSpline
 70
8
 71
3
 72
8
 73
4
 74
0
 40
0
 40
0
 40
0
 40
0
 40
1
 40
1
 40
1
 40
1
 10
1.531945
 20
9.514124
 30
0.0
 10
0.978823
 20
9.514124
 30
0.0
 10
0.530426
 20
9.065699
 30
0.0
 10
0.530426
 20
8.512578
 30
0.0
  0
LINE
  5
14f
100
AcDbEntity
  8
Ebene_1
 62
7
100
AcDbLine
 10
0.530426
 20
8.371250
 30
0.0
 11
0.530426
 21
1.615619
 31
0.0
  0
SPLINE
  5
150
100
AcDbEntity
  8
Ebene_1
 62
7
100
AcDbSpline
 70
8
 71
3
 72
8
 73
4
 74
0
 40
0
 40
0
 40
0
 40
0
 40
1
 40
1
 40
1
 40
1
 10
0.530426
 20
1.507708
 30
0.0
 10
0.530426
 20
0.954562
 30
0.0
 10
0.978823
 20
0.506162
 30
0.0
 10
1.531945
 20
0.506162
 30
0.0
  0
LINE
  5
151
100
AcDbEntity
  8
Ebene_1
 62
7
100
AcDbLine
 10
1.531945
 20
0.506162
 30
0.0
 11
5.705464
 21
0.506162
 31
0.0
  0
SPLINE
  5
152
100
AcDbEntity
  8
Ebene_1
 62
7
100
AcDbSpline
 70
8
 71
3
 72
8
 73
4
 74
0
 40
0
 40
0
 40
0
 40
0
 40
1
 40
1
 40
1
 40
1
 10
5.759977
 20
0.506162
 30
0.0
 10
6.313096
 20
0.506162
 30
0.0
 10
6.761496
 20
0.954562
 30
0.0
 10
6.761496
 20
1.507708
 30
0.0
  0
SPLINE
  5
153
100
AcDbEntity
  8
Ebene_1
 62
7
100
AcDbSpline
 70
8
 71
3
 72
8
 73
4
 74
0
 40
0
 40
0
 40
0
 40
0
 40
1
 40
1
 40
1
 40
1
 10
6.761496
 20
1.507708
 30
0.0
 10
7.546213
 20
4.670650
 30
0.0
 10
15.012792
 20
1.983284
 30
0.0
 10
17.560848
 20
1.607409
 30
0.0
  0
LINE
  5
154
100
AcDbEntity
  8
Ebene_1
 62
7
100
AcDbLine
 10
17.719950
 20
1.607409
 30
0.0
 11
18.502011
 21
1.607409
 31
0.0
  0
SPLINE
  5
155
100
AcDbEntity
  8
Ebene_1
 62
7
100
AcDbSpline
 70
8
 71
3
 72
8
 73
4
 74
0
 40
0
 40
0
 40
0
 40
0
 40
1
 40
1
 40
1
 40
1
 10
18.502011
 20
1.607409
 30
0.0
 10
19.055129
 20
1.607409
 30
0.0
 10
19.503556
 20
2.055808
 30
0.0
 10
19.503556
 20
2.608981
 30
0.0
  0
LINE
  5
156
100
AcDbEntity
  8
Ebene_1
 62
7
100
AcDbLine
 10
19.503556
 20
2.608981
 30
0.0
 11
19.503556
 21
7.411332
 31
0.0
  0
SPLINE
  5
157
100
AcDbEntity
  8
Ebene_1
 62
7
100
AcDbSpline
 70
8
 71
3
 72
8
 73
4
 74
0
 40
0
 40
0
 40
0
 40
0
 40
1
 40
1
 40
1
 40
1
 10
19.503556
 20
7.411332
 30
0.0
 10
19.503556
 20
7.964453
 30
0.0
 10
19.055129
 20
8.412851
 30
0.0
 10
18.502011
 20
8.412851
 30
0.0
  0
LINE
  5
158
100
AcDbEntity
  8
Ebene_1
 62
7
100
AcDbLine
 10
18.502011
 20
8.412851
 30
0.0
 11
18.502011
 21
8.412851
 31
0.0
  0
LINE
  5
159
100
AcDbEntity
  8
Ebene_1
 62
7
100
AcDbLine
 10
18.502011
 20
8.412851
 30
0.0
 11
18.502011
 21
8.412851
 31
0.0
  0
LINE
  5
15a
100
AcDbEntity
  8
Ebene_1
 62
7
100
AcDbLine
 10
12.648356
 20
4.665602
 30
0.0
 11
11.647236
 21
4.665602
 31
0.0
  0
SPLINE
  5
15b
100
AcDbEntity
  8
Ebene_1
 62
7
100
AcDbSpline
 70
8
 71
3
 72
8
 73
4
 74
0
 40
0
 40
0
 40
0
 40
0
 40
1
 40
1
 40
1
 40
1
 10
11.647236
 20
4.665602
 30
0.0
 10
11.635547
 20
4.665602
 30
0.0
 10
11.624654
 20
4.686855
 30
0.0
 10
11.616367
 20
4.724285
 30
0.0
  0
SPLINE
  5
15c
100
AcDbEntity
  8
Ebene_1
 62
7
100
AcDbSpline
 70
8
 71
3
 72
8
 73
4
 74
0
 40
0
 40
0
 40
0
 40
0
 40
1
 40
1
 40
1
 40
1
 10
11.616367
 20
4.724285
 30
0.0
 10
11.608131
 20
4.761849
 30
0.0
 10
11.603614
 20
4.812801
 30
0.0
 10
11.603614
 20
4.865906
 30
0.0
  0
LINE
  5
15d
100
AcDbEntity
  8
Ebene_1
 62
7
100
AcDbLine
 10
11.603588
 20
4.865906
 30
0.0
 11
11.603588
 21
5.154381
 31
0.0
  0
SPLINE
  5
15e
100
AcDbEntity
  8
Ebene_1
 62
7
100
AcDbSpline
 70
8
 71
3
 72
8
 73
4
 74
0
 40
0
 40
0
 40
0
 40
0
 40
1
 40
1
 40
1
 40
1
 10
11.603588
 20
5.154381
 30
0.0
 10
11.603588
 20
5.207485
 30
0.0
 10
11.608104
 20
5.258438
 30
0.0
 10
11.616341
 20
5.296001
 30
0.0
  0
SPLINE
  5
15f
100
AcDbEntity
  8
Ebene_1
 62
7
100
AcDbSpline
 70
8
 71
3
 72
8
 73
4
 74
0
 40
0
 40
0
 40
0
 40
0
 40
1
 40
1
 40
1
 40
1
 10
11.616367
 20
5.296001
 30
0.0
 10
11.624601
 20
5.333565
 30
0.0
 10
11.635759
 20
5.354685
 30
0.0
 10
11.647236
 20
5.354685
 30
0.0
  0
LINE
  5
160
100
AcDbEntity
  8
Ebene_1
 62
7
100
AcDbLine
 10
11.647236
 20
5.354685
 30
0.0
 11
12.648356
 21
5.354685
 31
0.0
  0
SPLINE
  5
161
100
AcDbEntity
  8
Ebene_1
 62
7
100
AcDbSpline
 70
8
 71
3
 72
8
 73
4
 74
0
 40
0
 40
0
 40
0
 40
0
 40
1
 40
1
 40
1
 40
1
 10
12.648356
 20
5.354685
 30
0.0
 10
12.672531
 20
5.354658
 30
0.0
 10
12.691978
 20
5.264973
 30
0.0
 10
12.691978
 20
5.154381
 30
0.0
  0
LINE
  5
162
100
AcDbEntity
  8
Ebene_1
 62
7
100
AcDbLine
 10
12.691978
 20
5.154381
 30
0.0
 11
12.691978
 21
4.865906
 31
0.0
  0
SPLINE
  5
163
100
AcDbEntity
  8
Ebene_1
 62
7
100
AcDbSpline
 70
8
 71
3
 72
8
 73
4
 74
0
 40
0
 40
0
 40
0
 40
0
 40
1
 40
1
 40
1
 40
1
 10
12.691978
 20
4.865906
 30
0.0
 10
12.691978
 20
4.755314
 30
0.0
 10
12.672584
 20
4.665629
 30
0.0
 10
12.648356
 20
4.665602
 30
0.0
  0
LINE
  5
164
100
AcDbEntity
  8
Ebene_1
 62
7
100
AcDbLine
 10
12.648356
 20
4.665602
 30
0.0
 11
12.648356
 21
4.665602
 31
0.0
  0
LINE
  5
165
100
AcDbEntity
  8
Ebene_1
 62
7
100
AcDbLine
 10
12.648356
 20
4.665602
 30
0.0
 11
12.648356
 21
4.665602
 31
0.0
  0
LINE
  5
166
100
AcDbEntity
  8
Ebene_1
 62
7
100
AcDbLine
 10
5.766962
 20
1.485367
 30
0.0
 11
1.578406
 21
1.485367
 31
0.0
  0
LINE
  5
167
100
AcDbEntity
  8
Ebene_1
 62
7
100
AcDbLine
 10
1.578406
 20
1.485367
 30
0.0
 11
1.578406
 21
3.527244
 31
0.0
  0
LINE
  5
168
100
AcDbEntity
  8
Ebene_1
 62
7
100
AcDbLine
 10
1.578406
 20
3.527244
 30
0.0
 11
5.766962
 21
3.527244
 31
0.0
  0
LINE
  5
169
100
AcDbEntity
  8
Ebene_1
 62
7
100
AcDbLine
 10
5.766962
 20
3.527244
 30
0.0
 11
5.766962
 21
1.485367
 31
0.0
  0
LINE
  5
16a
100
AcDbEntity
  8
Ebene_1
 62
7
100
AcDbLine
 10
5.766962
 20
7.831625
 30
0.0
 11
5.766962
 21
6.493069
 31
0.0
  0
LINE
  5
16b
100
AcDbEntity
  8
Ebene_1
 62
7
100
AcDbLine
 10
5.766962
 20
6.493069
 30
0.0
 11
1.578406
 21
6.493069
 31
0.0
  0
LINE
  5
16c
100
AcDbEntity
  8
Ebene_1
 62
7
100
AcDbLine
 10
1.578406
 20
6.493069
 30
0.0
 11
1.578406
 21
8.534947
 31
0.0
  0
LINE
  5
16d
100
AcDbEntity
  8
Ebene_1
 62
7
100
AcDbLine
 10
1.578406
 20
8.534947
 30
0.0
 11
5.766962
 21
8.534947
 31
0.0
  0
LINE
  5
16e
100
AcDbEntity
  8
Ebene_1
 62
7
100
AcDbLine
 10
5.766962
 20
8.534947
 30
0.0
 11
5.766962
 21
7.831625
 31
0.0
  0
LINE
  5
16f
100
AcDbEntity
  8
Ebene_1
 62
7
100
AcDbLine
 10
6.287725
 20
1.508772
 30
0.0
 11
6.287725
 21
3.503813
 31
0.0
  0
LINE
  5
170
100
AcDbEntity
  8
Ebene_1
 62
7
100
AcDbLine
 10
6.287725
 20
3.503813
 30
0.0
 11
5.915755
 21
3.503813
 31
0.0
  0
LINE
  5
171
100
AcDbEntity
  8
Ebene_1
 62
7
100
AcDbLine
 10
5.915755
 20
3.503813
 30
0.0
 11
5.915755
 21
1.508772
 31
0.0
  0
LINE
  5
172
100
AcDbEntity
  8
Ebene_1
 62
7
100
AcDbLine
 10
5.915755
 20
1.508772
 30
0.0
 11
6.287725
 21
1.508772
 31
0.0
  0
LINE
  5
173
100
AcDbEntity
  8
Ebene_1
 62
7
100
AcDbLine
 10
1.429642
 20
1.508772
 30
0.0
 11
1.429642
 21
3.503813
 31
0.0
  0
LINE
  5
174
100
AcDbEntity
  8
Ebene_1
 62
7
100
AcDbLine
 10
1.429642
 20
3.503813
 30
0.0
 11
1.057669
 21
3.503813
 31
0.0
  0
LINE
  5
175
100
AcDbEntity
  8
Ebene_1
 62
7
100
AcDbLine
 10
1.057669
 20
3.503813
 30
0.0
 11
1.057669
 21
1.508772
 31
0.0
  0
LINE
  5
176
100
AcDbEntity
  8
Ebene_1
 62
7
100
AcDbLine
 10
1.057669
 20
1.508772
 30
0.0
 11
1.429642
 21
1.508772
 31
0.0
  0
LINE
  5
177
100
AcDbEntity
  8
Ebene_1
 62
7
100
AcDbLine
 10
1.429642
 20
6.516473
 30
0.0
 11
1.429642
 21
8.511516
 31
0.0
  0
LINE
  5
178
100
AcDbEntity
  8
Ebene_1
 62
7
100
AcDbLine
 10
1.429642
 20
8.511516
 30
0.0
 11
1.057669
 21
8.511516
 31
0.0
  0
LINE
  5
179
100
AcDbEntity
  8
Ebene_1
 62
7
100
AcDbLine
 10
1.057669
 20
8.511516
 30
0.0
 11
1.057669
 21
6.516473
 31
0.0
  0
LINE
  5
17a
100
AcDbEntity
  8
Ebene_1
 62
7
100
AcDbLine
 10
1.057669
 20
6.516473
 30
0.0
 11
1.429642
 21
6.516473
 31
0.0
  0
LINE
  5
17b
100
AcDbEntity
  8
Ebene_1
 62
7
100
AcDbLine
 10
6.287725
 20
6.516473
 30
0.0
 11
6.287725
 21
8.511516
 31
0.0
  0
LINE
  5
17c
100
AcDbEntity
  8
Ebene_1
 62
7
100
AcDbLine
 10
6.287725
 20
8.511516
 30
0.0
 11
5.915755
 21
8.511516
 31
0.0
  0
LINE
  5
17d
100
AcDbEntity
  8
Ebene_1
 62
7
100
AcDbLine
 10
5.915755
 20
8.511516
 30
0.0
 11
5.915755
 21
6.516473
 31
0.0
  0
LINE
  5
17e
100
AcDbEntity
  8
Ebene_1
 62
7
100
AcDbLine
 10
5.915755
 20
6.516473
 30
0.0
 11
6.287725
 21
6.516473
 31
0.0
  0
SPLINE
  5
17f
100
AcDbEntity
  8
Ebene_1
 62
7
100
AcDbSpline
 70
8
 71
3
 72
8
 73
4
 74
0
 40
0
 40
0
 40
0
 40
0
 40
1
 40
1
 40
1
 40
1
 10
17.142521
 20
5.185436
 30
0.0
 10
17.205269
 20
5.185648
 30
0.0
 10
17.263367
 20
5.152282
 30
0.0
 10
17.294820
 20
5.097956
 30
0.0
  0
SPLINE
  5
180
100
AcDbEntity
  8
Ebene_1
 62
7
100
AcDbSpline
 70
8
 71
3
 72
8
 73
4
 74
0
 40
0
 40
0
 40
0
 40
0
 40
1
 40
1
 40
1
 40
1
 10
17.294820
 20
5.097956
 30
0.0
 10
17.326248
 20
5.043629
 30
0.0
 10
17.326248
 20
4.976657
 30
0.0
 10
17.294820
 20
4.922331
 30
0.0
  0
SPLINE
  5
181
100
AcDbEntity
  8
Ebene_1
 62
7
100
AcDbSpline
 70
8
 71
3
 72
8
 73
4
 74
0
 40
0
 40
0
 40
0
 40
0
 40
1
 40
1
 40
1
 40
1
 10
17.294820
 20
4.922331
 30
0.0
 10
17.263367
 20
4.868005
 30
0.0
 10
17.205269
 20
4.834665
 30
0.0
 10
17.142521
 20
4.834878
 30
0.0
  0
SPLINE
  5
182
100
AcDbEntity
  8
Ebene_1
 62
7
100
AcDbSpline
 70
8
 71
3
 72
8
 73
4
 74
0
 40
0
 40
0
 40
0
 40
0
 40
1
 40
1
 40
1
 40
1
 10
17.142521
 20
4.834878
 30
0.0
 10
17.079746
 20
4.834666
 30
0.0
 10
17.021649
 20
4.868005
 30
0.0
 10
16.990221
 20
4.922331
 30
0.0
  0
SPLINE
  5
183
100
AcDbEntity
  8
Ebene_1
 62
7
100
AcDbSpline
 70
8
 71
3
 72
8
 73
4
 74
0
 40
0
 40
0
 40
0
 40
0
 40
1
 40
1
 40
1
 40
1
 10
16.990221
 20
4.922331
 30
0.0
 10
16.958768
 20
4.976657
 30
0.0
 10
16.958768
 20
5.043629
 30
0.0
 10
16.990221
 20
5.097956
 30
0.0
  0
SPLINE
  5
184
100
AcDbEntity
  8
Ebene_1
 62
7
100
AcDbSpline
 70
8
 71
3
 72
8
 73
4
 74
0
 40
0
 40
0
 40
0
 40
0
 40
1
 40
1
 40
1
 40
1
 10
16.990221
 20
5.097956
 30
0.0
 10
17.021649
 20
5.152282
 30
0.0
 10
17.079746
 20
5.185648
 30
0.0
 10
17.142521
 20
5.185436
 30
0.0
  0
LINE
  5
185
100
AcDbEntity
  8
Ebene_1
 62
7
100
AcDbLine
 10
17.142521
 20
5.185436
 30
0.0
 11
17.142521
 21
5.185436
 31
0.0
  0
LINE
  5
186
100
AcDbEntity
  8
Ebene_1
 62
7
100
AcDbLine
 10
17.142521
 20
5.185436
 30
0.0
 11
17.142521
 21
5.185436
 31
0.0
  0
LINE
  5
187
100
AcDbEntity
  8
Ebene_1
 62
7
100
AcDbLine
 10
18.725957
 20
4.012622
 30
0.0
 11
18.725957
 21
6.007665
 31
0.0
  0
LINE
  5
188
100
AcDbEntity
  8
Ebene_1
 62
7
100
AcDbLine
 10
18.725957
 20
6.007665
 30
0.0
 11
18.353987
 21
6.007665
 31
0.0
  0
LINE
  5
189
100
AcDbEntity
  8
Ebene_1
 62
7
100
AcDbLine
 10
18.353987
 20
6.007665
 30
0.0
 11
18.353987
 21
4.012622
 31
0.0
  0
LINE
  5
18a
100
AcDbEntity
  8
Ebene_1
 62
7
100
AcDbLine
 10
18.353987
 20
4.012622
 30
0.0
 11
18.725957
 21
4.012622
 31
0.0
  0
LINE
  5
18b
100
AcDbEntity
  8
Ebene_1
 62
7
100
AcDbLine
 10
13.495901
 20
4.012622
 30
0.0
 11
13.495901
 21
6.007665
 31
0.0
  0
LINE
  5
18c
100
AcDbEntity
  8
Ebene_1
 62
7
100
AcDbLine
 10
13.495901
 20
6.007665
 30
0.0
 11
13.867871
 21
6.007665
 31
0.0
  0
LINE
  5
18d
100
AcDbEntity
  8
Ebene_1
 62
7
100
AcDbLine
 10
13.867871
 20
6.007665
 30
0.0
 11
13.867871
 21
4.012622
 31
0.0
  0
LINE
  5
18e
100
AcDbEntity
  8
Ebene_1
 62
7
100
AcDbLine
 10
13.867871
 20
4.012622
 30
0.0
 11
13.495901
 21
4.012622
 31
0.0
  0
LINE
  5
18f
100
AcDbEntity
  8
Ebene_1
 62
7
100
AcDbLine
 10
17.434343
 20
9.088890
 30
0.0
 11
17.752306
 21
9.088890
 31
0.0
  0
LINE
  5
190
100
AcDbEntity
  8
Ebene_1
 62
7
100
AcDbLine
 10
17.752306
 20
9.176264
 30
0.0
 11
17.752306
 21
14.998911
 31
0.0
  0
LINE
  5
191
100
AcDbEntity
  8
Ebene_1
 62
7
100
AcDbLine
 10
17.752306
 20
14.998911
 30
0.0
 11
17.434343
 21
14.998911
 31
0.0
  0
LINE
  5
192
100
AcDbEntity
  8
Ebene_1
 62
7
100
AcDbLine
 10
17.434343
 20
14.998911
 30
0.0
 11
17.434343
 21
15.433746
 31
0.0
  0
LINE
  5
193
100
AcDbEntity
  8
Ebene_1
 62
7
100
AcDbLine
 10
17.434343
 20
15.499681
 30
0.0
 11
12.394576
 21
15.499681
 31
0.0
  0
LINE
  5
194
100
AcDbEntity
  8
Ebene_1
 62
7
100
AcDbLine
 10
12.394576
 20
15.400603
 30
0.0
 11
12.394576
 21
14.998911
 31
0.0
  0
LINE
  5
195
100
AcDbEntity
  8
Ebene_1
 62
7
100
AcDbLine
 10
12.394576
 20
14.998911
 30
0.0
 11
12.076586
 21
14.998911
 31
0.0
  0
LINE
  5
196
100
AcDbEntity
  8
Ebene_1
 62
7
100
AcDbLine
 10
12.076586
 20
14.998911
 30
0.0
 11
12.076586
 21
9.088890
 31
0.0
  0
LINE
  5
197
100
AcDbEntity
  8
Ebene_1
 62
7
100
AcDbLine
 10
12.076586
 20
9.088890
 30
0.0
 11
12.394576
 21
9.088890
 31
0.0
  0
LINE
  5
198
100
AcDbEntity
  8
Ebene_1
 62
7
100
AcDbLine
 10
12.394576
 20
9.088890
 30
0.0
 11
12.394576
 21
8.588131
 31
0.0
  0
LINE
  5
199
100
AcDbEntity
  8
Ebene_1
 62
7
100
AcDbLine
 10
12.470101
 20
8.588131
 30
0.0
 11
17.434343
 21
8.588131
 31
0.0
  0
LINE
  5
19a
100
AcDbEntity
  8
Ebene_1
 62
7
100
AcDbLine
 10
17.434343
 20
8.588131
 30
0.0
 11
17.434343
 21
9.088890
 31
0.0
  0
LINE
  5
19b
100
AcDbEntity
  8
Ebene_1
 62
7
100
AcDbLine
 10
0.825196
 20
28.993073
 30
0.0
 11
0.507206
 21
28.993073
 31
0.0
  0
LINE
  5
19c
100
AcDbEntity
  8
Ebene_1
 62
7
100
AcDbLine
 10
0.507206
 20
28.878794
 30
0.0
 11
0.507206
 21
22.404115
 31
0.0
  0
LINE
  5
19d
100
AcDbEntity
  8
Ebene_1
 62
7
100
AcDbLine
 10
0.507206
 20
22.404115
 30
0.0
 11
1.062321
 21
22.404115
 31
0.0
  0
LINE
  5
19e
100
AcDbEntity
  8
Ebene_1
 62
7
100
AcDbLine
 10
1.062321
 20
22.404115
 30
0.0
 11
1.062321
 21
22.654503
 31
0.0
  0
LINE
  5
19f
100
AcDbEntity
  8
Ebene_1
 62
7
100
AcDbLine
 10
1.062321
 20
22.654503
 30
0.0
 11
1.387800
 21
22.654503
 31
0.0
  0
LINE
  5
1a0
100
AcDbEntity
  8
Ebene_1
 62
7
100
AcDbLine
 10
1.387800
 20
22.654503
 30
0.0
 11
1.387800
 21
22.404115
 31
0.0
  0
LINE
  5
1a1
100
AcDbEntity
  8
Ebene_1
 62
7
100
AcDbLine
 10
1.387800
 20
22.404115
 30
0.0
 11
1.487951
 21
22.404115
 31
0.0
  0
LINE
  5
1a2
100
AcDbEntity
  8
Ebene_1
 62
7
100
AcDbLine
 10
1.487951
 20
22.404115
 30
0.0
 11
1.487951
 21
22.086132
 31
0.0
  0
LINE
  5
1a3
100
AcDbEntity
  8
Ebene_1
 62
7
100
AcDbLine
 10
1.487951
 20
22.086132
 30
0.0
 11
1.387800
 21
22.086132
 31
0.0
  0
LINE
  5
1a4
100
AcDbEntity
  8
Ebene_1
 62
7
100
AcDbLine
 10
1.387800
 20
22.086132
 30
0.0
 11
1.387800
 21
21.835752
 31
0.0
  0
LINE
  5
1a5
100
AcDbEntity
  8
Ebene_1
 62
7
100
AcDbLine
 10
1.387800
 20
21.835752
 30
0.0
 11
1.062321
 21
21.835752
 31
0.0
  0
LINE
  5
1a6
100
AcDbEntity
  8
Ebene_1
 62
7
100
AcDbLine
 10
1.062321
 20
21.835752
 30
0.0
 11
1.062321
 21
22.086132
 31
0.0
  0
LINE
  5
1a7
100
AcDbEntity
  8
Ebene_1
 62
7
100
AcDbLine
 10
1.062321
 20
22.086132
 30
0.0
 11
0.507206
 21
22.086132
 31
0.0
  0
LINE
  5
1a8
100
AcDbEntity
  8
Ebene_1
 62
7
100
AcDbLine
 10
0.507206
 20
22.086132
 30
0.0
 11
0.507206
 21
20.041093
 31
0.0
  0
LINE
  5
1a9
100
AcDbEntity
  8
Ebene_1
 62
7
100
AcDbLine
 10
0.507206
 20
20.041093
 30
0.0
 11
0.825196
 21
20.041093
 31
0.0
  0
LINE
  5
1aa
100
AcDbEntity
  8
Ebene_1
 62
7
100
AcDbLine
 10
0.825196
 20
20.041093
 30
0.0
 11
0.825196
 21
19.540323
 31
0.0
  0
LINE
  5
1ab
100
AcDbEntity
  8
Ebene_1
 62
7
100
AcDbLine
 10
0.825196
 20
19.540323
 30
0.0
 11
11.652097
 21
19.540323
 31
0.0
  0
LINE
  5
1ac
100
AcDbEntity
  8
Ebene_1
 62
7
100
AcDbLine
 10
11.652097
 20
19.540323
 30
0.0
 11
11.652097
 21
20.041093
 31
0.0
  0
LINE
  5
1ad
100
AcDbEntity
  8
Ebene_1
 62
7
100
AcDbLine
 10
11.701111
 20
20.041093
 30
0.0
 11
11.970086
 21
20.041093
 31
0.0
  0
LINE
  5
1ae
100
AcDbEntity
  8
Ebene_1
 62
7
100
AcDbLine
 10
11.970086
 20
20.041093
 30
0.0
 11
11.970086
 21
24.358087
 31
0.0
  0
LINE
  5
1af
100
AcDbEntity
  8
Ebene_1
 62
7
100
AcDbLine
 10
11.970086
 20
24.358087
 30
0.0
 11
11.404560
 21
24.358087
 31
0.0
  0
LINE
  5
1b0
100
AcDbEntity
  8
Ebene_1
 62
7
100
AcDbLine
 10
11.404560
 20
24.358087
 30
0.0
 11
11.404560
 21
24.107697
 31
0.0
  0
LINE
  5
1b1
100
AcDbEntity
  8
Ebene_1
 62
7
100
AcDbLine
 10
11.404560
 20
24.107697
 30
0.0
 11
11.079054
 21
24.107697
 31
0.0
  0
LINE
  5
1b2
100
AcDbEntity
  8
Ebene_1
 62
7
100
AcDbLine
 10
11.079054
 20
24.107697
 30
0.0
 11
11.079054
 21
24.358087
 31
0.0
  0
LINE
  5
1b3
100
AcDbEntity
  8
Ebene_1
 62
7
100
AcDbLine
 10
11.079054
 20
24.358087
 30
0.0
 11
10.978901
 21
24.358087
 31
0.0
  0
LINE
  5
1b4
100
AcDbEntity
  8
Ebene_1
 62
7
100
AcDbLine
 10
10.978901
 20
24.358087
 30
0.0
 11
10.978901
 21
24.676079
 31
0.0
  0
LINE
  5
1b5
100
AcDbEntity
  8
Ebene_1
 62
7
100
AcDbLine
 10
10.978901
 20
24.676079
 30
0.0
 11
11.079054
 21
24.676079
 31
0.0
  0
LINE
  5
1b6
100
AcDbEntity
  8
Ebene_1
 62
7
100
AcDbLine
 10
11.079054
 20
24.676079
 30
0.0
 11
11.079054
 21
24.926459
 31
0.0
  0
LINE
  5
1b7
100
AcDbEntity
  8
Ebene_1
 62
7
100
AcDbLine
 10
11.079054
 20
24.926459
 30
0.0
 11
11.404560
 21
24.926459
 31
0.0
  0
LINE
  5
1b8
100
AcDbEntity
  8
Ebene_1
 62
7
100
AcDbLine
 10
11.404560
 20
24.926459
 30
0.0
 11
11.404560
 21
24.676079
 31
0.0
  0
LINE
  5
1b9
100
AcDbEntity
  8
Ebene_1
 62
7
100
AcDbLine
 10
11.404560
 20
24.676079
 30
0.0
 11
11.970086
 21
24.676079
 31
0.0
  0
LINE
  5
1ba
100
AcDbEntity
  8
Ebene_1
 62
7
100
AcDbLine
 10
11.970086
 20
24.676079
 30
0.0
 11
11.970086
 21
28.993073
 31
0.0
  0
LINE
  5
1bb
100
AcDbEntity
  8
Ebene_1
 62
7
100
AcDbLine
 10
11.970086
 20
28.993073
 30
0.0
 11
11.652097
 21
28.993073
 31
0.0
  0
LINE
  5
1bc
100
AcDbEntity
  8
Ebene_1
 62
7
100
AcDbLine
 10
11.652097
 20
28.993073
 30
0.0
 11
11.652097
 21
29.493833
 31
0.0
  0
LINE
  5
1bd
100
AcDbEntity
  8
Ebene_1
 62
7
100
AcDbLine
 10
11.539035
 20
29.493833
 30
0.0
 11
0.825196
 21
29.493833
 31
0.0
  0
LINE
  5
1be
100
AcDbEntity
  8
Ebene_1
 62
7
100
AcDbLine
 10
0.825196
 20
29.493833
 30
0.0
 11
0.825196
 21
28.993073
 31
0.0
  0
SPLINE
  5
1bf
100
AcDbEntity
  8
Ebene_1
 62
7
100
AcDbSpline
 70
8
 71
3
 72
8
 73
4
 74
0
 40
0
 40
0
 40
0
 40
0
 40
1
 40
1
 40
1
 40
1
 10
18.289140
 20
11.789486
 30
0.0
 10
18.385893
 20
10.899993
 30
0.0
 10
19.135941
 20
10.225468
 30
0.0
 10
20.030696
 20
10.223317
 30
0.0
  0
SPLINE
  5
1c0
100
AcDbEntity
  8
Ebene_1
 62
7
100
AcDbSpline
 70
8
 71
3
 72
8
 73
4
 74
0
 40
0
 40
0
 40
0
 40
0
 40
1
 40
1
 40
1
 40
1
 10
20.084914
 20
10.224193
 30
0.0
 10
20.979110
 20
10.221537
 30
0.0
 10
21.731895
 20
10.892581
 30
0.0
 10
21.832791
 20
11.781038
 30
0.0
  0
LINE
  5
1c1
100
AcDbEntity
  8
Ebene_1
 62
7
100
AcDbLine
 10
21.832791
 20
11.781038
 30
0.0
 11
22.237731
 21
15.346223
 31
0.0
  0
LINE
  5
1c2
100
AcDbEntity
  8
Ebene_1
 62
7
100
AcDbLine
 10
22.160901
 20
15.346223
 30
0.0
 11
21.736943
 21
15.347552
 31
0.0
  0
LINE
  5
1c3
100
AcDbEntity
  8
Ebene_1
 62
7
100
AcDbLine
 10
21.736943
 20
15.347437
 30
0.0
 11
21.736943
 21
15.665421
 31
0.0
  0
LINE
  5
1c4
100
AcDbEntity
  8
Ebene_1
 62
7
100
AcDbLine
 10
21.737713
 20
15.665421
 30
0.0
 11
20.230017
 21
15.669060
 31
0.0
  0
LINE
  5
1c5
100
AcDbEntity
  8
Ebene_1
 62
7
100
AcDbLine
 10
20.230017
 20
15.669066
 30
0.0
 11
20.227358
 21
15.103523
 31
0.0
  0
LINE
  5
1c6
100
AcDbEntity
  8
Ebene_1
 62
7
100
AcDbLine
 10
20.228633
 20
15.103523
 30
0.0
 11
20.479014
 21
15.102992
 31
0.0
  0
LINE
  5
1c7
100
AcDbEntity
  8
Ebene_1
 62
7
100
AcDbLine
 10
20.479014
 20
15.102912
 30
0.0
 11
20.479014
 21
14.777429
 31
0.0
  0
LINE
  5
1c8
100
AcDbEntity
  8
Ebene_1
 62
7
100
AcDbLine
 10
20.478217
 20
14.777429
 30
0.0
 11
20.227837
 21
14.777961
 31
0.0
  0
LINE
  5
1c9
100
AcDbEntity
  8
Ebene_1
 62
7
100
AcDbLine
 10
20.227837
 20
14.778030
 30
0.0
 11
20.227572
 21
14.677878
 31
0.0
  0
LINE
  5
1ca
100
AcDbEntity
  8
Ebene_1
 62
7
100
AcDbLine
 10
20.227599
 20
14.677878
 30
0.0
 11
19.909609
 21
14.678674
 31
0.0
  0
LINE
  5
1cb
100
AcDbEntity
  8
Ebene_1
 62
7
100
AcDbLine
 10
19.909609
 20
14.678651
 30
0.0
 11
19.909874
 21
14.778806
 31
0.0
  0
LINE
  5
1cc
100
AcDbEntity
  8
Ebene_1
 62
7
100
AcDbLine
 10
19.909847
 20
14.778806
 30
0.0
 11
19.659469
 21
14.779337
 31
0.0
  0
LINE
  5
1cd
100
AcDbEntity
  8
Ebene_1
 62
7
100
AcDbLine
 10
19.659469
 20
14.779406
 30
0.0
 11
19.659469
 21
15.104899
 31
0.0
  0
LINE
  5
1ce
100
AcDbEntity
  8
Ebene_1
 62
7
100
AcDbLine
 10
19.660266
 20
15.104899
 30
0.0
 11
19.910646
 21
15.104368
 31
0.0
  0
LINE
  5
1cf
100
AcDbEntity
  8
Ebene_1
 62
7
100
AcDbLine
 10
19.910646
 20
15.104307
 30
0.0
 11
19.910646
 21
15.351855
 31
0.0
  0
LINE
  5
1d0
100
AcDbEntity
  8
Ebene_1
 62
7
100
AcDbLine
 10
19.911228
 20
15.351855
 30
0.0
 11
19.911228
 21
15.669828
 31
0.0
  0
LINE
  5
1d1
100
AcDbEntity
  8
Ebene_1
 62
7
100
AcDbLine
 10
19.912001
 20
15.669828
 30
0.0
 11
18.402789
 21
15.673494
 31
0.0
  0
LINE
  5
1d2
100
AcDbEntity
  8
Ebene_1
 62
7
100
AcDbLine
 10
18.402789
 20
15.673484
 30
0.0
 11
18.402789
 21
15.355489
 31
0.0
  0
LINE
  5
1d3
100
AcDbEntity
  8
Ebene_1
 62
7
100
AcDbLine
 10
18.402017
 20
15.355489
 30
0.0
 11
18.024628
 21
15.356817
 31
0.0
  0
LINE
  5
1d4
100
AcDbEntity
  8
Ebene_1
 62
7
100
AcDbLine
 10
17.901259
 20
15.356706
 30
0.0
 11
18.289140
 21
11.789486
 31
0.0
  0
SPLINE
  5
1d5
100
AcDbEntity
  8
Ebene_1
 62
7
100
AcDbSpline
 70
8
 71
3
 72
8
 73
4
 74
0
 40
0
 40
0
 40
0
 40
0
 40
1
 40
1
 40
1
 40
1
 10
19.974189
 20
12.134226
 30
0.0
 10
19.919891
 20
12.103038
 30
0.0
 10
19.886339
 20
12.045285
 30
0.0
 10
19.886178
 20
11.982643
 30
0.0
  0
SPLINE
  5
1d6
100
AcDbEntity
  8
Ebene_1
 62
7
100
AcDbSpline
 70
8
 71
3
 72
8
 73
4
 74
0
 40
0
 40
0
 40
0
 40
0
 40
1
 40
1
 40
1
 40
1
 10
19.886178
 20
11.982643
 30
0.0
 10
19.885913
 20
11.920028
 30
0.0
 10
19.919306
 20
11.862089
 30
0.0
 10
19.973445
 20
11.830662
 30
0.0
  0
SPLINE
  5
1d7
100
AcDbEntity
  8
Ebene_1
 62
7
100
AcDbSpline
 70
8
 71
3
 72
8
 73
4
 74
0
 40
0
 40
0
 40
0
 40
0
 40
1
 40
1
 40
1
 40
1
 10
19.973445
 20
11.830662
 30
0.0
 10
20.027613
 20
11.799235
 30
0.0
 10
20.094426
 20
11.799049
 30
0.0
 10
20.148726
 20
11.830662
 30
0.0
  0
SPLINE
  5
1d8
100
AcDbEntity
  8
Ebene_1
 62
7
100
AcDbSpline
 70
8
 71
3
 72
8
 73
4
 74
0
 40
0
 40
0
 40
0
 40
0
 40
1
 40
1
 40
1
 40
1
 10
20.148726
 20
11.830237
 30
0.0
 10
20.203024
 20
11.861398
 30
0.0
 10
20.236578
 20
11.919178
 30
0.0
 10
20.236737
 20
11.981820
 30
0.0
  0
SPLINE
  5
1d9
100
AcDbEntity
  8
Ebene_1
 62
7
100
AcDbSpline
 70
8
 71
3
 72
8
 73
4
 74
0
 40
0
 40
0
 40
0
 40
0
 40
1
 40
1
 40
1
 40
1
 10
20.236737
 20
11.981820
 30
0.0
 10
20.236737
 20
12.044435
 30
0.0
 10
20.203609
 20
12.102374
 30
0.0
 10
20.149443
 20
12.133801
 30
0.0
  0
SPLINE
  5
1da
100
AcDbEntity
  8
Ebene_1
 62
7
100
AcDbSpline
 70
8
 71
3
 72
8
 73
4
 74
0
 40
0
 40
0
 40
0
 40
0
 40
1
 40
1
 40
1
 40
1
 10
20.149443
 20
12.133801
 30
0.0
 10
20.095302
 20
12.165255
 30
0.0
 10
20.028489
 20
12.165414
 30
0.0
 10
19.974189
 20
12.133801
 30
0.0
  0
LINE
  5
1db
100
AcDbEntity
  8
Ebene_1
 62
7
100
AcDbLine
 10
19.974189
 20
12.134226
 30
0.0
 11
19.974189
 21
12.134226
 31
0.0
  0
LINE
  5
1dc
100
AcDbEntity
  8
Ebene_1
 62
7
100
AcDbLine
 10
19.974189
 20
12.134226
 30
0.0
 11
19.974189
 21
12.134226
 31
0.0
  0
LINE
  5
1dd
100
AcDbEntity
  8
Ebene_1
 62
7
100
AcDbLine
 10
26.475539
 20
6.496602
 30
0.0
 11
26.475539
 21
2.495919
 31
0.0
  0
SPLINE
  5
1de
100
AcDbEntity
  8
Ebene_1
 62
7
100
AcDbSpline
 70
8
 71
3
 72
8
 73
4
 74
0
 40
0
 40
0
 40
0
 40
0
 40
1
 40
1
 40
1
 40
1
 10
26.475539
 20
2.400867
 30
0.0
 10
26.475539
 20
2.234939
 30
0.0
 10
26.341011
 20
2.100412
 30
0.0
 10
26.175083
 20
2.100412
 30
0.0
  0
LINE
  5
1df
100
AcDbEntity
  8
Ebene_1
 62
7
100
AcDbLine
 10
26.175083
 20
2.100412
 30
0.0
 11
19.957321
 21
2.100412
 31
0.0
  0
SPLINE
  5
1e0
100
AcDbEntity
  8
Ebene_1
 62
7
100
AcDbSpline
 70
8
 71
3
 72
8
 73
4
 74
0
 40
0
 40
0
 40
0
 40
0
 40
1
 40
1
 40
1
 40
1
 10
19.869255
 20
2.100412
 30
0.0
 10
19.789560
 20
2.100412
 30
0.0
 10
19.713156
 20
2.132077
 30
0.0
 10
19.656813
 20
2.188423
 30
0.0
  0
SPLINE
  5
1e1
100
AcDbEntity
  8
Ebene_1
 62
7
100
AcDbSpline
 70
8
 71
3
 72
8
 73
4
 74
0
 40
0
 40
0
 40
0
 40
0
 40
1
 40
1
 40
1
 40
1
 10
19.656813
 20
2.188423
 30
0.0
 10
19.600441
 20
2.244769
 30
0.0
 10
19.568799
 20
2.321196
 30
0.0
 10
19.568799
 20
2.400867
 30
0.0
  0
LINE
  5
1e2
100
AcDbEntity
  8
Ebene_1
 62
7
100
AcDbLine
 10
19.568799
 20
2.400867
 30
0.0
 11
19.568799
 21
6.496602
 31
0.0
  0
SPLINE
  5
1e3
100
AcDbEntity
  8
Ebene_1
 62
7
100
AcDbSpline
 70
8
 71
3
 72
8
 73
4
 74
0
 40
0
 40
0
 40
0
 40
0
 40
1
 40
1
 40
1
 40
1
 10
19.568799
 20
6.496602
 30
0.0
 10
19.568799
 20
6.576299
 30
0.0
 10
19.600441
 20
6.652728
 30
0.0
 10
19.656813
 20
6.709073
 30
0.0
  0
SPLINE
  5
1e4
100
AcDbEntity
  8
Ebene_1
 62
7
100
AcDbSpline
 70
8
 71
3
 72
8
 73
4
 74
0
 40
0
 40
0
 40
0
 40
0
 40
1
 40
1
 40
1
 40
1
 10
19.656813
 20
6.709073
 30
0.0
 10
19.713156
 20
6.765419
 30
0.0
 10
19.789560
 20
6.797058
 30
0.0
 10
19.869255
 20
6.797058
 30
0.0
  0
LINE
  5
1e5
100
AcDbEntity
  8
Ebene_1
 62
7
100
AcDbLine
 10
19.869255
 20
6.797058
 30
0.0
 11
26.175083
 21
6.797058
 31
0.0
  0
SPLINE
  5
1e6
100
AcDbEntity
  8
Ebene_1
 62
7
100
AcDbSpline
 70
8
 71
3
 72
8
 73
4
 74
0
 40
0
 40
0
 40
0
 40
0
 40
1
 40
1
 40
1
 40
1
 10
26.175083
 20
6.797058
 30
0.0
 10
26.341011
 20
6.797058
 30
0.0
 10
26.475539
 20
6.662531
 30
0.0
 10
26.475539
 20
6.496602
 30
0.0
  0
LINE
  5
1e7
100
AcDbEntity
  8
Ebene_1
 62
7
100
AcDbLine
 10
26.475539
 20
6.496602
 30
0.0
 11
26.475539
 21
6.496602
 31
0.0
  0
LINE
  5
1e8
100
AcDbEntity
  8
Ebene_1
 62
7
100
AcDbLine
 10
26.475539
 20
6.496602
 30
0.0
 11
26.475539
 21
6.496602
 31
0.0
  0
LINE
  5
1e9
100
AcDbEntity
  8
Ebene_1
 62
7
100
AcDbLine
 10
25.480951
 20
5.033189
 30
0.0
 11
21.292396
 21
5.033189
 31
0.0
  0
LINE
  5
1ea
100
AcDbEntity
  8
Ebene_1
 62
7
100
AcDbLine
 10
21.292396
 20
5.033189
 30
0.0
 11
21.292396
 21
2.991312
 31
0.0
  0
LINE
  5
1eb
100
AcDbEntity
  8
Ebene_1
 62
7
100
AcDbLine
 10
21.292396
 20
2.991312
 30
0.0
 11
25.480951
 21
2.991312
 31
0.0
  0
LINE
  5
1ec
100
AcDbEntity
  8
Ebene_1
 62
7
100
AcDbLine
 10
25.480951
 20
2.991312
 30
0.0
 11
25.480951
 21
5.033189
 31
0.0
  0
LINE
  5
1ed
100
AcDbEntity
  8
Ebene_1
 62
7
100
AcDbLine
 10
20.798622
 20
3.372500
 30
0.0
 11
21.116612
 21
3.372500
 31
0.0
  0
LINE
  5
1ee
100
AcDbEntity
  8
Ebene_1
 62
7
100
AcDbLine
 10
21.116612
 20
3.372500
 30
0.0
 11
21.116612
 21
3.690515
 31
0.0
  0
LINE
  5
1ef
100
AcDbEntity
  8
Ebene_1
 62
7
100
AcDbLine
 10
21.116612
 20
3.690515
 30
0.0
 11
20.798622
 21
3.690515
 31
0.0
  0
LINE
  5
1f0
100
AcDbEntity
  8
Ebene_1
 62
7
100
AcDbLine
 10
20.798622
 20
3.690515
 30
0.0
 11
20.798622
 21
3.372500
 31
0.0
  0
LINE
  5
1f1
100
AcDbEntity
  8
Ebene_1
 62
7
100
AcDbLine
 10
20.049211
 20
2.920088
 30
0.0
 11
20.049211
 21
5.977380
 31
0.0
  0
LINE
  5
1f2
100
AcDbEntity
  8
Ebene_1
 62
7
100
AcDbLine
 10
20.049211
 20
5.977380
 30
0.0
 11
20.407899
 21
5.977380
 31
0.0
  0
LINE
  5
1f3
100
AcDbEntity
  8
Ebene_1
 62
7
100
AcDbLine
 10
20.407899
 20
5.977380
 30
0.0
 11
20.407899
 21
2.920088
 31
0.0
  0
LINE
  5
1f4
100
AcDbEntity
  8
Ebene_1
 62
7
100
AcDbLine
 10
20.407899
 20
2.920088
 30
0.0
 11
20.049211
 21
2.920088
 31
0.0
  0
LINE
  5
1f5
100
AcDbEntity
  8
Ebene_1
 62
7
100
AcDbLine
 10
25.636359
 20
2.920088
 30
0.0
 11
25.636359
 21
5.977380
 31
0.0
  0
LINE
  5
1f6
100
AcDbEntity
  8
Ebene_1
 62
7
100
AcDbLine
 10
25.636359
 20
5.977380
 30
0.0
 11
25.995047
 21
5.977380
 31
0.0
  0
LINE
  5
1f7
100
AcDbEntity
  8
Ebene_1
 62
7
100
AcDbLine
 10
25.995047
 20
5.977380
 30
0.0
 11
25.995047
 21
2.920088
 31
0.0
  0
LINE
  5
1f8
100
AcDbEntity
  8
Ebene_1
 62
7
100
AcDbLine
 10
25.995047
 20
2.920088
 30
0.0
 11
25.636359
 21
2.920088
 31
0.0
  0
SPLINE
  5
1f9
100
AcDbEntity
  8
Ebene_1
 62
7
100
AcDbSpline
 70
8
 71
3
 72
8
 73
4
 74
0
 40
0
 40
0
 40
0
 40
0
 40
1
 40
1
 40
1
 40
1
 10
22.410858
 20
27.626653
 30
0.0
 10
22.410858
 20
27.553667
 30
0.0
 10
22.371938
 20
27.486225
 30
0.0
 10
22.308713
 20
27.449727
 30
0.0
  0
SPLINE
  5
1fa
100
AcDbEntity
  8
Ebene_1
 62
7
100
AcDbSpline
 70
8
 71
3
 72
8
 73
4
 74
0
 40
0
 40
0
 40
0
 40
0
 40
1
 40
1
 40
1
 40
1
 10
22.308713
 20
27.449727
 30
0.0
 10
22.245486
 20
27.413221
 30
0.0
 10
22.167624
 20
27.413221
 30
0.0
 10
22.104397
 20
27.449727
 30
0.0
  0
SPLINE
  5
1fb
100
AcDbEntity
  8
Ebene_1
 62
7
100
AcDbSpline
 70
8
 71
3
 72
8
 73
4
 74
0
 40
0
 40
0
 40
0
 40
0
 40
1
 40
1
 40
1
 40
1
 10
22.104397
 20
27.449727
 30
0.0
 10
22.041172
 20
27.486225
 30
0.0
 10
22.002254
 20
27.553667
 30
0.0
 10
22.002254
 20
27.626653
 30
0.0
  0
SPLINE
  5
1fc
100
AcDbEntity
  8
Ebene_1
 62
7
100
AcDbSpline
 70
8
 71
3
 72
8
 73
4
 74
0
 40
0
 40
0
 40
0
 40
0
 40
1
 40
1
 40
1
 40
1
 10
22.002254
 20
27.626653
 30
0.0
 10
22.002254
 20
27.739498
 30
0.0
 10
22.093718
 20
27.830966
 30
0.0
 10
22.206568
 20
27.830966
 30
0.0
  0
SPLINE
  5
1fd
100
AcDbEntity
  8
Ebene_1
 62
7
100
AcDbSpline
 70
8
 71
3
 72
8
 73
4
 74
0
 40
0
 40
0
 40
0
 40
0
 40
1
 40
1
 40
1
 40
1
 10
22.206568
 20
27.830966
 30
0.0
 10
22.319418
 20
27.830966
 30
0.0
 10
22.410858
 20
27.739498
 30
0.0
 10
22.410858
 20
27.626653
 30
0.0
  0
LINE
  5
1fe
100
AcDbEntity
  8
Ebene_1
 62
7
100
AcDbLine
 10
22.410858
 20
27.626653
 30
0.0
 11
22.410858
 21
27.626653
 31
0.0
  0
LINE
  5
1ff
100
AcDbEntity
  8
Ebene_1
 62
7
100
AcDbLine
 10
22.410858
 20
27.626653
 30
0.0
 11
22.410858
 21
27.626653
 31
0.0
  0
LINE
  5
200
100
AcDbEntity
  8
Ebene_1
 62
7
100
AcDbLine
 10
26.055988
 20
29.126031
 30
0.0
 11
20.411669
 21
29.126031
 31
0.0
  0
SPLINE
  5
201
100
AcDbEntity
  8
Ebene_1
 62
7
100
AcDbSpline
 70
8
 71
3
 72
8
 73
4
 74
0
 40
0
 40
0
 40
0
 40
0
 40
1
 40
1
 40
1
 40
1
 10
20.349640
 20
29.126031
 30
0.0
 10
20.296509
 20
29.126031
 30
0.0
 10
20.245556
 20
29.104911
 30
0.0
 10
20.208019
 20
29.067353
 30
0.0
  0
SPLINE
  5
202
100
AcDbEntity
  8
Ebene_1
 62
7
100
AcDbSpline
 70
8
 71
3
 72
8
 73
4
 74
0
 40
0
 40
0
 40
0
 40
0
 40
1
 40
1
 40
1
 40
1
 10
20.208019
 20
29.067353
 30
0.0
 10
20.170430
 20
29.029782
 30
0.0
 10
20.149337
 20
28.978837
 30
0.0
 10
20.149337
 20
28.925722
 30
0.0
  0
LINE
  5
203
100
AcDbEntity
  8
Ebene_1
 62
7
100
AcDbLine
 10
20.149337
 20
28.925722
 30
0.0
 11
20.149337
 21
26.327621
 31
0.0
  0
SPLINE
  5
204
100
AcDbEntity
  8
Ebene_1
 62
7
100
AcDbSpline
 70
8
 71
3
 72
8
 73
4
 74
0
 40
0
 40
0
 40
0
 40
0
 40
1
 40
1
 40
1
 40
1
 10
20.149337
 20
26.327621
 30
0.0
 10
20.149337
 20
26.274498
 30
0.0
 10
20.170324
 20
26.223543
 30
0.0
 10
20.208019
 20
26.185972
 30
0.0
  0
SPLINE
  5
205
100
AcDbEntity
  8
Ebene_1
 62
7
100
AcDbSpline
 70
8
 71
3
 72
8
 73
4
 74
0
 40
0
 40
0
 40
0
 40
0
 40
1
 40
1
 40
1
 40
1
 10
20.208019
 20
26.185972
 30
0.0
 10
20.245556
 20
26.148408
 30
0.0
 10
20.296509
 20
26.127312
 30
0.0
 10
20.349640
 20
26.127312
 30
0.0
  0
LINE
  5
206
100
AcDbEntity
  8
Ebene_1
 62
7
100
AcDbLine
 10
20.397165
 20
26.127312
 30
0.0
 11
26.126653
 21
26.127312
 31
0.0
  0
SPLINE
  5
207
100
AcDbEntity
  8
Ebene_1
 62
7
100
AcDbSpline
 70
8
 71
3
 72
8
 73
4
 74
0
 40
0
 40
0
 40
0
 40
0
 40
1
 40
1
 40
1
 40
1
 10
26.126653
 20
26.127312
 30
0.0
 10
26.179758
 20
26.127312
 30
0.0
 10
26.230709
 20
26.148405
 30
0.0
 10
26.268274
 20
26.185972
 30
0.0
  0
SPLINE
  5
208
100
AcDbEntity
  8
Ebene_1
 62
7
100
AcDbSpline
 70
8
 71
3
 72
8
 73
4
 74
0
 40
0
 40
0
 40
0
 40
0
 40
1
 40
1
 40
1
 40
1
 10
26.268274
 20
26.185972
 30
0.0
 10
26.305863
 20
26.223543
 30
0.0
 10
26.326956
 20
26.274498
 30
0.0
 10
26.326956
 20
26.327621
 30
0.0
  0
LINE
  5
209
100
AcDbEntity
  8
Ebene_1
 62
7
100
AcDbLine
 10
26.326956
 20
26.398278
 30
0.0
 11
26.326956
 21
28.840760
 31
0.0
  0
SPLINE
  5
20a
100
AcDbEntity
  8
Ebene_1
 62
7
100
AcDbSpline
 70
8
 71
3
 72
8
 73
4
 74
0
 40
0
 40
0
 40
0
 40
0
 40
1
 40
1
 40
1
 40
1
 10
26.326956
 20
28.925722
 30
0.0
 10
26.326956
 20
28.978837
 30
0.0
 10
26.305969
 20
29.029782
 30
0.0
 10
26.268274
 20
29.067353
 30
0.0
  0
SPLINE
  5
20b
100
AcDbEntity
  8
Ebene_1
 62
7
100
AcDbSpline
 70
8
 71
3
 72
8
 73
4
 74
0
 40
0
 40
0
 40
0
 40
0
 40
1
 40
1
 40
1
 40
1
 10
26.268274
 20
29.067353
 30
0.0
 10
26.230709
 20
29.104914
 30
0.0
 10
26.179758
 20
29.126031
 30
0.0
 10
26.126653
 20
29.126031
 30
0.0
  0
LINE
  5
20c
100
AcDbEntity
  8
Ebene_1
 62
7
100
AcDbLine
 10
26.126653
 20
29.126031
 30
0.0
 11
26.126653
 21
29.126031
 31
0.0
  0
LINE
  5
20d
100
AcDbEntity
  8
Ebene_1
 62
7
100
AcDbLine
 10
26.126653
 20
29.126031
 30
0.0
 11
26.126653
 21
29.126031
 31
0.0
  0
LINE
  5
20e
100
AcDbEntity
  8
Ebene_1
 62
7
100
AcDbLine
 10
25.487833
 20
28.624336
 30
0.0
 11
25.846520
 21
28.624336
 31
0.0
  0
LINE
  5
20f
100
AcDbEntity
  8
Ebene_1
 62
7
100
AcDbLine
 10
25.846520
 20
28.624336
 30
0.0
 11
25.846520
 21
26.628996
 31
0.0
  0
LINE
  5
210
100
AcDbEntity
  8
Ebene_1
 62
7
100
AcDbLine
 10
25.846520
 20
26.628996
 30
0.0
 11
25.487833
 21
26.628996
 31
0.0
  0
LINE
  5
211
100
AcDbEntity
  8
Ebene_1
 62
7
100
AcDbLine
 10
25.487833
 20
26.628996
 30
0.0
 11
25.487833
 21
28.624336
 31
0.0
  0
LINE
  5
212
100
AcDbEntity
  8
Ebene_1
 62
7
100
AcDbLine
 10
20.629747
 20
28.624336
 30
0.0
 11
20.988461
 21
28.624336
 31
0.0
  0
LINE
  5
213
100
AcDbEntity
  8
Ebene_1
 62
7
100
AcDbLine
 10
20.988461
 20
28.624336
 30
0.0
 11
20.988461
 21
26.628996
 31
0.0
  0
LINE
  5
214
100
AcDbEntity
  8
Ebene_1
 62
7
100
AcDbLine
 10
20.988461
 20
26.628996
 30
0.0
 11
20.629747
 21
26.628996
 31
0.0
  0
LINE
  5
215
100
AcDbEntity
  8
Ebene_1
 62
7
100
AcDbLine
 10
20.629747
 20
26.628996
 30
0.0
 11
20.629747
 21
28.624336
 31
0.0
  0
LINE
  5
216
100
AcDbEntity
  8
Ebene_1
 62
7
100
AcDbLine
 10
11.985228
 20
27.951432
 30
0.0
 11
11.985228
 21
17.241669
 31
0.0
  0
SPLINE
  5
217
100
AcDbEntity
  8
Ebene_1
 62
7
100
AcDbSpline
 70
8
 71
3
 72
8
 73
4
 74
0
 40
0
 40
0
 40
0
 40
0
 40
1
 40
1
 40
1
 40
1
 10
11.985228
 20
17.241669
 30
0.0
 10
11.985228
 20
16.843232
 30
0.0
 10
12.143505
 20
16.461111
 30
0.0
 10
12.425233
 20
16.179373
 30
0.0
  0
SPLINE
  5
218
100
AcDbEntity
  8
Ebene_1
 62
7
100
AcDbSpline
 70
8
 71
3
 72
8
 73
4
 74
0
 40
0
 40
0
 40
0
 40
0
 40
1
 40
1
 40
1
 40
1
 10
12.425233
 20
16.179373
 30
0.0
 10
12.706988
 20
15.897649
 30
0.0
 10
13.089104
 20
15.739358
 30
0.0
 10
13.487535
 20
15.739358
 30
0.0
  0
LINE
  5
219
100
AcDbEntity
  8
Ebene_1
 62
7
100
AcDbLine
 10
13.599083
 20
15.739358
 30
0.0
 11
17.487821
 21
15.739358
 31
0.0
  0
SPLINE
  5
21a
100
AcDbEntity
  8
Ebene_1
 62
7
100
AcDbSpline
 70
8
 71
3
 72
8
 73
4
 74
0
 40
0
 40
0
 40
0
 40
0
 40
1
 40
1
 40
1
 40
1
 10
17.556067
 20
15.739358
 30
0.0
 10
18.220124
 20
15.739358
 30
0.0
 10
18.857005
 20
16.003154
 30
0.0
 10
19.326576
 20
16.472717
 30
0.0
  0
SPLINE
  5
21b
100
AcDbEntity
  8
Ebene_1
 62
7
100
AcDbSpline
 70
8
 71
3
 72
8
 73
4
 74
0
 40
0
 40
0
 40
0
 40
0
 40
1
 40
1
 40
1
 40
1
 10
19.326576
 20
16.472717
 30
0.0
 10
19.796121
 20
16.942281
 30
0.0
 10
20.059916
 20
17.579152
 30
0.0
 10
20.059916
 20
18.243209
 30
0.0
  0
LINE
  5
21c
100
AcDbEntity
  8
Ebene_1
 62
7
100
AcDbLine
 10
20.059916
 20
18.351907
 30
0.0
 11
20.059916
 21
26.949892
 31
0.0
  0
SPLINE
  5
21d
100
AcDbEntity
  8
Ebene_1
 62
7
100
AcDbSpline
 70
8
 71
3
 72
8
 73
4
 74
0
 40
0
 40
0
 40
0
 40
0
 40
1
 40
1
 40
1
 40
1
 10
20.059916
 20
26.949892
 30
0.0
 10
20.059916
 20
27.613960
 30
0.0
 10
19.796121
 20
28.250831
 30
0.0
 10
19.326576
 20
28.720395
 30
0.0
  0
SPLINE
  5
21e
100
AcDbEntity
  8
Ebene_1
 62
7
100
AcDbSpline
 70
8
 71
3
 72
8
 73
4
 74
0
 40
0
 40
0
 40
0
 40
0
 40
1
 40
1
 40
1
 40
1
 10
19.326576
 20
28.720395
 30
0.0
 10
18.857005
 20
29.189948
 30
0.0
 10
18.220124
 20
29.453743
 30
0.0
 10
17.556067
 20
29.453743
 30
0.0
  0
LINE
  5
21f
100
AcDbEntity
  8
Ebene_1
 62
7
100
AcDbLine
 10
17.556067
 20
29.453743
 30
0.0
 11
13.556578
 21
29.453743
 31
0.0
  0
SPLINE
  5
220
100
AcDbEntity
  8
Ebene_1
 62
7
100
AcDbSpline
 70
8
 71
3
 72
8
 73
4
 74
0
 40
0
 40
0
 40
0
 40
0
 40
1
 40
1
 40
1
 40
1
 10
13.487535
 20
29.453743
 30
0.0
 10
13.089104
 20
29.453743
 30
0.0
 10
12.706988
 20
29.295474
 30
0.0
 10
12.425233
 20
29.013739
 30
0.0
  0
SPLINE
  5
221
100
AcDbEntity
  8
Ebene_1
 62
7
100
AcDbSpline
 70
8
 71
3
 72
8
 73
4
 74
0
 40
0
 40
0
 40
0
 40
0
 40
1
 40
1
 40
1
 40
1
 10
12.425233
 20
29.013739
 30
0.0
 10
12.143505
 20
28.731990
 30
0.0
 10
11.985228
 20
28.349888
 30
0.0
 10
11.985228
 20
27.951432
 30
0.0
  0
LINE
  5
222
100
AcDbEntity
  8
Ebene_1
 62
7
100
AcDbLine
 10
11.985228
 20
27.951432
 30
0.0
 11
11.985228
 21
27.951432
 31
0.0
  0
LINE
  5
223
100
AcDbEntity
  8
Ebene_1
 62
7
100
AcDbLine
 10
11.985228
 20
27.951432
 30
0.0
 11
11.985228
 21
27.951432
 31
0.0
  0
LINE
  5
224
100
AcDbEntity
  8
Ebene_1
 62
7
100
AcDbLine
 10
19.199859
 20
18.121489
 30
0.0
 11
19.199859
 21
27.071612
 31
0.0
  0
LINE
  5
225
100
AcDbEntity
  8
Ebene_1
 62
7
100
AcDbLine
 10
19.199859
 20
27.071612
 30
0.0
 11
19.600441
 21
27.071612
 31
0.0
  0
LINE
  5
226
100
AcDbEntity
  8
Ebene_1
 62
7
100
AcDbLine
 10
19.600441
 20
27.071612
 30
0.0
 11
19.600441
 21
18.121489
 31
0.0
  0
LINE
  5
227
100
AcDbEntity
  8
Ebene_1
 62
7
100
AcDbLine
 10
19.600441
 20
18.121489
 30
0.0
 11
19.199859
 21
18.121489
 31
0.0
  0
LINE
  5
228
100
AcDbEntity
  8
Ebene_1
 62
7
100
AcDbLine
 10
12.444706
 20
18.121489
 30
0.0
 11
12.444706
 21
27.071612
 31
0.0
  0
LINE
  5
229
100
AcDbEntity
  8
Ebene_1
 62
7
100
AcDbLine
 10
12.444706
 20
27.071612
 30
0.0
 11
12.845259
 21
27.071612
 31
0.0
  0
LINE
  5
22a
100
AcDbEntity
  8
Ebene_1
 62
7
100
AcDbLine
 10
12.845259
 20
27.071612
 30
0.0
 11
12.845259
 21
18.121489
 31
0.0
  0
LINE
  5
22b
100
AcDbEntity
  8
Ebene_1
 62
7
100
AcDbLine
 10
12.845259
 20
18.121489
 30
0.0
 11
12.444706
 21
18.121489
 31
0.0
  0
LINE
  5
22c
100
AcDbEntity
  8
Ebene_1
 62
7
100
AcDbLine
 10
12.881070
 20
29.084262
 30
0.0
 11
17.862685
 21
29.084262
 31
0.0
  0
LINE
  5
22d
100
AcDbEntity
  8
Ebene_1
 62
7
100
AcDbLine
 10
17.862685
 20
29.084262
 30
0.0
 11
17.862685
 21
28.683697
 31
0.0
  0
LINE
  5
22e
100
AcDbEntity
  8
Ebene_1
 62
7
100
AcDbLine
 10
17.862685
 20
28.683697
 30
0.0
 11
12.881070
 21
28.683697
 31
0.0
  0
LINE
  5
22f
100
AcDbEntity
  8
Ebene_1
 62
7
100
AcDbLine
 10
12.881070
 20
28.683697
 30
0.0
 11
12.881070
 21
29.084262
 31
0.0
  0
LINE
  5
230
100
AcDbEntity
  8
Ebene_1
 62
7
100
AcDbLine
 10
12.881070
 20
16.509425
 30
0.0
 11
17.862685
 21
16.509425
 31
0.0
  0
LINE
  5
231
100
AcDbEntity
  8
Ebene_1
 62
7
100
AcDbLine
 10
17.862685
 20
16.509425
 30
0.0
 11
17.862685
 21
16.108850
 31
0.0
  0
LINE
  5
232
100
AcDbEntity
  8
Ebene_1
 62
7
100
AcDbLine
 10
17.862685
 20
16.108850
 30
0.0
 11
12.881070
 21
16.108850
 31
0.0
  0
LINE
  5
233
100
AcDbEntity
  8
Ebene_1
 62
7
100
AcDbLine
 10
12.881070
 20
16.108850
 30
0.0
 11
12.881070
 21
16.509425
 31
0.0
  0
LINE
  5
234
100
AcDbEntity
  8
Ebene_1
 62
7
100
AcDbLine
 10
11.670668
 20
10.054015
 30
0.0
 11
11.988654
 21
10.054015
 31
0.0
  0
LINE
  5
235
100
AcDbEntity
  8
Ebene_1
 62
7
100
AcDbLine
 10
11.988654
 20
10.054015
 30
0.0
 11
11.988654
 21
17.644505
 31
0.0
  0
LINE
  5
236
100
AcDbEntity
  8
Ebene_1
 62
7
100
AcDbLine
 10
11.988654
 20
17.644505
 30
0.0
 11
11.418136
 21
17.644505
 31
0.0
  0
LINE
  5
237
100
AcDbEntity
  8
Ebene_1
 62
7
100
AcDbLine
 10
11.418136
 20
17.644505
 30
0.0
 11
11.418136
 21
17.394115
 31
0.0
  0
LINE
  5
238
100
AcDbEntity
  8
Ebene_1
 62
7
100
AcDbLine
 10
11.418136
 20
17.394115
 30
0.0
 11
11.092627
 21
17.394115
 31
0.0
  0
LINE
  5
239
100
AcDbEntity
  8
Ebene_1
 62
7
100
AcDbLine
 10
11.092627
 20
17.394115
 30
0.0
 11
11.092627
 21
17.644505
 31
0.0
  0
LINE
  5
23a
100
AcDbEntity
  8
Ebene_1
 62
7
100
AcDbLine
 10
11.092627
 20
17.644505
 30
0.0
 11
10.892324
 21
17.644505
 31
0.0
  0
LINE
  5
23b
100
AcDbEntity
  8
Ebene_1
 62
7
100
AcDbLine
 10
10.892324
 20
17.644505
 30
0.0
 11
10.892324
 21
17.962497
 31
0.0
  0
LINE
  5
23c
100
AcDbEntity
  8
Ebene_1
 62
7
100
AcDbLine
 10
10.892324
 20
17.962497
 30
0.0
 11
11.092627
 21
17.962497
 31
0.0
  0
LINE
  5
23d
100
AcDbEntity
  8
Ebene_1
 62
7
100
AcDbLine
 10
11.092627
 20
17.962497
 30
0.0
 11
11.092627
 21
18.212887
 31
0.0
  0
LINE
  5
23e
100
AcDbEntity
  8
Ebene_1
 62
7
100
AcDbLine
 10
11.092627
 20
18.212887
 30
0.0
 11
11.418136
 21
18.212887
 31
0.0
  0
LINE
  5
23f
100
AcDbEntity
  8
Ebene_1
 62
7
100
AcDbLine
 10
11.418136
 20
18.212887
 30
0.0
 11
11.418136
 21
17.962497
 31
0.0
  0
LINE
  5
240
100
AcDbEntity
  8
Ebene_1
 62
7
100
AcDbLine
 10
11.418136
 20
17.962497
 30
0.0
 11
11.988654
 21
17.962497
 31
0.0
  0
LINE
  5
241
100
AcDbEntity
  8
Ebene_1
 62
7
100
AcDbLine
 10
11.988654
 20
17.962497
 30
0.0
 11
11.988654
 21
19.005998
 31
0.0
  0
LINE
  5
242
100
AcDbEntity
  8
Ebene_1
 62
7
100
AcDbLine
 10
11.988654
 20
19.005998
 30
0.0
 11
11.744174
 21
19.005998
 31
0.0
  0
LINE
  5
243
100
AcDbEntity
  8
Ebene_1
 62
7
100
AcDbLine
 10
11.670668
 20
19.005998
 30
0.0
 11
11.670668
 21
19.506765
 31
0.0
  0
LINE
  5
244
100
AcDbEntity
  8
Ebene_1
 62
7
100
AcDbLine
 10
11.670668
 20
19.506765
 30
0.0
 11
0.843764
 21
19.506765
 31
0.0
  0
LINE
  5
245
100
AcDbEntity
  8
Ebene_1
 62
7
100
AcDbLine
 10
0.843764
 20
19.506765
 30
0.0
 11
0.843764
 21
19.005998
 31
0.0
  0
LINE
  5
246
100
AcDbEntity
  8
Ebene_1
 62
7
100
AcDbLine
 10
0.843764
 20
19.005998
 30
0.0
 11
0.525777
 21
19.005998
 31
0.0
  0
LINE
  5
247
100
AcDbEntity
  8
Ebene_1
 62
7
100
AcDbLine
 10
0.525777
 20
18.855531
 30
0.0
 11
0.525777
 21
14.689001
 31
0.0
  0
LINE
  5
248
100
AcDbEntity
  8
Ebene_1
 62
7
100
AcDbLine
 10
0.525777
 20
14.689001
 30
0.0
 11
1.091303
 21
14.689001
 31
0.0
  0
LINE
  5
249
100
AcDbEntity
  8
Ebene_1
 62
7
100
AcDbLine
 10
1.091303
 20
14.689001
 30
0.0
 11
1.091303
 21
14.939383
 31
0.0
  0
LINE
  5
24a
100
AcDbEntity
  8
Ebene_1
 62
7
100
AcDbLine
 10
1.091303
 20
14.939383
 30
0.0
 11
1.416809
 21
14.939383
 31
0.0
  0
LINE
  5
24b
100
AcDbEntity
  8
Ebene_1
 62
7
100
AcDbLine
 10
1.416809
 20
14.939383
 30
0.0
 11
1.416809
 21
14.689001
 31
0.0
  0
LINE
  5
24c
100
AcDbEntity
  8
Ebene_1
 62
7
100
AcDbLine
 10
1.416809
 20
14.689001
 30
0.0
 11
1.516962
 21
14.689001
 31
0.0
  0
LINE
  5
24d
100
AcDbEntity
  8
Ebene_1
 62
7
100
AcDbLine
 10
1.516962
 20
14.689001
 30
0.0
 11
1.516962
 21
14.371020
 31
0.0
  0
LINE
  5
24e
100
AcDbEntity
  8
Ebene_1
 62
7
100
AcDbLine
 10
1.516962
 20
14.371020
 30
0.0
 11
1.416809
 21
14.371020
 31
0.0
  0
LINE
  5
24f
100
AcDbEntity
  8
Ebene_1
 62
7
100
AcDbLine
 10
1.416809
 20
14.371020
 30
0.0
 11
1.416809
 21
14.120629
 31
0.0
  0
LINE
  5
250
100
AcDbEntity
  8
Ebene_1
 62
7
100
AcDbLine
 10
1.416809
 20
14.120629
 30
0.0
 11
1.091303
 21
14.120629
 31
0.0
  0
LINE
  5
251
100
AcDbEntity
  8
Ebene_1
 62
7
100
AcDbLine
 10
1.091303
 20
14.120629
 30
0.0
 11
1.091303
 21
14.371020
 31
0.0
  0
LINE
  5
252
100
AcDbEntity
  8
Ebene_1
 62
7
100
AcDbLine
 10
1.091303
 20
14.371020
 30
0.0
 11
0.525777
 21
14.371020
 31
0.0
  0
LINE
  5
253
100
AcDbEntity
  8
Ebene_1
 62
7
100
AcDbLine
 10
0.525777
 20
14.371020
 30
0.0
 11
0.525777
 21
10.163757
 31
0.0
  0
LINE
  5
254
100
AcDbEntity
  8
Ebene_1
 62
7
100
AcDbLine
 10
0.525777
 20
10.054015
 30
0.0
 11
0.843764
 21
10.054015
 31
0.0
  0
LINE
  5
255
100
AcDbEntity
  8
Ebene_1
 62
7
100
AcDbLine
 10
0.843764
 20
10.054015
 30
0.0
 11
0.843764
 21
9.553255
 31
0.0
  0
LINE
  5
256
100
AcDbEntity
  8
Ebene_1
 62
7
100
AcDbLine
 10
0.843764
 20
9.553255
 30
0.0
 11
11.512629
 21
9.553255
 31
0.0
  0
LINE
  5
257
100
AcDbEntity
  8
Ebene_1
 62
7
100
AcDbLine
 10
11.670668
 20
9.553255
 30
0.0
 11
11.670668
 21
10.054015
 31
0.0
  0
SPLINE
  5
258
100
AcDbEntity
  8
Ebene_1
 62
7
100
AcDbSpline
 70
8
 71
3
 72
8
 73
4
 74
0
 40
0
 40
0
 40
0
 40
0
 40
1
 40
1
 40
1
 40
1
 10
10.305759
 20
12.882996
 30
0.0
 10
10.182042
 20
12.882996
 30
0.0
 10
10.063401
 20
12.915629
 30
0.0
 10
9.975921
 20
12.973733
 30
0.0
  0
SPLINE
  5
259
100
AcDbEntity
  8
Ebene_1
 62
7
100
AcDbSpline
 70
8
 71
3
 72
8
 73
4
 74
0
 40
0
 40
0
 40
0
 40
0
 40
1
 40
1
 40
1
 40
1
 10
9.975921
 20
12.973733
 30
0.0
 10
9.888440
 20
13.031837
 30
0.0
 10
9.839293
 20
13.110636
 30
0.0
 10
9.839293
 20
13.192787
 30
0.0
  0
LINE
  5
25a
100
AcDbEntity
  8
Ebene_1
 62
7
100
AcDbLine
 10
9.839293
 20
13.192787
 30
0.0
 11
9.839293
 21
14.605657
 31
0.0
  0
SPLINE
  5
25b
100
AcDbEntity
  8
Ebene_1
 62
7
100
AcDbSpline
 70
8
 71
3
 72
8
 73
4
 74
0
 40
0
 40
0
 40
0
 40
0
 40
1
 40
1
 40
1
 40
1
 10
9.839293
 20
14.605657
 30
0.0
 10
9.839293
 20
14.687826
 30
0.0
 10
9.888440
 20
14.766625
 30
0.0
 10
9.975921
 20
14.824710
 30
0.0
  0
SPLINE
  5
25c
100
AcDbEntity
  8
Ebene_1
 62
7
100
AcDbSpline
 70
8
 71
3
 72
8
 73
4
 74
0
 40
0
 40
0
 40
0
 40
0
 40
1
 40
1
 40
1
 40
1
 10
9.975921
 20
14.824710
 30
0.0
 10
10.063401
 20
14.882815
 30
0.0
 10
10.182042
 20
14.915456
 30
0.0
 10
10.305759
 20
14.915456
 30
0.0
  0
LINE
  5
25d
100
AcDbEntity
  8
Ebene_1
 62
7
100
AcDbLine
 10
10.305759
 20
14.915456
 30
0.0
 11
10.557626
 21
14.915456
 31
0.0
  0
SPLINE
  5
25e
100
AcDbEntity
  8
Ebene_1
 62
7
100
AcDbSpline
 70
8
 71
3
 72
8
 73
4
 74
0
 40
0
 40
0
 40
0
 40
0
 40
1
 40
1
 40
1
 40
1
 10
10.557626
 20
14.915456
 30
0.0
 10
10.815256
 20
14.915456
 30
0.0
 10
11.024063
 20
14.776747
 30
0.0
 10
11.024063
 20
14.605657
 30
0.0
  0
LINE
  5
25f
100
AcDbEntity
  8
Ebene_1
 62
7
100
AcDbLine
 10
11.024063
 20
14.605657
 30
0.0
 11
11.024063
 21
13.192787
 31
0.0
  0
SPLINE
  5
260
100
AcDbEntity
  8
Ebene_1
 62
7
100
AcDbSpline
 70
8
 71
3
 72
8
 73
4
 74
0
 40
0
 40
0
 40
0
 40
0
 40
1
 40
1
 40
1
 40
1
 10
11.024063
 20
13.192787
 30
0.0
 10
11.024063
 20
13.021697
 30
0.0
 10
10.815257
 20
12.882996
 30
0.0
 10
10.557626
 20
12.882996
 30
0.0
  0
LINE
  5
261
100
AcDbEntity
  8
Ebene_1
 62
7
100
AcDbLine
 10
10.557626
 20
12.882996
 30
0.0
 11
10.305759
 21
12.882996
 31
0.0
  0
LINE
  5
262
100
AcDbEntity
  8
Ebene_1
 62
7
100
AcDbLine
 10
1.863561
 20
18.355953
 30
0.0
 11
5.196202
 21
18.355953
 31
0.0
  0
LINE
  5
263
100
AcDbEntity
  8
Ebene_1
 62
7
100
AcDbLine
 10
5.196202
 20
18.355953
 30
0.0
 11
5.196202
 21
17.987660
 31
0.0
  0
LINE
  5
264
100
AcDbEntity
  8
Ebene_1
 62
7
100
AcDbLine
 10
5.196202
 20
17.987660
 30
0.0
 11
1.863561
 21
17.987660
 31
0.0
  0
LINE
  5
265
100
AcDbEntity
  8
Ebene_1
 62
7
100
AcDbLine
 10
1.863561
 20
17.987660
 30
0.0
 11
1.863561
 21
18.355953
 31
0.0
  0
LINE
  5
266
100
AcDbEntity
  8
Ebene_1
 62
7
100
AcDbLine
 10
1.863561
 20
12.789995
 30
0.0
 11
5.196202
 21
12.789995
 31
0.0
  0
LINE
  5
267
100
AcDbEntity
  8
Ebene_1
 62
7
100
AcDbLine
 10
5.196202
 20
12.789995
 30
0.0
 11
5.196202
 21
12.421691
 31
0.0
  0
LINE
  5
268
100
AcDbEntity
  8
Ebene_1
 62
7
100
AcDbLine
 10
5.196202
 20
12.421691
 30
0.0
 11
1.863561
 21
12.421691
 31
0.0
  0
LINE
  5
269
100
AcDbEntity
  8
Ebene_1
 62
7
100
AcDbLine
 10
1.863561
 20
12.421691
 30
0.0
 11
1.863561
 21
12.789995
 31
0.0
  0
LINE
  5
26a
100
AcDbEntity
  8
Ebene_1
 62
7
100
AcDbLine
 10
0.242562
 20
29.757448
 30
0.0
 11
29.757439
 21
29.757448
 31
0.0
  0
LINE
  5
26b
100
AcDbEntity
  8
Ebene_1
 62
7
100
AcDbLine
 10
29.757439
 20
29.757448
 30
0.0
 11
29.757439
 21
0.242553
 31
0.0
  0
LINE
  5
26c
100
AcDbEntity
  8
Ebene_1
 62
7
100
AcDbLine
 10
29.757439
 20
0.242553
 30
0.0
 11
0.242562
 21
0.242553
 31
0.0
  0
LINE
  5
26d
100
AcDbEntity
  8
Ebene_1
 62
7
100
AcDbLine
 10
0.242562
 20
0.242553
 30
0.0
 11
0.242562
 21
29.757448
 31
0.0
  0
LINE
  5
26e
100
AcDbEntity
  8
Ebene_1
 62
7
100
AcDbLine
 10
20.228633
 20
15.673874
 30
0.0
 11
20.228633
 21
15.103523
 31
0.0
  0
LINE
  5
26f
100
AcDbEntity
  8
Ebene_1
 62
7
100
AcDbLine
 10
20.209826
 20
15.103523
 30
0.0
 11
20.493785
 21
15.102460
 31
0.0
  0
LINE
  5
270
100
AcDbEntity
  8
Ebene_1
 62
7
100
AcDbLine
 10
20.476516
 20
15.130905
 30
0.0
 11
20.476516
 21
14.754968
 31
0.0
  0
LINE
  5
271
100
AcDbEntity
  8
Ebene_1
 62
7
100
AcDbLine
 10
20.493253
 20
14.780070
 30
0.0
 11
20.213996
 21
14.779006
 31
0.0
  0
LINE
  5
272
100
AcDbEntity
  8
Ebene_1
 62
7
100
AcDbLine
 10
20.227599
 20
14.795762
 30
0.0
 11
20.227599
 21
14.664494
 31
0.0
  0
LINE
  5
273
100
AcDbEntity
  8
Ebene_1
 62
7
100
AcDbLine
 10
20.245371
 20
14.680186
 30
0.0
 11
19.895901
 21
14.681250
 31
0.0
  0
LINE
  5
274
100
AcDbEntity
  8
Ebene_1
 62
7
100
AcDbLine
 10
19.913168
 20
14.661359
 30
0.0
 11
19.910511
 21
14.796286
 31
0.0
  0
LINE
  5
275
100
AcDbEntity
  8
Ebene_1
 62
7
100
AcDbLine
 10
19.913168
 20
14.780591
 30
0.0
 11
19.664729
 21
14.780591
 31
0.0
  0
LINE
  5
276
100
AcDbEntity
  8
Ebene_1
 62
7
100
AcDbLine
 10
19.659522
 20
14.754798
 30
0.0
 11
19.659522
 21
15.130713
 31
0.0
  0
LINE
  5
277
100
AcDbEntity
  8
Ebene_1
 62
7
100
AcDbLine
 10
19.642253
 20
15.103014
 30
0.0
 11
19.928312
 21
15.103545
 31
0.0
  0
LINE
  5
278
100
AcDbEntity
  8
Ebene_1
 62
7
100
AcDbLine
 10
19.913168
 20
15.086274
 30
0.0
 11
19.913168
 21
15.673874
 31
0.0
  0
LINE
  5
279
100
AcDbEntity
  8
Ebene_1
 62
7
100
AcDbLine
 10
29.077518
 20
6.380518
 30
0.0
 11
28.718611
 21
6.380518
 31
0.0
  0
LINE
  5
27a
100
AcDbEntity
  8
Ebene_1
 62
7
100
AcDbLine
 10
28.400589
 20
6.380518
 30
0.0
 11
27.080051
 21
6.380518
 31
0.0
  0
LINE
  5
27b
100
AcDbEntity
  8
Ebene_1
 62
7
100
AcDbLine
 10
26.579214
 20
3.268016
 30
0.0
 11
26.579214
 21
6.062497
 31
0.0
  0
LINE
  5
27c
100
AcDbEntity
  8
Ebene_1
 62
7
100
AcDbLine
 10
26.617438
 20
6.062497
 30
0.0
 11
27.080051
 21
6.062497
 31
0.0
  0
LINE
  5
27d
100
AcDbEntity
  8
Ebene_1
 62
7
100
AcDbLine
 10
27.080051
 20
6.062497
 30
0.0
 11
27.080051
 21
6.380518
 31
0.0
  0
LINE
  5
27e
100
AcDbEntity
  8
Ebene_1
 62
7
100
AcDbLine
 10
27.080051
 20
6.380518
 30
0.0
 11
28.400568
 21
6.380518
 31
0.0
  0
LINE
  5
27f
100
AcDbEntity
  8
Ebene_1
 62
7
100
AcDbLine
 10
28.400568
 20
6.380518
 30
0.0
 11
28.400568
 21
5.792125
 31
0.0
  0
LINE
  5
280
100
AcDbEntity
  8
Ebene_1
 62
7
100
AcDbLine
 10
28.400568
 20
5.792125
 30
0.0
 11
28.150148
 21
5.792125
 31
0.0
  0
LINE
  5
281
100
AcDbEntity
  8
Ebene_1
 62
7
100
AcDbLine
 10
28.150148
 20
5.792125
 30
0.0
 11
28.150148
 21
5.466592
 31
0.0
  0
LINE
  5
282
100
AcDbEntity
  8
Ebene_1
 62
7
100
AcDbLine
 10
28.150148
 20
5.466592
 30
0.0
 11
28.400568
 21
5.466592
 31
0.0
  0
LINE
  5
283
100
AcDbEntity
  8
Ebene_1
 62
7
100
AcDbLine
 10
28.400568
 20
5.466592
 30
0.0
 11
28.400568
 21
5.266260
 31
0.0
  0
LINE
  5
284
100
AcDbEntity
  8
Ebene_1
 62
7
100
AcDbLine
 10
28.400568
 20
5.266260
 30
0.0
 11
28.718603
 21
5.266260
 31
0.0
  0
LINE
  5
285
100
AcDbEntity
  8
Ebene_1
 62
7
100
AcDbLine
 10
28.718603
 20
5.266260
 30
0.0
 11
28.718603
 21
5.466592
 31
0.0
  0
LINE
  5
286
100
AcDbEntity
  8
Ebene_1
 62
7
100
AcDbLine
 10
28.718603
 20
5.466592
 30
0.0
 11
28.969033
 21
5.466592
 31
0.0
  0
LINE
  5
287
100
AcDbEntity
  8
Ebene_1
 62
7
100
AcDbLine
 10
28.969033
 20
5.466592
 30
0.0
 11
28.969033
 21
5.792125
 31
0.0
  0
LINE
  5
288
100
AcDbEntity
  8
Ebene_1
 62
7
100
AcDbLine
 10
28.969033
 20
5.792125
 30
0.0
 11
28.718603
 21
5.792125
 31
0.0
  0
LINE
  5
289
100
AcDbEntity
  8
Ebene_1
 62
7
100
AcDbLine
 10
28.718603
 20
5.792125
 30
0.0
 11
28.718603
 21
6.380518
 31
0.0
  0
LINE
  5
28a
100
AcDbEntity
  8
Ebene_1
 62
7
100
AcDbLine
 10
28.718603
 20
6.380518
 30
0.0
 11
29.077518
 21
6.380518
 31
0.0
  0
LINE
  5
28b
100
AcDbEntity
  8
Ebene_1
 62
7
100
AcDbLine
 10
29.077518
 20
6.380518
 30
0.0
 11
29.077518
 21
6.062497
 31
0.0
  0
LINE
  5
28c
100
AcDbEntity
  8
Ebene_1
 62
7
100
AcDbLine
 10
29.077518
 20
6.062497
 30
0.0
 11
29.578350
 21
6.062497
 31
0.0
  0
LINE
  5
28d
100
AcDbEntity
  8
Ebene_1
 62
7
100
AcDbLine
 10
29.578350
 20
6.062497
 30
0.0
 11
29.578350
 21
3.268016
 31
0.0
  0
LINE
  5
28e
100
AcDbEntity
  8
Ebene_1
 62
7
100
AcDbLine
 10
29.578350
 20
3.268016
 30
0.0
 11
29.077518
 21
3.268016
 31
0.0
  0
LINE
  5
28f
100
AcDbEntity
  8
Ebene_1
 62
7
100
AcDbLine
 10
29.077518
 20
3.268016
 30
0.0
 11
29.077518
 21
2.949984
 31
0.0
  0
LINE
  5
290
100
AcDbEntity
  8
Ebene_1
 62
7
100
AcDbLine
 10
29.077518
 20
2.949984
 30
0.0
 11
28.718611
 21
2.949984
 31
0.0
  0
LINE
  5
291
100
AcDbEntity
  8
Ebene_1
 62
7
100
AcDbLine
 10
28.718611
 20
2.949984
 30
0.0
 11
28.718611
 21
3.524934
 31
0.0
  0
LINE
  5
292
100
AcDbEntity
  8
Ebene_1
 62
7
100
AcDbLine
 10
28.718611
 20
3.524934
 30
0.0
 11
28.969033
 21
3.524934
 31
0.0
  0
LINE
  5
293
100
AcDbEntity
  8
Ebene_1
 62
7
100
AcDbLine
 10
28.969033
 20
3.524934
 30
0.0
 11
28.969033
 21
3.850467
 31
0.0
  0
LINE
  5
294
100
AcDbEntity
  8
Ebene_1
 62
7
100
AcDbLine
 10
28.969033
 20
3.850467
 30
0.0
 11
28.718611
 21
3.850467
 31
0.0
  0
LINE
  5
295
100
AcDbEntity
  8
Ebene_1
 62
7
100
AcDbLine
 10
28.718611
 20
3.850467
 30
0.0
 11
28.718611
 21
3.950627
 31
0.0
  0
LINE
  5
296
100
AcDbEntity
  8
Ebene_1
 62
7
100
AcDbLine
 10
28.718611
 20
3.950627
 30
0.0
 11
28.400589
 21
3.950627
 31
0.0
  0
LINE
  5
297
100
AcDbEntity
  8
Ebene_1
 62
7
100
AcDbLine
 10
28.400589
 20
3.950627
 30
0.0
 11
28.400589
 21
3.850467
 31
0.0
  0
LINE
  5
298
100
AcDbEntity
  8
Ebene_1
 62
7
100
AcDbLine
 10
28.400589
 20
3.850467
 30
0.0
 11
28.150166
 21
3.850467
 31
0.0
  0
LINE
  5
299
100
AcDbEntity
  8
Ebene_1
 62
7
100
AcDbLine
 10
28.150166
 20
3.850467
 30
0.0
 11
28.150166
 21
3.524934
 31
0.0
  0
LINE
  5
29a
100
AcDbEntity
  8
Ebene_1
 62
7
100
AcDbLine
 10
28.150166
 20
3.524934
 30
0.0
 11
28.400589
 21
3.524934
 31
0.0
  0
LINE
  5
29b
100
AcDbEntity
  8
Ebene_1
 62
7
100
AcDbLine
 10
28.400589
 20
3.524934
 30
0.0
 11
28.400589
 21
2.949984
 31
0.0
  0
LINE
  5
29c
100
AcDbEntity
  8
Ebene_1
 62
7
100
AcDbLine
 10
28.400589
 20
2.949984
 30
0.0
 11
27.113627
 21
2.949984
 31
0.0
  0
LINE
  5
29d
100
AcDbEntity
  8
Ebene_1
 62
7
100
AcDbLine
 10
27.080051
 20
2.949984
 30
0.0
 11
27.080051
 21
3.268016
 31
0.0
  0
LINE
  5
29e
100
AcDbEntity
  8
Ebene_1
 62
7
100
AcDbLine
 10
27.080051
 20
3.268016
 30
0.0
 11
26.579214
 21
3.268016
 31
0.0
  0
LINE
  5
29f
100
AcDbEntity
  8
Ebene_1
 62
7
100
AcDbLine
 10
28.983268
 20
5.468629
 30
0.0
 11
28.703963
 21
5.467597
 31
0.0
  0
LINE
  5
2a0
100
AcDbEntity
  8
Ebene_1
 62
7
100
AcDbLine
 10
28.149404
 20
5.443359
 30
0.0
 11
28.149404
 21
5.819324
 31
0.0
  0
LINE
  5
2a1
100
AcDbEntity
  8
Ebene_1
 62
7
100
AcDbLine
 10
28.132146
 20
5.791614
 30
0.0
 11
28.418261
 21
5.792117
 31
0.0
  0
ENDSEC
  0
SECTION
  2
OBJECTS
  0
DICTIONARY
  5
C
330
0
100
AcDbDictionary
  3
ACAD_GROUP
350
D
  3
ACAD_MLINESTYLE
350
17
  0
DICTIONARY
  5
D
330
C
100
AcDbDictionary
  0
DICTIONARY
  5
1A
330
C
100
AcDbDictionary
  0
DICTIONARY
  5
17
330
C
100
AcDbDictionary
  3
STANDARD
350
18
  0
DICTIONARY
  5
19
330
C
100
AcDbDictionary
  0
ENDSEC
  0
EOF
